<?xml version="1.0" encoding="UTF-8" ?>
<!DOCTYPE svg PUBLIC "-//W3C//DTD SVG 1.1//EN" "http://www.w3.org/Graphics/SVG/1.1/DTD/svg11.dtd">
<svg width="120pt" height="120pt" viewBox="0 0 120 120" version="1.1" xmlns="http://www.w3.org/2000/svg">
<g id="#ffffffff">
<path fill="#ffffff" opacity="1.00" d=" M 84.28 29.40 C 88.77 28.74 92.55 33.61 90.84 37.82 C 89.43 42.84 81.39 43.47 79.31 38.63 C 77.20 34.84 79.81 29.51 84.28 29.40 Z" />
<path fill="#ffffff" opacity="1.00" d=" M 33.35 36.37 C 39.77 36.23 46.19 36.21 52.60 36.39 C 52.58 38.11 52.57 39.83 52.56 41.55 C 46.17 41.67 39.78 41.65 33.40 41.57 C 33.39 39.84 33.37 38.10 33.35 36.37 Z" />
<path fill="#ffffff" opacity="1.00" d=" M 60.27 40.31 C 64.85 39.91 69.46 40.14 74.05 40.15 C 77.90 40.09 80.64 43.28 83.63 45.26 C 83.49 48.78 83.58 52.31 83.73 55.83 C 88.07 55.71 92.41 55.71 96.74 56.05 C 96.66 57.88 96.59 59.71 96.52 61.54 C 90.42 61.60 84.31 61.51 78.21 61.64 C 78.00 60.40 77.78 59.16 77.56 57.93 C 75.88 60.09 74.37 62.36 72.94 64.69 C 76.62 67.12 80.23 69.66 83.86 72.17 C 83.91 78.36 83.95 84.54 83.82 90.73 C 81.87 90.72 79.92 90.71 77.97 90.71 C 77.70 85.86 77.73 80.99 77.81 76.13 C 74.03 73.98 70.19 71.94 66.26 70.06 C 66.33 73.82 66.33 77.58 66.25 81.34 C 59.13 81.50 52.00 81.51 44.87 81.33 C 44.88 79.57 44.89 77.82 44.90 76.06 C 50.16 76.09 55.43 76.15 60.69 75.90 C 61.21 70.02 59.21 63.19 63.15 58.16 C 65.89 54.24 68.67 50.34 71.11 46.22 C 68.13 46.20 65.16 46.21 62.19 46.22 C 60.00 49.09 57.82 51.97 55.72 54.90 C 54.44 53.85 53.17 52.81 51.87 51.79 C 54.61 47.95 56.71 43.42 60.27 40.31 Z" />
<path fill="#ffffff" opacity="1.00" d=" M 28.93 45.34 C 35.24 45.48 41.54 45.49 47.85 45.34 C 47.89 47.16 47.93 48.98 47.96 50.80 C 41.55 50.77 35.15 50.76 28.75 50.81 C 28.84 48.99 28.90 47.17 28.93 45.34 Z" />
<path fill="#ffffff" opacity="1.00" d=" M 23.30 54.10 C 29.75 53.71 36.23 53.70 42.69 54.10 C 42.67 55.74 42.66 57.38 42.67 59.02 C 36.23 59.45 29.76 59.44 23.32 59.02 C 23.32 57.38 23.32 55.74 23.30 54.10 Z" />
</g>
</svg>
