<?xml version="1.0" encoding="UTF-8" ?>
<!DOCTYPE svg PUBLIC "-//W3C//DTD SVG 1.1//EN" "http://www.w3.org/Graphics/SVG/1.1/DTD/svg11.dtd">
<svg width="50pt" height="50pt" viewBox="0 0 50 50" version="1.1" xmlns="http://www.w3.org/2000/svg">
<g id="#353535ff">
</g>
<g id="#fdfdfdff">
<path fill="#fdfdfd" opacity="1.00" d=" M 36.93 5.42 C 37.56 9.31 38.81 13.20 38.38 17.20 C 37.74 19.90 37.17 22.62 36.40 25.29 C 34.76 27.09 33.07 28.84 31.31 30.53 C 31.34 30.94 31.40 31.77 31.43 32.18 C 36.00 32.63 40.58 32.57 45.16 32.53 C 40.96 34.23 36.69 36.09 32.10 36.30 C 29.00 35.96 25.92 35.49 22.81 35.24 C 21.58 32.80 19.07 31.52 16.91 30.02 C 15.14 34.72 14.26 39.68 14.07 44.68 C 13.50 41.64 12.55 38.65 12.42 35.54 C 12.09 31.63 13.84 27.91 13.58 24.00 C 16.40 23.29 17.77 20.50 19.64 18.54 C 14.79 18.36 9.93 18.57 5.08 18.60 C 8.52 17.12 11.93 15.47 15.60 14.62 C 18.80 14.05 22.09 14.37 25.19 15.26 C 25.97 14.97 27.52 14.39 28.30 14.10 C 27.74 17.36 31.28 18.35 33.27 20.04 C 35.12 15.35 36.31 10.43 36.93 5.42 M 23.01 20.15 C 21.44 22.56 19.44 24.89 19.20 27.89 C 21.57 28.80 23.92 29.74 26.26 30.73 C 28.47 28.32 30.35 25.63 31.95 22.78 C 29.16 21.32 26.21 20.12 23.01 20.15 Z" />
</g>
</svg>
