<?xml version="1.0" encoding="UTF-8" ?>
<!DOCTYPE svg PUBLIC "-//W3C//DTD SVG 1.1//EN" "http://www.w3.org/Graphics/SVG/1.1/DTD/svg11.dtd">
<svg width="120pt" height="120pt" viewBox="0 0 120 120" version="1.1" xmlns="http://www.w3.org/2000/svg">
<g id="#ffffffff">
<path fill="#ffffff" opacity="1.00" d=" M 80.56 25.79 C 83.21 33.49 84.49 41.86 83.05 49.95 C 82.57 52.96 81.26 55.78 80.93 58.81 C 81.52 60.36 82.32 61.81 83.03 63.30 C 81.76 62.58 80.50 61.85 79.24 61.12 C 76.60 65.36 73.13 68.96 69.44 72.28 C 77.90 74.49 86.71 74.25 95.33 73.36 C 85.51 79.49 73.11 82.61 61.79 79.11 C 58.87 77.98 55.92 79.32 53.09 80.05 C 54.09 78.88 55.09 77.72 56.07 76.55 C 52.41 74.54 49.03 72.06 46.03 69.15 C 42.64 77.10 41.10 85.65 40.51 94.23 C 37.68 85.79 36.15 76.44 38.82 67.76 C 39.30 65.92 40.13 64.15 40.29 62.24 C 39.65 60.37 38.61 58.66 37.76 56.88 C 39.13 57.72 40.48 58.58 41.84 59.43 C 44.39 55.81 47.35 52.51 50.42 49.31 C 42.05 48.09 33.64 49.14 25.30 50.06 C 34.37 43.39 46.33 40.04 57.46 42.57 C 61.22 43.72 64.85 41.89 68.40 40.88 C 67.17 42.28 65.90 43.65 64.64 45.02 C 68.17 47.00 71.45 49.38 74.62 51.89 C 78.05 43.59 80.03 34.75 80.56 25.79 M 58.11 50.96 C 54.23 54.96 51.04 59.59 48.86 64.72 C 53.06 67.01 57.30 69.42 62.02 70.42 C 66.79 66.99 69.67 61.57 72.15 56.38 C 67.56 54.35 62.92 52.43 58.11 50.96 Z" />
</g>
</svg>
