<?xml version="1.0" encoding="utf-8"?>
<!-- Generator: Adobe Illustrator 25.1.0, SVG Export Plug-In . SVG Version: 6.00 Build 0)  -->
<svg version="1.1" id="Capa_1" xmlns="http://www.w3.org/2000/svg" xmlns:xlink="http://www.w3.org/1999/xlink" x="0px" y="0px"
	 viewBox="0 0 50 50" style="enable-background:new 0 0 50 50;" xml:space="preserve">
<style type="text/css">
	.st0{fill:#FEFEFE;}
</style>
<g id="_x23_353535ff">
</g>
<g id="_x23_fefefeff">
	<path class="st0" d="M13.9,11.9c5.8-5,15.4-5,21.2,0c4.3,4,3.9,10.5,3.5,15.9c-0.2,3.3-3.8,4.2-6.1,6.1c-0.5,0.4-0.8,1-1,1.7
		c-0.3,1.9-0.4,3.8-0.4,5.7c0,1.5-1.2,2.8-2.7,3c-2.6,0.3-5.3,0.5-7.8-0.1c-1.3-0.3-2.2-1.3-2.4-2.6c-0.3-2.1-0.3-4.3-0.8-6.4
		c-0.1-0.5-0.4-1-0.8-1.4c-1.2-1.2-2.7-1.9-4.2-2.6c-0.8-0.4-1.3-1.2-1.5-2C9.5,23.3,9.4,16.5,13.9,11.9 M14.3,22.4
		c-2.8,2.7,0.3,7,3.7,8c1.3,0.4,2.6-0.2,3.4-1.3c0.8-1.3,1.1-2.9,1.1-4.4c0-1.3-0.8-2.5-2-2.9C18.6,21.1,15.9,21.1,14.3,22.4
		 M27.3,22.4c-1.6,1.8-0.8,4.8,0.7,6.9c0.7,0.9,1.8,1.3,2.9,1.1c2.5-0.5,4.6-2.7,4.9-5.2c0.1-1.3-0.8-2.7-2.1-3.1
		C31.6,21.3,29.2,21.1,27.3,22.4 M24.3,28.3l-2.4,4.3c0.2,0,1.4-0.9,2.5-1c1.2,0,2.5,1,2.8,1C26.2,31.2,25.4,29.7,24.3,28.3z"/>
</g>
</svg>
