<?xml version="1.0" encoding="UTF-8" ?>
<!DOCTYPE svg PUBLIC "-//W3C//DTD SVG 1.1//EN" "http://www.w3.org/Graphics/SVG/1.1/DTD/svg11.dtd">
<svg width="120pt" height="120pt" viewBox="0 0 120 120" version="1.1" xmlns="http://www.w3.org/2000/svg">
<g id="#ffffffff">
<path fill="#ffffff" opacity="1.00" d=" M 38.83 36.84 C 43.74 29.83 52.86 27.48 61.01 27.75 C 69.49 27.63 78.81 31.37 82.81 39.25 C 86.21 45.57 85.93 52.99 85.70 59.94 C 85.44 62.56 85.20 65.41 83.64 67.62 C 80.53 70.21 76.48 71.25 72.97 73.17 C 71.23 78.81 73.18 85.08 71.43 90.49 C 64.14 92.74 55.80 93.04 48.63 90.17 C 48.71 84.52 48.17 78.89 47.66 73.27 C 43.80 70.89 38.25 70.23 35.99 65.93 C 33.36 56.41 33.15 45.35 38.83 36.84 M 40.67 53.64 C 38.13 60.35 44.34 67.08 50.95 67.22 C 56.90 65.39 56.99 57.68 56.45 52.56 C 51.38 50.84 45.27 50.56 40.67 53.64 M 64.23 52.31 C 63.12 57.25 63.73 63.87 68.34 66.82 C 75.35 68.67 83.48 59.57 78.93 53.02 C 74.42 50.67 69.03 51.08 64.23 52.31 M 55.76 72.18 C 57.34 71.52 58.88 70.76 60.35 69.90 C 61.84 70.74 63.37 71.49 64.97 72.10 C 64.02 69.07 62.93 65.51 60.01 63.84 C 57.37 65.80 56.12 69.00 55.76 72.18 Z" />
</g>
</svg>
