<?xml version="1.0" encoding="UTF-8" ?>
<!DOCTYPE svg PUBLIC "-//W3C//DTD SVG 1.1//EN" "http://www.w3.org/Graphics/SVG/1.1/DTD/svg11.dtd">
<svg width="120pt" height="120pt" viewBox="0 0 120 120" version="1.1" xmlns="http://www.w3.org/2000/svg">
<g id="#ffffffff">
<path fill="#ffffff" opacity="1.00" d=" M 28.49 32.29 C 39.37 33.32 50.31 31.02 59.96 25.93 C 62.93 27.08 65.89 28.24 68.83 29.46 C 65.92 34.69 62.36 39.57 60.03 45.12 C 61.87 48.61 64.48 51.61 66.31 55.11 C 62.58 58.77 57.99 61.32 53.71 64.26 C 53.89 70.28 55.38 76.26 57.84 81.75 C 58.52 76.78 57.84 71.51 59.67 66.76 C 63.99 63.15 69.20 60.76 73.43 57.02 C 71.74 52.30 69.06 48.05 66.59 43.73 C 69.80 39.90 73.29 36.28 77.03 32.97 C 78.01 31.97 79.51 32.41 80.74 32.36 C 84.33 32.61 87.92 32.43 91.50 32.30 C 93.57 44.17 92.38 56.90 86.51 67.56 C 80.34 78.66 70.65 87.44 60.02 94.17 C 49.38 87.42 39.66 78.67 33.48 67.56 C 27.61 56.89 26.43 44.16 28.49 32.29 Z" />
</g>
</svg>
