<?xml version="1.0" encoding="UTF-8" ?>
<!DOCTYPE svg PUBLIC "-//W3C//DTD SVG 1.1//EN" "http://www.w3.org/Graphics/SVG/1.1/DTD/svg11.dtd">
<svg width="50pt" height="50pt" viewBox="0 0 50 50" version="1.1" xmlns="http://www.w3.org/2000/svg">
<g id="#353535ff">
</g>
<g id="#fefefeff">
<path fill="#fefefe" opacity="1.00" d=" M 22.19 7.15 C 24.65 5.96 27.29 6.89 29.73 7.61 C 28.23 10.42 26.32 13.06 25.38 16.14 C 25.59 18.42 27.15 20.31 28.11 22.33 C 25.88 24.24 23.53 26.00 21.21 27.79 C 21.68 30.67 22.31 33.52 23.06 36.35 C 23.57 34.06 23.90 31.72 24.67 29.50 C 26.54 27.00 29.58 25.76 31.76 23.58 C 31.63 20.73 29.95 18.29 28.77 15.79 C 30.61 13.69 32.27 11.29 34.74 9.89 C 37.29 9.19 39.98 9.48 42.59 9.40 C 42.83 15.74 43.41 22.50 40.25 28.28 C 36.80 34.73 31.50 40.47 24.97 43.83 C 18.72 40.98 13.82 35.54 10.22 29.80 C 6.61 23.73 6.00 16.41 7.11 9.55 C 12.25 9.70 17.38 9.01 22.19 7.15 Z" />
</g>
</svg>
