<?xml version="1.0" encoding="UTF-8" ?>
<!DOCTYPE svg PUBLIC "-//W3C//DTD SVG 1.1//EN" "http://www.w3.org/Graphics/SVG/1.1/DTD/svg11.dtd">
<svg width="120pt" height="120pt" viewBox="0 0 120 120" version="1.1" xmlns="http://www.w3.org/2000/svg">
<g id="#ffffffff">
<path fill="#ffffff" opacity="1.00" d=" M 57.50 59.85 C 65.11 51.48 70.48 41.21 77.86 32.61 C 80.25 37.25 81.75 42.30 84.13 46.95 C 88.32 42.87 91.59 37.93 95.95 34.01 C 91.29 43.74 86.50 53.41 81.70 63.07 C 79.41 60.02 78.11 56.38 75.96 53.24 C 68.21 63.89 61.78 75.48 54.06 86.15 C 50.92 79.51 49.01 72.36 45.92 65.70 C 38.48 72.01 32.28 79.69 24.86 86.03 C 33.15 72.12 42.05 58.54 50.93 45.00 C 53.44 49.80 55.31 54.90 57.50 59.85 Z" />
</g>
</svg>
