<?xml version="1.0" encoding="utf-8"?>
<!-- Generator: Adobe Illustrator 25.1.0, SVG Export Plug-In . SVG Version: 6.00 Build 0)  -->
<svg version="1.1" id="Capa_1" xmlns="http://www.w3.org/2000/svg" xmlns:xlink="http://www.w3.org/1999/xlink" x="0px" y="0px"
	 viewBox="0 0 50 50" style="enable-background:new 0 0 50 50;" xml:space="preserve">
<style type="text/css">
	.st0{fill:#FCFCFC;}
</style>
<g id="_x23_353535ff">
</g>
<g id="_x23_fcfcfcff">
	<path class="st0" d="M23.3,7.4c1.1,0,2.4,0.1,3.5,0.1c0,1.3,0,2.6,0,3.9c2.9,1.3,6,2.3,8.2,4.6c2.2,2.1,4.1,5.5,4.1,8.2
		c2,0,3.1,0,4.4,0c0,0.8,0,2.5,0.1,3.2c-1.5,0-3.1,0.1-4.6,0.1c0.1,2.9-1.8,6.4-4,8.4c-2.3,2.3-5.4,3.3-8.3,4.5c0,1.4,0,2.8,0.1,4.2
		c-1.2,0-2.4,0-3.6,0c0-1.4,0-2.7,0-4.1c-2.9-1.3-6.1-2.2-8.3-4.6c-2.2-2-3.1-5.8-4.5-8.3c-2.4,0-2.6-0.1-4-0.1c0-1.1,0-2.3,0-3.4
		c1.3,0,2.6,0,3.9,0.1c1.2-2.9,2.3-6.1,4.6-8.3c2-2.2,5.6-3.6,8.3-4.5C23.3,9.9,23.3,7.4,23.3,7.4 M17,18.9c-1,1.5-1.9,3.1-2.2,5.3
		c1.3,0,2.7,0.1,4,0.1c0,1.2,0,2.4,0,3.5l-3.9,0.1c0.2,1.7,0.3,2.9,1.5,4.8c1.7,2.3,4.3,3.4,6.8,3.9c0.1-1.4-0.1-2.9,0.1-4.3
		c1.1,0,2.2,0,3.4,0c0,1.3,0.1,3,0.1,4.3c2.3-0.5,4.3-1,6.2-3.1c1.6-1.5,2.6-3.8,2.5-5.7c-1.3,0-2.9,0-4.3,0c0-1.2,0-2.3,0-3.5
		c1.4,0,2.8-0.1,4.1-0.1c-0.3-2-1.2-4.2-2.9-5.6c-1.6-1.4-2.8-2.5-5.7-3.1c0,1.7,0,2.2,0,4.3c-1.1,0-2.3,0-3.4,0c0-1.9,0-2.4,0-4.4
		C19.3,16.2,19.2,16.8,17,18.9z"/>
	<path class="st0" d="M22.8,24.3c1.4,0,2.7,0,4,0c0,1.4,0,2.8,0,4.1c-1.3,0-2.5,0-4,0C22.8,26.8,22.8,26.2,22.8,24.3z"/>
</g>
</svg>
