<?xml version="1.0" encoding="UTF-8" ?>
<!DOCTYPE svg PUBLIC "-//W3C//DTD SVG 1.1//EN" "http://www.w3.org/Graphics/SVG/1.1/DTD/svg11.dtd">
<svg width="120pt" height="120pt" viewBox="0 0 120 120" version="1.1" xmlns="http://www.w3.org/2000/svg">
<g id="#ffffffff">
<path fill="#ffffff" opacity="1.00" d=" M 56.60 26.75 C 58.86 26.74 61.13 26.74 63.41 26.75 C 63.43 29.31 63.45 31.86 63.47 34.42 C 68.81 35.76 74.13 37.94 77.97 42.03 C 81.90 45.82 83.98 51.00 85.30 56.20 C 87.86 56.24 90.42 56.27 92.99 56.29 C 92.99 58.58 92.99 60.87 92.99 63.17 C 90.43 63.19 87.86 63.20 85.30 63.20 C 83.94 68.78 81.55 74.30 77.17 78.17 C 73.42 81.86 68.37 83.66 63.43 85.11 C 63.44 87.83 63.44 90.54 63.43 93.25 C 61.14 93.26 58.86 93.26 56.57 93.25 C 56.56 90.54 56.56 87.83 56.57 85.12 C 51.40 83.62 46.15 81.62 42.34 77.66 C 38.25 73.84 36.07 68.53 34.73 63.20 C 32.16 63.20 29.58 63.19 27.01 63.17 C 27.01 60.87 27.01 58.58 27.01 56.28 C 29.58 56.27 32.15 56.25 34.72 56.23 C 36.08 51.04 38.13 45.85 42.05 42.05 C 45.88 37.96 51.19 35.76 56.53 34.42 C 56.55 31.86 56.57 29.31 56.60 26.75 M 46.59 46.59 C 43.97 49.19 42.73 52.74 41.63 56.17 C 44.14 56.24 46.65 56.27 49.16 56.31 C 49.18 58.58 49.19 60.86 49.20 63.13 C 46.67 63.18 44.15 63.22 41.62 63.30 C 42.67 66.63 43.81 70.11 46.35 72.64 C 49.00 75.57 52.80 76.96 56.49 78.07 C 56.54 75.56 56.57 73.06 56.60 70.56 C 58.86 70.55 61.13 70.54 63.40 70.56 C 63.43 73.06 63.46 75.57 63.51 78.07 C 71.11 76.71 76.81 70.68 78.97 63.44 C 76.25 63.26 73.52 63.18 70.80 63.08 C 70.81 60.82 70.82 58.55 70.84 56.29 C 73.54 56.27 76.24 56.25 78.94 56.19 C 77.64 52.72 76.22 49.13 73.46 46.54 C 70.81 43.82 67.16 42.52 63.66 41.30 C 63.51 43.85 63.43 46.39 63.34 48.94 C 61.11 48.94 58.88 48.94 56.65 48.94 C 56.57 46.39 56.49 43.84 56.35 41.30 C 52.84 42.48 49.15 43.77 46.59 46.59 Z" />
<path fill="#ffffff" opacity="1.00" d=" M 58.34 56.12 C 60.11 55.45 62.49 55.94 63.41 57.72 C 64.82 60.27 63.13 64.20 60.00 64.17 C 55.85 64.37 54.49 57.59 58.34 56.12 Z" />
</g>
</svg>
