<?xml version="1.0" encoding="UTF-8" ?>
<!DOCTYPE svg PUBLIC "-//W3C//DTD SVG 1.1//EN" "http://www.w3.org/Graphics/SVG/1.1/DTD/svg11.dtd">
<svg width="50pt" height="50pt" viewBox="0 0 50 50" version="1.1" xmlns="http://www.w3.org/2000/svg">
<g id="#353535ff">
</g>
<g id="#fdfdfdff">
<path fill="#fdfdfd" opacity="1.00" d=" M 23.73 23.16 C 27.59 18.32 31.04 13.17 34.88 8.30 C 36.17 10.70 37.41 13.12 38.65 15.54 C 40.39 13.92 42.13 12.30 43.92 10.74 C 42.06 15.53 39.71 20.11 37.23 24.60 C 36.05 23.04 34.90 21.48 33.73 19.92 C 29.64 25.77 26.03 31.96 21.81 37.72 C 20.09 34.11 18.52 30.43 16.98 26.74 C 13.72 29.99 10.35 33.13 6.82 36.07 C 10.63 28.85 15.11 21.99 19.94 15.41 C 21.20 17.99 22.44 20.59 23.73 23.16 Z" />
</g>
</svg>
