<?xml version="1.0" encoding="UTF-8" ?>
<!DOCTYPE svg PUBLIC "-//W3C//DTD SVG 1.1//EN" "http://www.w3.org/Graphics/SVG/1.1/DTD/svg11.dtd">
<svg width="120pt" height="120pt" viewBox="0 0 120 120" version="1.1" xmlns="http://www.w3.org/2000/svg">
<g id="#ffffffff">
<path fill="#ffffff" opacity="1.00" d=" M 48.03 30.03 C 54.26 21.90 69.14 23.17 73.15 32.87 C 74.56 37.45 74.88 42.32 75.80 47.02 C 75.21 52.62 72.37 57.80 72.26 63.54 C 73.62 61.23 74.85 58.85 76.06 56.46 C 80.31 58.06 84.37 60.48 88.99 60.82 C 91.34 61.11 93.67 61.58 95.99 62.09 C 95.23 73.43 88.84 84.25 79.03 90.06 C 68.54 96.53 54.65 97.11 43.79 91.20 C 32.73 85.46 25.15 73.86 24.06 61.47 C 27.19 60.87 30.38 60.75 33.52 60.26 C 36.87 59.29 40.00 57.69 43.23 56.39 C 44.39 58.87 45.58 61.34 47.06 63.65 C 46.80 59.79 46.24 55.89 44.61 52.35 C 43.43 49.82 43.53 46.98 44.17 44.33 C 45.34 39.55 44.72 34.06 48.03 30.03 M 47.40 49.03 C 48.94 53.77 55.39 55.10 58.36 50.89 C 54.77 49.96 51.10 49.38 47.40 49.03 M 60.78 50.83 C 62.62 52.17 64.48 54.10 67.00 53.35 C 69.60 53.38 70.90 50.95 72.29 49.16 C 68.41 49.38 64.56 49.95 60.78 50.83 Z" />
</g>
</svg>
