<?xml version="1.0" encoding="UTF-8" ?>
<!DOCTYPE svg PUBLIC "-//W3C//DTD SVG 1.1//EN" "http://www.w3.org/Graphics/SVG/1.1/DTD/svg11.dtd">
<svg width="50pt" height="50pt" viewBox="0 0 50 50" version="1.1" xmlns="http://www.w3.org/2000/svg">
<g id="#353535ff">
</g>
<g id="#fefefeff">
<path fill="#fefefe" opacity="1.00" d=" M 23.31 8.42 C 26.88 12.10 30.10 16.10 33.37 20.05 C 34.17 17.27 34.59 14.40 35.29 11.60 C 39.53 16.09 41.39 22.45 42.54 28.38 C 43.77 34.80 39.97 41.87 33.42 43.38 C 25.06 45.23 16.86 41.02 9.93 36.75 C 12.75 35.93 15.66 35.44 18.46 34.52 C 14.83 30.87 10.56 27.95 6.88 24.35 C 10.71 24.44 14.50 24.93 18.29 25.49 C 15.31 19.89 11.34 14.92 8.15 9.45 C 14.00 11.95 18.78 16.28 24.36 19.27 C 23.82 15.67 23.38 12.06 23.31 8.42 M 35.90 31.08 C 32.86 30.32 29.97 29.10 27.15 27.75 C 28.24 30.66 29.58 33.46 30.65 36.38 C 28.06 37.72 25.26 38.50 22.38 38.92 C 27.04 41.97 34.56 41.92 37.91 36.93 C 40.70 32.96 39.89 27.75 38.23 23.51 C 37.29 25.98 36.58 28.53 35.90 31.08 Z" />
</g>
</svg>
