<?xml version="1.0" encoding="UTF-8" ?>
<!DOCTYPE svg PUBLIC "-//W3C//DTD SVG 1.1//EN" "http://www.w3.org/Graphics/SVG/1.1/DTD/svg11.dtd">
<svg width="120pt" height="120pt" viewBox="0 0 120 120" version="1.1" xmlns="http://www.w3.org/2000/svg">
<g id="#ffffffff">
<path fill="#ffffff" opacity="1.00" d=" M 29.85 29.13 C 39.97 35.22 49.36 42.50 59.68 48.24 C 58.96 41.73 57.77 35.29 57.13 28.78 C 62.25 33.01 66.24 38.44 70.56 43.45 C 72.31 45.22 73.21 48.16 75.74 48.92 C 77.25 43.95 78.07 38.81 79.28 33.77 C 80.24 34.81 81.19 35.90 81.86 37.16 C 86.48 45.55 90.43 54.49 91.87 64.02 C 92.74 69.83 92.09 76.03 89.15 81.19 C 85.57 87.21 79.00 91.24 72.06 91.93 C 63.23 92.91 54.56 89.94 46.62 86.40 C 42.21 84.23 37.65 82.21 33.78 79.11 C 39.20 77.90 44.59 76.59 50.05 75.62 C 42.68 69.48 35.15 63.53 28.03 57.09 C 35.06 57.45 42.02 58.63 49.05 59.03 C 42.96 48.87 35.63 39.47 29.85 29.13 M 83.26 54.88 C 82.79 59.73 82.06 64.61 79.84 69.00 C 74.11 68.46 69.35 65.01 64.13 62.94 C 66.23 68.44 69.87 73.57 69.92 79.65 C 65.40 81.45 60.65 82.43 55.83 82.97 C 63.46 88.83 75.74 88.80 82.34 81.33 C 88.96 74.14 88.34 62.74 83.26 54.88 Z" />
</g>
</svg>
