<?xml version="1.0" encoding="UTF-8" ?>
<!DOCTYPE svg PUBLIC "-//W3C//DTD SVG 1.1//EN" "http://www.w3.org/Graphics/SVG/1.1/DTD/svg11.dtd">
<svg width="50pt" height="50pt" viewBox="0 0 50 50" version="1.1" xmlns="http://www.w3.org/2000/svg">
<g id="#353535ff">
</g>
<g id="#fefefeff">
<path fill="#fefefe" opacity="1.00" d=" M 23.00 10.35 C 25.68 9.32 27.98 7.58 30.46 6.19 C 31.76 8.39 32.21 11.09 34.01 12.98 C 36.39 15.06 39.70 15.31 42.70 15.63 C 41.60 18.39 39.89 21.26 40.57 24.35 C 41.40 27.00 43.33 29.10 44.99 31.26 C 42.56 32.33 39.93 33.14 37.86 34.87 C 35.53 37.02 35.51 40.43 35.35 43.36 C 33.05 42.27 30.65 40.99 28.01 41.29 C 24.73 41.33 22.30 43.87 19.87 45.74 C 18.51 43.03 17.49 39.92 15.00 38.01 C 12.77 36.31 9.85 36.35 7.19 36.14 C 8.07 33.45 9.40 30.82 9.37 27.94 C 9.01 25.30 7.11 23.24 5.51 21.23 C 5.48 20.90 5.41 20.24 5.37 19.91 C 8.07 19.03 11.22 18.42 13.00 15.97 C 14.20 13.52 14.37 10.71 14.63 8.03 C 17.39 8.85 20.06 10.54 23.00 10.35 M 16.65 18.19 C 18.79 22.98 22.38 26.95 25.58 31.06 C 24.93 31.88 24.28 32.71 23.63 33.55 C 25.14 33.39 26.63 33.20 28.13 33.02 C 28.81 34.93 29.48 36.84 30.11 38.76 C 31.45 38.49 32.74 38.03 33.96 37.41 C 32.29 35.57 30.58 33.68 29.88 31.23 C 30.75 30.34 31.59 29.41 32.40 28.45 C 31.25 28.52 30.10 28.59 28.95 28.65 C 27.34 24.49 25.65 20.33 23.48 16.43 C 22.32 14.08 19.62 13.38 17.50 12.21 C 17.15 14.19 16.70 16.17 16.65 18.19 Z" />
</g>
</svg>
