<?xml version="1.0" encoding="UTF-8" ?>
<!DOCTYPE svg PUBLIC "-//W3C//DTD SVG 1.1//EN" "http://www.w3.org/Graphics/SVG/1.1/DTD/svg11.dtd">
<svg width="120pt" height="120pt" viewBox="0 0 120 120" version="1.1" xmlns="http://www.w3.org/2000/svg">
<g id="#ffffffff">
<path fill="#ffffff" opacity="1.00" d=" M 32.93 27.90 C 37.94 25.26 44.06 24.63 49.42 26.57 C 53.43 27.92 56.66 30.76 59.83 33.46 C 65.61 27.82 73.84 23.94 82.01 25.91 C 87.51 26.78 92.12 30.79 94.07 35.95 C 97.65 45.04 96.18 55.79 90.97 63.97 C 83.00 76.30 72.06 86.50 59.86 94.57 C 47.59 85.96 36.11 75.63 28.52 62.54 C 24.53 55.76 22.92 47.46 24.72 39.74 C 25.86 35.00 28.54 30.31 32.93 27.90 M 53.30 37.82 C 53.38 42.58 53.37 47.34 53.29 52.10 C 48.76 52.14 44.23 52.15 39.71 52.13 C 39.61 56.45 39.59 60.78 39.69 65.10 C 44.21 65.14 48.74 65.15 53.27 65.13 C 53.35 69.69 53.40 74.25 53.30 78.82 C 57.64 78.87 61.97 78.87 66.31 78.88 C 66.40 74.31 66.45 69.75 66.34 65.18 C 71.16 65.16 75.98 65.12 80.81 65.07 C 80.80 60.76 80.80 56.45 80.80 52.14 C 75.98 52.19 71.15 52.16 66.34 51.97 C 66.43 47.22 66.41 42.48 66.33 37.74 C 61.99 37.55 57.64 37.69 53.30 37.82 Z" />
</g>
</svg>
