<?xml version="1.0" encoding="UTF-8" ?>
<!DOCTYPE svg PUBLIC "-//W3C//DTD SVG 1.1//EN" "http://www.w3.org/Graphics/SVG/1.1/DTD/svg11.dtd">
<svg width="50pt" height="50pt" viewBox="0 0 50 50" version="1.1" xmlns="http://www.w3.org/2000/svg">
<g id="#353535ff">
</g>
<g id="#fefefeff">
<path fill="#fefefe" opacity="1.00" d=" M 18.81 7.54 C 19.74 11.15 20.91 14.69 21.97 18.25 C 26.47 16.10 29.97 12.44 34.19 9.82 C 32.93 15.44 30.54 20.72 29.22 26.33 C 31.54 26.32 33.87 26.30 36.19 26.29 C 34.85 28.25 33.58 30.25 32.47 32.35 C 36.73 32.33 40.97 31.71 45.24 31.76 C 42.77 34.40 40.14 36.88 37.44 39.28 C 38.02 39.82 39.18 40.90 39.76 41.44 C 35.18 41.47 30.60 41.42 26.02 41.47 C 26.15 40.88 26.42 39.69 26.55 39.10 C 24.51 39.33 22.47 39.62 20.43 39.89 C 20.93 38.57 21.43 37.25 21.91 35.93 C 21.37 35.42 20.83 34.91 20.28 34.40 C 20.75 32.59 21.23 30.79 21.67 28.98 C 19.42 30.91 17.25 32.94 15.09 34.97 C 14.48 33.65 13.85 32.33 13.23 31.02 C 12.66 31.22 11.54 31.62 10.98 31.82 C 8.93 28.55 6.85 25.30 4.56 22.19 C 5.48 22.24 7.32 22.34 8.24 22.39 C 8.42 19.53 8.62 16.68 8.85 13.83 C 11.16 15.11 13.33 16.62 15.47 18.17 C 16.54 14.62 17.58 11.05 18.81 7.54 Z" />
<path fill="#fefefe" opacity="1.00" d=" M 34.99 18.55 C 37.31 18.35 39.63 18.23 41.95 18.10 C 40.55 19.60 39.14 21.09 37.75 22.59 C 36.33 22.61 34.91 22.63 33.48 22.65 C 33.99 21.29 34.50 19.92 34.99 18.55 Z" />
</g>
</svg>
