<?xml version="1.0" encoding="UTF-8" ?>
<!DOCTYPE svg PUBLIC "-//W3C//DTD SVG 1.1//EN" "http://www.w3.org/Graphics/SVG/1.1/DTD/svg11.dtd">
<svg width="120pt" height="120pt" viewBox="0 0 120 120" version="1.1" xmlns="http://www.w3.org/2000/svg">
<g id="#ffffffff">
<path fill="#ffffff" opacity="1.00" d=" M 48.69 30.49 C 51.51 36.70 52.91 43.41 55.13 49.83 C 62.49 44.48 69.53 38.68 77.12 33.63 C 74.25 43.54 70.56 53.20 67.57 63.08 C 71.85 63.06 76.13 62.93 80.41 62.96 C 78.01 66.69 75.40 70.27 72.89 73.93 C 80.70 73.83 88.50 73.44 96.31 73.43 C 91.84 78.17 86.84 82.36 82.08 86.80 C 83.86 88.00 85.64 89.19 87.38 90.44 C 78.54 90.66 69.69 90.48 60.84 90.55 C 61.86 88.72 62.90 86.92 63.94 85.10 C 60.00 86.19 56.06 87.27 52.08 88.19 C 53.02 85.27 54.01 82.36 55.00 79.45 C 54.19 79.36 52.57 79.17 51.76 79.08 C 52.56 75.55 53.42 72.04 54.04 68.48 C 50.09 71.69 46.63 75.45 42.89 78.90 C 41.31 75.87 39.81 72.80 38.19 69.79 C 37.67 71.54 37.17 73.29 36.66 75.04 C 32.27 68.38 27.76 61.79 23.69 54.94 C 25.86 55.50 28.01 56.12 30.16 56.74 C 30.76 51.44 31.21 46.13 31.89 40.84 C 35.86 43.50 39.63 46.43 43.59 49.08 C 45.26 42.87 46.76 36.62 48.69 30.49 Z" />
<path fill="#ffffff" opacity="1.00" d=" M 78.46 49.57 C 82.66 48.96 86.85 48.30 91.07 47.82 C 88.40 50.85 86.07 54.34 82.73 56.69 C 80.20 57.13 77.61 57.05 75.04 57.13 C 76.17 54.61 77.31 52.09 78.46 49.57 Z" />
</g>
</svg>
