<?xml version="1.0" encoding="UTF-8" ?>
<!DOCTYPE svg PUBLIC "-//W3C//DTD SVG 1.1//EN" "http://www.w3.org/Graphics/SVG/1.1/DTD/svg11.dtd">
<svg width="120pt" height="120pt" viewBox="0 0 120 120" version="1.1" xmlns="http://www.w3.org/2000/svg">
<g id="#ffffffff">
<path fill="#ffffff" opacity="1.00" d=" M 56.01 32.33 C 61.57 31.52 65.76 27.46 69.97 24.10 C 71.88 28.65 73.02 33.80 76.58 37.43 C 80.83 41.09 86.79 40.86 92.01 41.81 C 90.00 46.31 87.33 50.91 87.68 56.01 C 88.60 61.53 92.84 65.56 95.95 69.95 C 91.58 71.76 86.75 72.93 83.10 76.10 C 79.15 80.22 78.25 86.31 78.87 91.79 C 74.10 88.48 67.96 86.22 62.20 88.10 C 57.91 89.72 54.54 92.99 50.88 95.66 C 48.69 90.92 47.19 85.44 42.90 82.11 C 38.65 78.85 33.06 79.06 28.03 78.19 C 30.21 73.43 32.99 68.45 32.26 63.03 C 31.17 57.90 27.33 54.05 24.15 50.10 C 29.04 48.34 34.62 47.23 38.29 43.26 C 41.32 38.83 41.11 33.16 41.48 28.02 C 46.26 29.60 50.81 32.61 56.01 32.33 M 46.18 36.19 C 45.89 39.95 45.20 43.72 45.56 47.50 C 49.86 55.55 56.10 62.36 61.22 69.88 C 60.11 70.72 59.00 71.55 57.89 72.39 C 58.98 75.60 61.98 72.49 64.00 71.88 C 67.87 75.06 67.59 80.62 70.88 84.07 C 72.48 82.88 74.99 82.18 75.45 80.02 C 74.60 77.31 71.50 76.28 70.18 73.87 C 69.49 72.40 69.14 70.81 68.72 69.25 C 70.11 68.45 71.50 67.64 72.88 66.83 C 72.55 65.96 72.23 65.10 71.91 64.23 C 70.42 64.73 68.93 65.22 67.44 65.73 C 64.55 57.84 61.25 50.09 57.26 42.70 C 55.18 38.54 50.11 37.76 46.18 36.19 Z" />
</g>
</svg>
