<?xml version="1.0" encoding="UTF-8" ?>
<!DOCTYPE svg PUBLIC "-//W3C//DTD SVG 1.1//EN" "http://www.w3.org/Graphics/SVG/1.1/DTD/svg11.dtd">
<svg width="50pt" height="50pt" viewBox="0 0 50 50" version="1.1" xmlns="http://www.w3.org/2000/svg">
<g id="#353535ff">
</g>
<g id="#fdfdfdff">
<path fill="#fdfdfd" opacity="1.00" d=" M 20.90 13.33 C 21.93 9.84 24.78 7.36 26.56 4.27 C 26.72 6.58 26.82 8.89 26.88 11.21 C 28.31 11.72 29.73 12.23 31.16 12.74 C 29.45 16.47 27.03 19.82 25.51 23.65 C 25.17 20.36 25.48 16.93 24.31 13.77 C 23.46 13.66 21.76 13.44 20.90 13.33 Z" />
<path fill="#fdfdfd" opacity="1.00" d=" M 8.98 13.52 C 10.67 14.51 12.33 15.53 13.99 16.55 C 15.29 15.37 16.74 14.30 18.54 14.08 C 20.20 17.58 22.10 20.96 23.94 24.37 C 21.53 23.02 19.26 21.36 16.68 20.36 C 14.87 19.78 13.88 21.80 12.69 22.72 C 10.93 19.89 9.36 16.88 8.98 13.52 Z" />
<path fill="#fdfdfd" opacity="1.00" d=" M 26.25 24.32 C 28.88 21.25 31.49 18.17 33.99 15.00 C 35.22 16.21 36.46 17.40 37.70 18.59 C 39.36 17.77 41.04 16.97 42.73 16.20 C 42.22 19.62 39.45 22.05 38.00 25.07 C 36.91 23.93 35.87 22.75 34.83 21.56 C 31.91 22.28 29.08 23.30 26.25 24.32 Z" />
<path fill="#fdfdfd" opacity="1.00" d=" M 11.31 25.51 C 15.73 25.42 20.15 25.41 24.57 25.66 C 21.70 26.80 19.06 28.41 16.40 29.95 C 16.62 31.56 16.86 33.18 17.12 34.78 C 13.75 34.40 10.41 33.83 7.05 33.30 C 8.80 32.11 10.64 31.06 12.49 30.04 C 12.10 28.53 11.70 27.02 11.31 25.51 Z" />
<path fill="#fdfdfd" opacity="1.00" d=" M 26.20 26.32 C 30.13 26.42 34.08 26.51 37.91 27.47 C 37.66 29.11 37.40 30.74 37.16 32.38 C 38.83 33.68 40.48 34.99 42.13 36.30 C 38.80 36.36 35.48 36.30 32.15 36.23 C 32.25 34.50 32.41 32.78 32.53 31.06 C 30.48 29.41 28.38 27.81 26.20 26.32 Z" />
<path fill="#fdfdfd" opacity="1.00" d=" M 19.12 37.04 C 20.06 33.02 23.03 29.92 24.49 26.10 C 24.99 29.11 25.28 32.15 25.28 35.20 C 26.77 35.71 28.25 36.23 29.73 36.76 C 27.63 39.47 25.59 42.22 23.51 44.94 C 23.44 42.86 23.42 40.78 23.41 38.70 C 21.99 38.13 20.56 37.57 19.12 37.04 Z" />
</g>
</svg>
