<?xml version="1.0" encoding="UTF-8" ?>
<!DOCTYPE svg PUBLIC "-//W3C//DTD SVG 1.1//EN" "http://www.w3.org/Graphics/SVG/1.1/DTD/svg11.dtd">
<svg width="120pt" height="120pt" viewBox="0 0 120 120" version="1.1" xmlns="http://www.w3.org/2000/svg">
<g id="#ffffffff">
<path fill="#ffffff" opacity="1.00" d=" M 51.78 38.73 C 55.59 33.63 59.48 28.60 63.45 23.63 C 63.58 27.69 63.58 31.76 63.54 35.83 C 66.13 36.80 68.73 37.73 71.34 38.66 C 67.60 45.03 64.06 51.53 60.15 57.79 C 60.00 52.37 60.00 46.94 59.95 41.52 C 57.22 40.59 54.50 39.66 51.78 38.73 Z" />
<path fill="#ffffff" opacity="1.00" d=" M 30.10 39.46 C 33.58 41.31 36.89 43.64 40.69 44.82 C 43.24 43.53 45.39 41.61 47.66 39.91 C 51.10 46.36 54.71 52.71 58.06 59.21 C 53.40 56.58 48.76 53.91 44.18 51.13 C 41.89 52.77 39.79 54.65 37.59 56.42 C 35.08 50.77 32.43 45.18 30.10 39.46 Z" />
<path fill="#ffffff" opacity="1.00" d=" M 62.66 59.18 C 67.05 53.41 71.87 47.98 76.37 42.30 C 78.23 44.44 80.01 46.64 81.91 48.74 C 85.57 47.40 89.24 46.07 92.91 44.78 C 89.72 50.10 86.32 55.31 83.05 60.59 C 81.03 58.42 79.05 56.23 77.04 54.05 C 72.29 55.88 67.50 57.62 62.66 59.18 Z" />
<path fill="#ffffff" opacity="1.00" d=" M 35.91 61.19 C 43.23 61.26 50.55 61.06 57.86 61.35 C 53.55 64.11 49.23 66.87 44.76 69.37 C 45.12 72.17 45.51 74.96 45.88 77.76 C 39.71 76.89 33.51 76.27 27.35 75.33 C 30.67 73.23 34.68 71.91 37.30 68.88 C 37.08 66.28 36.43 63.74 35.91 61.19 Z" />
<path fill="#ffffff" opacity="1.00" d=" M 62.23 62.06 C 69.39 62.67 76.47 63.89 83.60 64.79 C 82.80 67.54 82.02 70.29 81.24 73.04 C 84.30 75.53 87.36 78.02 90.33 80.62 C 84.15 80.55 77.99 80.30 71.82 80.11 C 72.54 77.44 73.48 74.81 73.83 72.05 C 70.34 68.31 65.99 65.52 62.23 62.06 Z" />
<path fill="#ffffff" opacity="1.00" d=" M 48.79 81.24 C 52.51 74.94 56.05 68.54 59.91 62.33 C 60.14 67.51 59.74 72.71 60.15 77.89 C 62.61 79.58 65.56 80.27 68.31 81.33 C 64.56 86.36 60.98 91.50 57.14 96.45 C 57.05 92.60 57.08 88.74 57.08 84.89 C 54.34 83.60 51.54 82.48 48.79 81.24 Z" />
</g>
</svg>
