<?xml version="1.0" encoding="utf-8"?>
<!-- Generator: Adobe Illustrator 25.1.0, SVG Export Plug-In . SVG Version: 6.00 Build 0)  -->
<svg version="1.1" id="Capa_1" xmlns="http://www.w3.org/2000/svg" xmlns:xlink="http://www.w3.org/1999/xlink" x="0px" y="0px"
	 viewBox="0 0 50 50" style="enable-background:new 0 0 50 50;" xml:space="preserve">
<style type="text/css">
	.st0{fill:#FEFEFE;}
</style>
<g id="_x23_353535ff">
</g>
<g id="_x23_fefefeff">
	<path class="st0" d="M28.8,20.1C31.5,15.8,34,12,36.9,8c2.7,3.8,5.4,8.2,8.1,12c-1.5,0-2.3,0.1-3.5,0.1c0.1,4.9,0.1,10.2,0,15.2
		c-3.1,0-6.2,0-9.2,0c0-4.9-0.1-10.1-0.1-15.1C31.5,20.2,29.5,20.2,28.8,20.1z"/>
	<path class="st0" d="M5.5,16.3c1-3.8,4.6-6.5,8.4-6.7c2.5-0.3,4.9,1,7.1,1.9c3-1.4,6.3-2.1,9.6-2c-0.1,0.9-0.1,1.9-0.2,2.9
		c-3.5-0.3-6.7,0.9-9.4,3c-1.9-1.2-3.8-3-6.2-3c-2.9-0.1-5.9,2-6.5,4.9c-0.4,2.5-0.4,5.2,0.8,7.4c2.2,4.3,5.6,7.8,9.4,10.7
		c0.9,0.6,1.9,1.6,3.1,1.3c2.6-1.6,4.7-3.8,7-5.8c0,1.3,0,2.6,0,3.9c-2.1,2.6-5,4.3-7.6,6.2c-6.2-4.4-12.4-9.5-15.4-16.8
		C5,21.7,5.1,19,5.5,16.3z"/>
	<path class="st0" d="M18.6,17.2c1.6,0,3.2-0.1,4.9-0.1c0,1.8,0.2,3.5,0.2,5.2c1.4,0.1,3.8,0.1,5.3,0.1c0,1.7-0.1,3.4-0.1,5.1
		c-1.7,0-3.3,0-5,0c0,1.7,0,3.5,0,5.2c-1.7,0-3.4,0-5.1-0.1c0-1.7,0-3.4,0-5.1c-1.7,0-3.4,0-5.1,0c0-1.7,0-3.4,0-5.1
		c1.7,0,3.4,0,5.2,0C18.6,20.6,18.6,18.9,18.6,17.2z"/>
</g>
</svg>
