<?xml version="1.0" encoding="UTF-8" ?>
<!DOCTYPE svg PUBLIC "-//W3C//DTD SVG 1.1//EN" "http://www.w3.org/Graphics/SVG/1.1/DTD/svg11.dtd">
<svg width="120pt" height="120pt" viewBox="0 0 120 120" version="1.1" xmlns="http://www.w3.org/2000/svg">
<g id="#ffffffff">
<path fill="#ffffff" opacity="1.00" d=" M 39.12 26.88 C 41.67 28.20 44.20 29.56 46.73 30.92 C 48.10 29.53 49.47 28.15 50.84 26.77 C 51.88 28.80 52.93 30.83 54.00 32.85 C 57.74 33.01 61.68 33.02 65.05 34.90 C 70.51 37.88 73.74 43.62 75.74 49.32 C 78.18 56.60 79.14 64.28 79.94 71.89 C 80.77 71.96 82.41 72.10 83.24 72.17 C 83.23 75.42 83.23 78.66 83.21 81.90 C 86.34 81.93 89.47 81.95 92.60 82.03 C 92.57 85.82 92.57 89.61 92.61 93.40 C 71.74 93.54 50.87 93.45 30.00 93.44 C 30.00 89.61 30.00 85.77 30.00 81.94 C 32.94 81.93 35.88 81.93 38.82 81.93 C 38.81 78.66 38.82 75.39 38.84 72.12 C 40.46 72.06 42.09 72.00 43.72 71.93 C 45.77 69.24 48.14 66.82 50.27 64.20 C 53.02 60.77 53.55 56.23 53.59 51.98 C 50.21 54.19 46.50 55.88 43.23 58.25 C 40.22 60.49 39.49 65.02 35.97 66.56 C 32.94 65.37 29.34 64.18 27.75 61.11 C 26.42 56.86 30.11 53.42 32.03 50.03 C 34.24 47.11 34.03 43.32 35.06 39.98 C 36.24 37.82 38.16 36.15 39.25 33.93 C 39.52 31.58 39.20 29.22 39.12 26.88 M 37.43 46.37 C 40.92 44.89 43.91 42.35 45.38 38.78 C 41.01 38.91 39.01 42.93 37.43 46.37 M 29.93 60.71 C 32.58 59.63 34.24 57.43 34.35 54.54 C 31.47 55.41 30.21 57.88 29.93 60.71 Z" />
</g>
</svg>
