<?xml version="1.0" encoding="UTF-8" ?>
<!DOCTYPE svg PUBLIC "-//W3C//DTD SVG 1.1//EN" "http://www.w3.org/Graphics/SVG/1.1/DTD/svg11.dtd">
<svg width="50pt" height="50pt" viewBox="0 0 50 50" version="1.1" xmlns="http://www.w3.org/2000/svg">
<g id="#353535ff">
</g>
<g id="#fefefeff">
<path fill="#fefefe" opacity="1.00" d=" M 13.57 5.15 C 15.57 6.52 18.50 7.80 20.16 5.16 C 20.75 6.25 21.35 7.33 21.95 8.41 C 25.08 8.34 28.40 9.00 30.55 11.47 C 35.06 16.57 35.63 23.73 36.66 30.16 C 37.12 30.32 38.02 30.63 38.47 30.79 C 38.46 32.44 38.43 34.09 38.36 35.74 C 40.07 36.06 41.80 36.31 43.54 36.33 C 43.51 38.38 43.49 40.42 43.48 42.46 C 31.80 42.49 20.12 42.48 8.43 42.48 C 8.44 40.41 8.40 38.34 8.34 36.26 C 10.03 35.95 11.74 35.70 13.46 35.67 C 13.46 33.95 13.44 32.24 13.40 30.53 C 14.04 30.48 15.32 30.39 15.96 30.34 C 18.89 27.28 22.52 23.81 21.54 19.11 C 19.69 20.45 17.62 21.46 15.72 22.72 C 14.34 24.20 13.26 25.91 12.13 27.58 C 10.56 26.78 8.98 25.99 7.40 25.21 C 7.39 23.95 7.18 22.67 7.44 21.43 C 8.71 18.97 10.81 16.88 11.03 13.99 C 11.16 12.16 12.20 10.71 13.50 9.51 C 13.55 8.06 13.57 6.61 13.57 5.15 M 15.77 12.18 C 14.71 12.40 13.01 13.41 13.53 14.69 C 14.79 15.47 17.78 12.70 15.77 12.18 M 8.92 21.46 L 8.56 22.12 C 9.07 24.41 12.53 21.35 9.75 21.14 L 8.92 21.46 Z" />
</g>
</svg>
