<?xml version="1.0" encoding="UTF-8" ?>
<!DOCTYPE svg PUBLIC "-//W3C//DTD SVG 1.1//EN" "http://www.w3.org/Graphics/SVG/1.1/DTD/svg11.dtd">
<svg width="50pt" height="50pt" viewBox="0 0 50 50" version="1.1" xmlns="http://www.w3.org/2000/svg">
<g id="#353535ff">
</g>
<g id="#fefefeff">
<path fill="#fefefe" opacity="1.00" d=" M 22.08 5.15 C 29.35 7.55 33.60 16.04 31.31 23.31 C 29.49 27.45 25.87 30.45 23.94 34.55 C 22.51 32.67 22.32 30.38 21.86 28.17 C 19.54 28.01 19.32 30.79 18.40 32.33 C 16.09 36.70 19.25 41.06 20.97 44.98 C 15.07 43.84 9.88 39.32 8.55 33.38 C 8.25 30.76 8.09 27.91 9.57 25.60 C 11.59 21.63 14.54 17.69 14.40 13.05 C 17.86 13.92 18.73 18.11 19.66 21.06 C 22.80 19.10 24.02 15.49 24.27 11.97 C 23.90 9.60 22.99 7.35 22.08 5.15 Z" />
<path fill="#fefefe" opacity="1.00" d=" M 35.34 18.87 C 38.83 20.94 40.45 25.12 41.16 28.94 C 42.24 37.67 34.22 45.62 25.66 45.53 C 23.64 43.00 24.93 39.61 25.76 36.87 C 28.04 32.26 33.68 30.08 35.12 24.94 C 35.88 23.00 35.39 20.88 35.34 18.87 Z" />
</g>
</svg>
