<?xml version="1.0" encoding="UTF-8" ?>
<!DOCTYPE svg PUBLIC "-//W3C//DTD SVG 1.1//EN" "http://www.w3.org/Graphics/SVG/1.1/DTD/svg11.dtd">
<svg width="120pt" height="120pt" viewBox="0 0 120 120" version="1.1" xmlns="http://www.w3.org/2000/svg">
<g id="#ffffffff">
<path fill="#ffffff" opacity="1.00" d=" M 55.01 24.20 C 67.13 27.49 74.74 41.33 72.41 53.42 C 70.47 62.41 62.10 67.85 58.83 76.23 C 55.64 72.96 55.54 68.07 54.71 63.84 C 49.19 67.28 47.10 74.81 47.70 81.02 C 48.10 86.29 51.33 90.57 53.98 94.92 C 41.47 93.07 30.53 81.93 30.67 68.98 C 30.63 61.11 36.63 55.29 39.24 48.27 C 41.14 44.96 40.96 41.10 41.87 37.52 C 47.23 40.27 49.45 46.18 50.06 51.83 C 56.36 49.57 59.15 42.26 58.78 36.01 C 58.77 31.76 56.84 27.92 55.01 24.20 Z" />
<path fill="#ffffff" opacity="1.00" d=" M 78.26 48.04 C 86.80 53.57 91.01 64.86 88.65 74.69 C 85.80 87.02 73.66 95.81 61.19 95.84 C 58.72 90.38 59.97 83.86 62.78 78.77 C 66.53 72.04 74.23 68.59 77.56 61.55 C 79.71 57.35 79.02 52.51 78.26 48.04 Z" />
</g>
</svg>
