<?xml version="1.0" encoding="UTF-8" ?>
<!DOCTYPE svg PUBLIC "-//W3C//DTD SVG 1.1//EN" "http://www.w3.org/Graphics/SVG/1.1/DTD/svg11.dtd">
<svg width="50pt" height="50pt" viewBox="0 0 50 50" version="1.1" xmlns="http://www.w3.org/2000/svg">
<g id="#353535ff">
</g>
<g id="#fdfdfdff">
<path fill="#fdfdfd" opacity="1.00" d=" M 7.29 10.23 C 13.36 10.60 19.60 9.53 24.85 6.36 C 30.23 9.47 36.50 10.62 42.66 10.27 C 42.69 14.56 43.08 18.91 42.32 23.17 C 40.02 32.55 32.65 39.54 24.98 44.86 C 19.52 41.15 14.22 36.85 10.83 31.08 C 7.14 24.90 5.73 17.28 7.29 10.23 M 21.93 16.08 C 22.84 16.35 23.75 16.62 24.65 16.92 C 24.97 18.80 25.29 20.68 25.59 22.56 C 26.57 20.28 27.70 18.06 28.82 15.85 C 28.23 15.60 27.05 15.12 26.45 14.88 C 26.07 13.40 25.69 11.92 25.32 10.44 C 24.32 12.40 23.01 14.17 21.93 16.08 M 14.12 16.87 C 14.67 18.76 15.45 20.57 15.99 22.46 C 17.21 21.95 18.41 20.85 19.82 21.29 C 21.00 21.78 22.13 22.39 23.26 22.98 C 22.40 20.64 21.30 18.40 20.06 16.25 C 19.24 16.89 18.43 17.54 17.65 18.22 C 16.47 17.77 15.29 17.33 14.12 16.87 M 26.98 23.50 C 28.57 22.75 30.17 22.00 31.76 21.25 C 32.59 22.02 33.39 22.81 34.17 23.62 C 35.46 21.95 36.50 20.10 37.11 18.07 C 36.00 18.49 34.92 18.97 33.86 19.50 C 32.94 18.71 32.02 17.93 31.08 17.17 C 29.71 19.27 28.29 21.35 26.98 23.50 M 16.20 24.20 C 16.18 24.87 16.12 26.21 16.09 26.88 C 15.34 27.95 14.53 28.97 13.69 29.97 C 15.61 30.16 17.53 30.32 19.45 30.47 C 19.40 29.58 19.30 27.79 19.25 26.89 C 20.95 26.17 22.63 25.44 24.34 24.74 C 21.63 24.46 18.92 24.33 16.20 24.20 M 26.16 24.65 C 27.51 25.77 28.88 26.88 30.26 27.97 C 30.27 29.11 30.29 30.25 30.30 31.39 C 32.42 31.37 34.54 31.34 36.67 31.32 C 35.56 30.42 34.46 29.51 33.36 28.60 C 33.50 27.57 33.65 26.54 33.80 25.50 C 31.26 25.18 28.72 24.82 26.16 24.65 M 20.93 32.01 C 21.80 32.43 22.66 32.84 23.52 33.26 C 23.56 34.20 23.62 36.08 23.66 37.02 C 25.07 35.32 26.45 33.60 27.89 31.92 C 27.23 31.64 25.92 31.09 25.26 30.81 C 24.99 28.81 24.74 26.80 24.49 24.80 C 23.29 27.19 22.05 29.58 20.93 32.01 Z" />
</g>
</svg>
