<?xml version="1.0" encoding="UTF-8" ?>
<!DOCTYPE svg PUBLIC "-//W3C//DTD SVG 1.1//EN" "http://www.w3.org/Graphics/SVG/1.1/DTD/svg11.dtd">
<svg width="120pt" height="120pt" viewBox="0 0 120 120" version="1.1" xmlns="http://www.w3.org/2000/svg">
<g id="#ffffffff">
<path fill="#ffffff" opacity="1.00" d=" M 28.79 31.96 C 39.54 33.53 50.73 31.39 60.01 25.71 C 68.05 30.63 77.55 33.18 86.99 32.27 C 88.41 32.45 90.25 31.51 91.41 32.61 C 93.85 45.47 91.71 59.42 84.53 70.48 C 78.39 80.26 69.44 87.88 60.08 94.45 C 49.77 87.50 39.91 79.13 33.88 68.07 C 27.89 57.16 26.24 44.10 28.79 31.96 M 54.55 42.80 C 56.33 43.60 58.12 44.40 59.90 45.20 C 60.01 48.51 60.03 51.83 60.18 55.15 C 62.56 51.00 65.07 46.90 66.95 42.49 C 65.33 41.95 63.71 41.40 62.10 40.84 C 62.02 38.18 61.94 35.52 61.84 32.86 C 59.20 36.01 56.69 39.29 54.55 42.80 M 39.92 43.13 C 41.31 47.02 42.92 50.84 44.77 54.54 C 46.25 53.42 47.72 52.28 49.18 51.14 C 52.13 52.85 55.04 54.62 58.07 56.17 C 56.11 51.79 53.65 47.65 51.08 43.61 C 49.64 44.74 48.23 45.89 46.82 47.05 C 44.49 45.80 42.24 44.41 39.92 43.13 M 63.58 56.06 C 66.45 55.00 69.26 53.78 72.03 52.49 C 73.62 53.83 75.20 55.18 76.82 56.49 C 78.93 53.05 80.97 49.57 82.88 46.02 C 80.34 46.98 77.83 48.02 75.29 48.97 C 74.08 47.60 72.87 46.23 71.67 44.85 C 68.64 48.34 65.91 52.07 63.58 56.06 M 44.18 57.72 C 44.16 59.52 44.91 61.50 44.20 63.21 C 42.27 64.91 40.00 66.17 37.90 67.63 C 41.96 68.06 46.03 68.46 50.10 68.81 C 49.86 66.92 49.58 65.03 49.28 63.14 C 52.28 61.54 55.27 59.92 58.16 58.14 C 53.52 57.68 48.84 57.51 44.18 57.72 M 61.92 58.18 C 64.21 60.29 66.81 62.04 69.06 64.19 C 69.46 66.19 68.84 68.23 68.72 70.23 C 72.61 70.32 76.51 70.34 80.39 70.09 C 78.71 68.28 76.42 66.97 75.15 64.81 C 75.21 63.18 75.53 61.57 75.77 59.96 C 71.17 59.27 66.56 58.60 61.92 58.18 M 52.83 70.99 C 54.03 72.32 55.88 72.77 57.43 73.58 C 57.54 75.81 57.65 78.04 57.83 80.26 C 60.54 77.58 62.88 74.54 64.97 71.35 C 63.34 70.53 61.70 69.70 60.07 68.87 C 60.05 65.49 60.03 62.10 59.86 58.71 C 57.29 62.67 54.82 66.71 52.83 70.99 Z" />
</g>
</svg>
