<?xml version="1.0" encoding="UTF-8" ?>
<!DOCTYPE svg PUBLIC "-//W3C//DTD SVG 1.1//EN" "http://www.w3.org/Graphics/SVG/1.1/DTD/svg11.dtd">
<svg width="120pt" height="120pt" viewBox="0 0 120 120" version="1.1" xmlns="http://www.w3.org/2000/svg">
<g id="#ffffffff">
<path fill="#ffffff" opacity="1.00" d=" M 65.85 51.83 C 70.75 44.74 75.50 37.54 80.77 30.73 C 85.73 37.68 90.74 44.60 95.43 51.73 C 93.39 51.90 91.35 52.04 89.31 52.18 C 89.32 61.15 89.45 70.11 89.27 79.08 C 83.53 79.18 77.79 79.18 72.05 79.08 C 71.90 70.07 72.11 61.06 71.98 52.05 C 69.94 51.98 67.89 51.91 65.85 51.83 Z" />
<path fill="#ffffff" opacity="1.00" d=" M 52.94 37.09 C 58.39 33.81 64.92 32.44 71.13 34.24 C 70.38 35.77 69.57 37.27 68.67 38.72 C 62.87 38.02 57.19 39.93 52.99 43.97 C 49.78 41.44 46.25 38.84 42.01 38.65 C 38.55 38.59 34.68 39.55 32.51 42.46 C 28.88 47.11 28.61 53.77 30.99 59.05 C 35.57 68.98 43.71 76.87 52.98 82.49 C 58.07 79.24 62.46 75.08 66.92 71.05 C 66.87 73.58 66.82 76.11 66.74 78.65 C 62.28 82.38 57.89 86.21 53.02 89.40 C 43.38 83.19 34.33 75.53 28.33 65.64 C 24.67 59.85 23.44 52.63 24.87 45.94 C 26.41 39.81 31.76 34.81 38.06 33.87 C 43.27 32.73 48.34 34.86 52.94 37.09 Z" />
<path fill="#ffffff" opacity="1.00" d=" M 48.34 46.90 C 51.41 46.66 54.50 46.67 57.56 46.95 C 57.56 49.93 57.58 52.91 57.65 55.89 C 60.71 55.92 63.78 55.96 66.85 56.03 C 66.87 59.06 66.87 62.09 66.83 65.12 C 63.79 65.18 60.74 65.21 57.70 65.23 C 57.31 68.21 58.29 71.69 56.89 74.35 C 54.04 74.79 51.17 74.42 48.32 74.21 C 48.33 71.22 48.31 68.23 48.21 65.24 C 45.17 65.21 42.14 65.18 39.11 65.13 C 39.07 62.09 39.06 59.05 39.10 56.01 C 42.15 55.95 45.20 55.92 48.25 55.89 C 48.31 52.89 48.33 49.90 48.34 46.90 Z" />
</g>
</svg>
