<svg xmlns="http://www.w3.org/2000/svg" viewBox="10 10 52 52">
  <path d="M60.31 42.732q-2.039.633-3.867 1.372-.773.316-1.582.685-.808.37-1.547.791-.738.422-1.335.879-.598.457-.985.914-.773 1.16-1.336 2.408-.562 1.248-.844 2.567-.28 1.318-.263 2.654.017 1.336.404 2.707-2.355-1.934-4.992-2.707-2.637-.773-5.379-.387-1.371.211-2.9 1.125-1.53.914-2.866 1.934-1.547 1.195-3.023 2.637-.633-2.04-1.441-3.868-.704-1.582-1.635-3.111-.932-1.53-2.092-2.338-.492-.457-1.195-.826-.703-.37-1.53-.65-.826-.282-1.705-.475-.879-.193-1.722-.299-1.97-.281-4.184-.316 1.02-1.793 1.758-3.551.633-1.512 1.072-3.217.44-1.705.264-3.076 0-.668-.246-1.424-.246-.756-.65-1.547-.405-.79-.915-1.564t-1.037-1.477q-1.266-1.652-2.848-3.304 2.04-.493 3.938-1.16 1.617-.598 3.27-1.46 1.652-.86 2.636-2.021.387-.563.686-1.318.299-.756.51-1.6.21-.844.351-1.723.14-.879.246-1.722.211-1.934.246-4.008 1.934 1.02 3.762 1.758.773.316 1.6.597.826.282 1.634.493.809.21 1.53.298.72.088 1.318-.017.773-.106 1.582-.387t1.617-.703q.809-.422 1.565-.932.756-.51 1.459-1.037 1.582-1.195 3.093-2.637.633 2.04 1.372 3.868.316.773.685 1.582.37.808.773 1.547.405.738.862 1.335.457.598.949.985.563.492 1.318.861.756.37 1.6.633.844.264 1.723.457.879.193 1.722.299 1.934.281 4.008.316-1.02 1.793-1.758 3.551-.316.738-.597 1.564-.282.827-.493 1.653-.21.826-.298 1.617t.017 1.459q.106.703.387 1.459.281.756.703 1.53.422.773.932 1.546.51.774 1.037 1.477 1.195 1.652 2.637 3.304Zm-19.124-2.601q-1.09-2.883-2.32-5.836-.528-1.266-1.16-2.672-.634-1.406-1.32-2.865-.685-1.46-1.44-2.9-.757-1.442-1.53-2.813-.598-.598-1.705-1.125-1.107-.527-2.232-.984-1.301-.493-2.778-.985-.14 1.512-.281 2.918-.106 1.23-.176 2.549-.07 1.318-.07 2.303 1.582 2.531 3.445 5.168 1.863 2.636 3.55 4.851 1.935 2.567 3.868 4.992l-2.601 1.547 1.054 1.547 3.094-2.074 2.602 3.621q.175 1.195.457 2.145.246.808.632 1.582.387.773.985.949.176 0 .685-.246.51-.246 1.037-.598.528-.351.95-.703.422-.352.422-.527.21-.563-.194-1.213-.404-.65-.984-1.178-.58-.527-1.16-.879-.58-.351-.756-.351l-1.547-4.149 3.094-1.547-1.055-2.074-2.566 1.547Z"/>
</svg>
