<svg xmlns="http://www.w3.org/2000/svg" viewBox="10 10 52 52">
  <path d="M34.284 41.203q-2.004-.633-3.445-2.144-1.442-1.512-1.793-3.48h3.058v-3.446h-3.48q.668-2.004 2.162-3.516 1.494-1.512 3.498-2.144v3.445h3.445v-3.445q1.969.632 3.48 2.091 1.512 1.46 2.18 3.077h-3.058v3.937h3.058q-.668 1.969-1.95 3.48-1.284 1.512-3.253 2.145v-3.48h-3.902v3.48Zm1.723-9.562q-.985 0-1.583.597-.597.598-.597 1.582 0 .985.597 1.582.598.598 1.583.598.984 0 1.582-.598.597-.597.597-1.582 0-.984-.597-1.582-.598-.597-1.582-.597Zm-21.27-14.73q4.078.632 7.488.35 3.41-.28 6.1-1.054 2.69-.773 4.623-1.81 1.934-1.038 3.059-1.846 1.125.808 3.128 1.845 2.004 1.038 4.729 1.811 2.725.773 6.1 1.055 3.375.281 7.277-.352.879 5.098.668 9.545-.211 4.447-1.336 8.332-1.125 3.885-3.094 7.295-1.969 3.41-4.623 6.434-2.654 3.023-5.906 5.73-3.252 2.707-6.943 5.203-3.586-2.496-6.803-5.203-3.217-2.707-5.871-5.73-2.655-3.024-4.659-6.434-2.003-3.41-3.164-7.295-1.16-3.885-1.406-8.332-.246-4.447.633-9.545Zm19.547 6.046q-1.793.316-3.322 1.125-1.53.809-2.707 1.986-1.178 1.178-1.987 2.725-.808 1.547-1.125 3.34h-4.359v3.445h4.359q.317 1.793 1.125 3.375.809 1.582 1.987 2.813 1.177 1.23 2.707 2.004 1.529.773 3.322.914v4.043h3.902v-4.043q1.617-.317 3.13-1.108 1.51-.79 2.724-1.969 1.213-1.177 2.074-2.707.861-1.529 1.178-3.322h4.394V31.64H46.87q-.176-1.617-.95-3.11-.773-1.495-2.003-2.673-1.23-1.177-2.813-1.95-1.582-.774-3.375-.95v-4.043h-3.445v4.043Z"/>
</svg>
