<svg xmlns="http://www.w3.org/2000/svg" viewBox="10 10 52 52">
  <path d="M40.638 49.388q-.316-.633-.896-.686-.58-.053-1.178.264l-2.531 1.265q-.14.176-.422.176-.281 0-.545-.07-.263-.07-.474-.211-.211-.14-.211-.317h-.422q0-.632.105-1.195.106-.562.739-.879l1.23-.844q.633-.316.686-.896.052-.58-.264-1.178-1.09-1.265-2.936-3.568-1.845-2.303-4.007-5.203-2.163-2.9-4.395-6.153-2.232-3.252-4.096-6.38-.316-.317-.369-.422-.053-.106-.053-.422-.175-.95-.123-2.215.053-1.266.176-2.584t.246-2.584q.123-1.266.123-2.215.317-.633.88-1.107.562-.475 1.194-.159.95.493 2.145 1.02t2.408 1.072q1.213.545 2.32 1.09 1.108.545 1.917 1.002 0 .316.21.422.211.105.211.422 1.723 3.129 3.393 6.715 1.67 3.586 3.111 6.96 1.442 3.376 2.567 6.17 1.125 2.795 1.758 4.377 0 .317.21.528.211.21.528.334.316.123.685.123.37 0 .686-.176l1.23-.809q.633-.316 1.213-.263.58.053.897.685.316.598.053 1.178-.264.58-.897.897l-2.074 1.265q-.633.281-.738.862-.106.58-.106 1.212l2.074 4.184q0 .316.053.58.053.264.37.264.456.316 1.23.896.773.58 1.494 1.336.72.756 1.16 1.582.44.826.299 1.6-.176.492-.791 1.055-.616.562-1.407 1.037-.79.474-1.582.738-.79.264-1.248.088-.773-.14-1.336-.967-.562-.826-.914-1.846-.351-1.02-.51-1.986-.158-.967-.158-1.459v-.844l-2.918-3.761Z"/>
</svg>
