<svg xmlns="http://www.w3.org/2000/svg" viewBox="10 10 52 52">
  <path d="M19.125 33.504q.422-2.813 1.688-5.291 1.265-2.479 3.199-4.412 1.933-1.934 4.394-3.2 2.461-1.265 5.274-1.687v-5.309h4.64v5.31q2.813.42 5.291 1.687 2.479 1.265 4.412 3.199 1.934 1.933 3.2 4.412 1.265 2.478 1.687 5.29h5.309v4.642H52.91q-.422 2.812-1.687 5.273-1.266 2.46-3.2 4.395-1.933 1.933-4.412 3.199-2.478 1.265-5.29 1.687v5.696H33.68v-5.696q-2.813-.422-5.274-1.687-2.46-1.266-4.394-3.2-1.934-1.933-3.2-4.394-1.265-2.461-1.687-5.273h-5.344v-4.641h5.344Zm14.555-9.95q-2.004.282-3.71 1.16-1.704.88-2.988 2.216-1.283 1.336-2.127 3.023-.843 1.688-1.09 3.55h4.958v4.642h-4.957q.246 2.003 1.125 3.709.879 1.705 2.214 2.988 1.336 1.283 3.024 2.127 1.687.843 3.55 1.09v-4.957h4.641v4.957q2.004-.246 3.71-1.125 1.704-.88 3.04-2.215 1.336-1.336 2.25-3.024.914-1.687 1.301-3.55h-5.344v-4.641h5.344q-.387-2.004-1.353-3.71-.967-1.704-2.338-3.005-1.371-1.3-3.059-2.127-1.687-.826-3.55-1.107v4.992H33.68v-4.992Zm2.144 15.259q-.527 0-.984-.247-.457-.246-.791-.632-.334-.387-.528-.897-.193-.51-.193-1.037 0-1.336.72-2.074.722-.739 1.776-.739 1.336 0 2.074.739.739.738.739 2.074 0 1.055-.739 1.934-.738.879-2.074.879Z"/>
</svg>
