<svg xmlns="http://www.w3.org/2000/svg" viewBox="10 10 52 52">
  <path d="M29.11 55.037q-1.372 1.02-2.708 2.285-.422-1.793-1.02-3.375-.245-.668-.562-1.37-.316-.704-.668-1.337-.351-.633-.773-1.16-.422-.527-.879-.879-.95-.844-2.443-1.3-1.494-.458-2.936-.669-1.687-.246-3.516-.28.88-1.583 1.547-3.2.282-.668.545-1.406.264-.739.457-1.494.194-.756.282-1.46.087-.703.017-1.335-.14-1.125-.932-2.479-.79-1.353-1.705-2.549-1.054-1.406-2.355-2.777 1.723-.563 3.305-1.195 1.336-.563 2.707-1.301 1.37-.738 2.18-1.582.667-.95 1.019-2.514.351-1.564.527-3.076.176-1.758.211-3.656 1.547.949 3.059 1.617 1.3.598 2.777 1.037 1.477.44 2.707.299 1.195-.281 2.514-1.125 1.318-.844 2.443-1.758 1.3-1.055 2.531-2.32.563 1.793 1.196 3.375.281.668.615 1.37.334.704.72 1.354.387.65.81 1.178.421.527.878.879.281.598.791.861.51.264 1.037.264l-7.101 10.406h6.398v20.742q-2.144-1.687-4.289-2.425-2.144-.739-4.254-.176-1.23.14-2.601.896t-2.532 1.635Zm10.406-8.824q-.598-.563-1.371-1.125l-1.442-3.727 2.496-1.476-.668-1.442-2.144 1.442q-.95-2.567-2.004-5.239-.914-2.285-2.074-4.921-1.16-2.637-2.356-5.028-.527-.386-1.494-.896t-1.88-.967q-1.126-.527-2.321-1.055-.211 1.371-.352 2.602-.14 1.09-.246 2.215-.105 1.125-.105 1.828 1.336 2.39 2.935 4.764 1.6 2.373 3.006 4.271 1.652 2.215 3.305 4.289l-2.145 1.477 1.055 1.511 2.531-1.898 2.145 3.375q.035.95.175 1.723.141.668.422 1.248.282.58.809.72.281 0 .756-.175.474-.176.949-.422t.809-.493q.334-.246.334-.386.14-.563-.246-1.143-.387-.58-.88-1.072Zm6.468-14.45h-3.937l9.246-13.71 9.246 13.71h-3.902v17.79H45.984v-17.79Z"/>
</svg>
