<svg xmlns="http://www.w3.org/2000/svg" viewBox="10 10 52 52">
  <path d="M40.201 17.877q.528 0 1.354.316.826.317 1.67.756.843.44 1.546.914.704.475 1.02.791v.88l-2.988 5.976q-.598 1.125-1.16 2.232-.563 1.108-1.038 2.004-.474.897-.808 1.477-.334.58-.44.685-.21.176-.316.246-.105.07-.492.317-.211 0-.95-.352-.738-.351-1.335-.808-.633-.176-1.073-.51-.439-.334-.896-.334.844-.528 1.318-1.283.475-.756.721-1.618.246-.86.334-1.775.088-.914.193-1.758v-.597q.317-.95.739-2.075.421-1.125.826-2.162.404-1.037.668-1.793.263-.756.263-.967.211-.21.317-.386.105-.176.527-.176Zm-9.527 5.625q0-.527.035-1.564.035-1.038.088-2.127.053-1.09.088-1.97.035-.878.035-1.089.105-.316.351-.492.247-.176.545-.246.3-.07.598-.088.299-.018.51-.018h.246q.527 0 1.213.053.685.053 1.336.158.65.106 1.195.264.545.158.791.369.176.316.211.387.035.105.035.175 0 .211-.176.897-.175.685-.44 1.582-.263.896-.562 1.88-.298.985-.51 1.829-.175 0-.949-.14-.773-.141-1.863-.141-.597 0-1.265.035-.668.035-1.512.246Zm-7.735-4.219q-.07-.316-.14-.562.105-.598.914-1.037.808-.44 1.723-.721 1.09-.317 2.425-.492h.282q.597 0 1.002.21.404.212.404.633v6.188q-.844.105-1.705.21-.862.106-1.617.212-.756.105-1.354.21-.598.106-.914.212l-.633.246q0-.809-.123-1.951-.123-1.143-.123-1.987 0-.422-.035-.756t-.106-.615Zm21.2 18.563q-.317 0-.88-.229-.562-.228-1.177-.58-.615-.351-1.143-.756-.527-.404-.738-.756-.176-.386-.193-.615-.018-.228-.018-.44.035-.21.563-1.142.527-.932 1.283-2.232.756-1.301 1.617-2.76.861-1.459 1.617-2.69.756-1.23 1.284-2.056.527-.826.597-.897 0-.246.176-.28.176-.036.422-.036.316-.106.931.21.616.317 1.301.81.686.492 1.301 1.054.615.563.932.985v.597q-.07.14-.37.65-.298.51-.703 1.196l-.86 1.459q-.458.773-.845 1.441-.386.668-.632 1.143-.247.474-.247.545-.421.527-1.054 1.441t-1.248 1.793q-.616.88-1.073 1.512-.457.633-.562.633h-.281Zm5.062 1.687q0 .317-.264.791-.263.475-.667.985-.405.51-.827.931-.422.422-.738.633 0 .211-.193.422-.194.21-.37.422-.21.21-.562.51-.351.298-.72.615l-.721.615q-.352.299-.563.475v8.789q-.949.527-1.775.79-.826.264-1.67.405-.844.14-1.776.158-.931.018-2.091.018-1.899 0-3.639-.264-1.74-.264-3.674-1.107l.317-8.79q-1.934-1.23-3.674-2.6-1.74-1.372-2.795-2.392 0-.246-.14-.316-.071-.035-.141-.035-.07-.035-.282-.633-.21-.598-.492-1.459-.281-.861-.58-1.88-.299-1.02-.562-1.97-.264-.949-.44-1.687-.176-.738-.176-1.02 0-.21.246-.72.247-.51.65-1.143.405-.633.88-1.318.474-.686.949-1.266t.879-.984q.404-.404.615-.475.211-.105 1.072-.351.862-.246 2.022-.475 1.16-.228 2.426-.422 1.265-.193 2.285-.193h1.564q.615 0 .967.035t.475.105q.123.07.123.176.105.211.07 1.02-.035.808-.158 1.758-.123.949-.334 1.775-.211.826-.422 1.072-.106 0-.387.229-.281.228-.896.58-.616.351-1.6.738-.984.387-2.46.703h-.282l.598 1.688h.28q.845-.422 1.548-.492.703-.07 1.547-.07.949 0 1.775.245.826.246 1.617.616.791.369 1.547.808.756.44 1.494.861 0 .176.176.247.176.07.387.316 1.054.738 1.775 1.16.72.422 1.195.668.475.246.756.316t.492.07h.282q.386 0 .826-.21.44-.211.826-.598.211-.21.703-.931.492-.721 1.055-1.582.562-.862 1.09-1.723.527-.861.843-1.389v1.53q0 1.001-.035 2.056-.035 1.055-.088 1.951-.052.897-.158 1.213Z"/>
</svg>
