<svg xmlns="http://www.w3.org/2000/svg" viewBox="10 10 52 52">
  <path d="M39.568 42.17q-.527-.563-1.09-1.055-.562-.492-1.124-.949l.246-.246-.246-.281q.175-.176.615-.545.44-.37.931-.774.493-.404.95-.738.457-.334.738-.44 1.336 1.126 1.933 1.723.598.598.598.774 1.899 1.898 2.742 3.62.844 1.723.844 3.481v.422q0 .95-.088 1.969-.088 1.02-.351 2.127-.264 1.107-.774 2.355t-1.353 2.655q-.352.175-.616.193-.263.018-.615.018-.949 0-1.687-.159-.739-.158-1.09-.545l-.246-.28v-.247q.844-1.23 1.388-2.355.545-1.125.862-2.18H29.76q.351 1.055.896 2.18.545 1.125 1.424 2.355v.246l-.246.281q-.387.387-1.125.545-.738.159-1.652.159-.387 0-.598-.018-.211-.018-.387-.193-.949-1.407-1.511-2.655-.563-1.248-.844-2.355-.281-1.108-.352-2.127-.07-1.02-.07-1.969v-.422q0-1.758.896-3.48.897-1.723 2.655-3.621.14-.176.457-.51.316-.334.773-.756t.985-.896q.527-.475 1.054-.967 1.23-1.125 2.742-2.39 1.793-1.477 3.235-2.813 1.441-1.336 2.496-2.743h-9.246q.703.95 1.53 1.776.825.826 1.74 1.53l-.247.245h.246q-.21.281-.668.72-.457.44-.984.862-.527.422-.984.756-.457.334-.633.44-.95-.774-1.635-1.424-.686-.65-.861-.826-1.758-1.899-2.655-3.727-.896-1.828-.896-3.375v-.703q0-.95.07-1.951.07-1.002.352-2.11.281-1.107.844-2.338.562-1.23 1.511-2.636.176-.211.387-.246.21-.036.598-.036.914 0 1.652.3.738.298 1.125.685.176 0 .21.035.036.035.036.246v.246q-1.195 1.512-1.828 2.988h11.426q-.633-1.44-1.793-2.988v-.246q.176-.422 1.02-.844.843-.422 2.003-.422.352 0 .615.036.264.035.616.246.843 1.406 1.353 2.636.51 1.23.774 2.338.263 1.108.351 2.11.088 1.002.088 1.95v.704q0 1.547-.844 3.375-.843 1.828-2.742 3.727-.457.457-1.459 1.336-1.002.878-2.004 1.775-1.002.896-1.775 1.582-.774.685-.774.791-1.37 1.055-2.548 2.039-1.178.984-2.127 2.004h7.136ZM29.303 23.572q.105.844.316 1.512h12.727q.21-.738.316-1.512-.035-.07-.035-.246h-13.29q-.034.106-.034.246ZM42.52 47.443q-.105-.457-.246-.896-.14-.44-.316-.861H30.041q-.176.421-.316.86-.141.44-.246.897H42.52Z"/>
</svg>
