<svg xmlns="http://www.w3.org/2000/svg" viewBox="10 10 52 52">
  <path d="M30.2 35.771q-1.97 0-3.71.598t-3.164 1.688q-1.424 1.09-2.46 2.601-1.038 1.512-1.6 3.34l-7.77-11.566 4.852 1.511.843-10.547 7.805 5.45 3.727-13.043 4.007 13.5 15.153-11.18-6.961 19.969 9.035-.211-5.238 7.383 15.785-.246-9.914 8.859 4.43 2.32H36.773q2.215-1.617 3.41-4.008 1.196-2.39 1.196-5.273 0-2.285-.897-4.307-.896-2.021-2.425-3.55-1.53-1.53-3.551-2.409-2.022-.879-4.307-.879Zm0 20.426q-1.9 0-3.57-.738t-2.917-2.004q-1.248-1.266-1.986-2.953-.739-1.688-.739-3.586t.739-3.55q.738-1.653 1.986-2.866t2.918-1.916q1.67-.703 3.568-.703 1.899 0 3.551.703 1.652.703 2.883 1.916 1.23 1.213 1.933 2.865.704 1.653.704 3.551 0 1.898-.704 3.586-.703 1.687-1.933 2.953-1.23 1.266-2.883 2.004-1.652.738-3.55.738ZM46.194 34.12l2.075-5.027 8.648-1.301-5.45 6.328h-5.273ZM32.098 53.033v-4.008h4.183v-4.007h-4.183v-4.184h-3.973v4.184h-4.043v4.007h4.043v4.008h3.973Z"/>
</svg>
