<svg xmlns="http://www.w3.org/2000/svg" viewBox="10 10 52 52">
  <path d="M28.313 42.521q.844-1.863 2.127-3.85 1.283-1.985 2.725-4.2 1.441-2.215 2.9-4.711 1.46-2.496 2.655-5.38 1.37 2.884 2.865 5.38 1.494 2.496 2.935 4.71 1.442 2.216 2.743 4.202 1.3 1.986 2.32 3.85 1.37 2.882 1.125 5.87-.246 2.989-1.776 5.415-1.529 2.425-4.166 3.955-2.636 1.529-6.046 1.529-2.18 0-4.043-.703-1.864-.703-3.323-1.934-1.459-1.23-2.46-2.865-1.003-1.635-1.442-3.498-.44-1.863-.246-3.85.193-1.986 1.107-3.92Zm2.672.915q-.703 2.39-.58 4.693.123 2.303 1.494 4.342.492.843 1.055 1.388.562.545 1.037.51.475-.035.791-.773.316-.739.316-2.461-.351-3.059.616-8.139.966-5.08 3.006-12.252-1.372 2.04-2.672 4.149-1.301 2.109-2.373 3.884-1.073 1.776-1.793 3.041-.721 1.266-.897 1.618Zm-17.12-18.07q.632-1.266 1.528-2.637.897-1.372 1.899-2.918 1.002-1.547 1.969-3.288.966-1.74 1.775-3.814.95 2.074 2.004 3.814 1.055 1.74 2.074 3.288 1.02 1.546 1.934 2.918.914 1.37 1.547 2.636.949 2.04.755 4.06-.193 2.022-1.248 3.64-1.054 1.617-2.882 2.619-1.829 1.002-4.184 1.002-2.215 0-3.955-1.002-1.74-1.002-2.777-2.62-1.038-1.617-1.213-3.638-.176-2.022.773-4.06Zm2.108.808q-.632 1.582-.58 3.094.053 1.511.967 2.777.317.633.686 1.055.369.421.703.421.334 0 .545-.527.21-.527.21-1.793 0-2.18.475-5.713t2.057-8.595q-.809 1.582-1.635 3.11-.826 1.53-1.547 2.796l-1.23 2.162q-.51.896-.65 1.213Zm31.079-2.18q.457-1.09 1.142-2.215.686-1.125 1.442-2.338.755-1.212 1.511-2.584.756-1.37 1.389-2.953.773 1.582 1.617 2.953.844 1.372 1.635 2.584.79 1.213 1.476 2.338.686 1.125 1.143 2.215.633 1.582.51 3.164t-.914 2.848q-.791 1.265-2.18 2.056-1.389.792-3.287.792-1.758 0-3.111-.791-1.354-.792-2.145-2.057-.79-1.266-.896-2.848-.106-1.582.668-3.164Zm1.265.422q-.316 1.266-.263 2.531.052 1.266.72 2.496.317.317.615.58.3.264.528.264.228 0 .369-.351.14-.352.14-1.301 0-1.899.422-4.729t1.688-6.662q-.633 1.125-1.3 2.268-.669 1.142-1.266 2.127-.598.984-1.038 1.722-.439.739-.615 1.055Z"/>
</svg>
