<svg xmlns="http://www.w3.org/2000/svg" viewBox="10 10 52 52">
  <path d="M45.229 43.137q-1.758 2.074-4.079 3.181-2.32 1.108-4.957 1.108-2.953 0-5.29-1.108-2.339-1.107-4.132-3.181.282 0 .528-.246.14-.106.246-.246.14 0 .703-.229.563-.228 1.195-.51.739-.351 1.618-.773.21-.563.351-1.055.106-.387.158-.773.053-.387-.123-.528l-.386-.386q-.176-.457-.247-.88-.07-.421-.105-.773-.035-.386-.035-.738l-.387-.387q-.281-1.336-.316-2.039-.035-.703.035-1.054.105-.387.281-.458-.105-1.687.211-2.865.316-1.177.879-1.968.562-.791 1.248-1.249.686-.457 1.318-.685.633-.229 1.143-.281.51-.053.72-.053.282 0 .827.053.545.052 1.195.28.65.23 1.318.686.668.457 1.178 1.249.51.79.809 1.968.299 1.178.193 2.866.317.07.492.457.141.351.159 1.054.017.703-.264 2.04-.281 0-.352.21-.035.106-.035.176-.105.352-.246.738-.105.352-.246.774-.14.422-.281.879l-.352.386q0 .141.106.528.105.386.246.773.14.492.386 1.055l3.13 1.512q.14.14.316.246.351.246.844.246Zm-27.95-9.914q.457-3.094 1.881-5.836 1.424-2.742 3.55-4.887 2.128-2.145 4.87-3.55 2.742-1.407 5.836-1.864V11.18h5.168v5.906q3.094.457 5.836 1.863 2.742 1.406 4.87 3.551 2.126 2.145 3.55 4.887 1.424 2.742 1.88 5.836h5.942v5.168h-5.941q-.457 3.093-1.881 5.836-1.424 2.742-3.55 4.886-2.128 2.145-4.87 3.569-2.742 1.423-5.836 1.88v6.258h-5.168v-6.258q-3.094-.457-5.836-1.828-2.742-1.37-4.87-3.48-2.126-2.11-3.55-4.87-1.424-2.759-1.88-5.993h-5.942v-5.168h5.941Zm18.914-11.391q-2.953 0-5.537 1.107-2.584 1.108-4.5 3.024t-3.023 4.5Q22.025 33.047 22.025 36q0 2.813 1.108 5.326 1.107 2.514 3.023 4.395 1.916 1.88 4.5 2.988 2.584 1.107 5.537 1.107 2.813 0 5.327-1.107 2.513-1.107 4.394-2.988 1.88-1.881 2.97-4.395 1.09-2.514 1.09-5.326 0-2.953-1.09-5.537t-2.97-4.5q-1.88-1.916-4.394-3.024-2.514-1.107-5.327-1.107Z"/>
</svg>
