<svg xmlns="http://www.w3.org/2000/svg" viewBox="10 10 52 52">
  <path d="M27.28 52.98q-1.124 1.442-2.741 1.706-1.618.263-3.305-.58-.703-.422-1.143-1.09-.44-.668-.58-1.442-.14-.773.018-1.6.158-.826.58-1.529l8.648-13.992h10.196L27.28 52.98Zm4.536 2.637q-1.441 2.285-3.604 3.41-2.162 1.125-4.728 1.125-1.125 0-2.443-.334-1.319-.334-2.444-1.177-1.722-1.125-2.812-2.584-1.09-1.46-1.371-3.463-.563-2.004-.264-3.727.299-1.722 1.424-3.445l14.73-23.414-.386-2.25 4.113-6.82q.316-.282.65-.686.334-.404.897-.404.28 0 .597.228.317.229.914.51l15.47 9.809q.562.28.86.615.3.334.3.896 0 .282-.053.598t-.37.914l-4.113 6.398-2.637.809-14.73 22.992ZM18.597 47.32q-.703 1.125-.931 2.356-.229 1.23.017 2.408t.95 2.197q.703 1.02 1.828 1.723.984.562 2.144.72 1.16.159 2.303-.087 1.142-.246 2.144-.88 1.002-.632 1.705-1.652L44.261 29.18l2.637-.352 2.637-4.183-13.219-8.297-2.637 3.761.352 2.672-15.434 24.54Zm38.883-9.07q.563 1.125.457 2.338-.105 1.213-.703 2.215-.598 1.002-1.635 1.635-1.037.632-2.303.632-1.406 0-2.496-.633-1.09-.632-1.722-1.634-.633-1.002-.739-2.215-.105-1.213.457-2.338.07-.14.3-.527.228-.387.562-.914.334-.528.72-1.16.387-.633.81-1.266.948-1.477 2.108-3.305 1.16 1.828 2.075 3.305l.773 1.265q.387.633.686 1.16.298.528.474.915.176.386.176.527Z"/>
</svg>
