<svg xmlns="http://www.w3.org/2000/svg" viewBox="10 10 52 52">
  <path d="M22.012 36.791q1.196-2.566 2.883-5.256 1.688-2.69 3.586-5.625t3.902-6.152q2.004-3.217 3.832-6.873 1.653 3.656 3.621 6.873 1.97 3.217 3.868 6.152 1.898 2.936 3.55 5.625 1.653 2.69 2.707 5.256 1.23 2.637 1.477 5.309.246 2.671-.334 5.168-.58 2.496-1.916 4.64-1.336 2.145-3.27 3.762-1.933 1.617-4.394 2.531-2.461.914-5.309.914-2.953 0-5.484-.914t-4.518-2.531q-1.986-1.617-3.357-3.762-1.371-2.144-1.951-4.64-.58-2.497-.352-5.168.229-2.672 1.46-5.309Zm3.621 1.652q-.597 1.371-.826 2.848-.228 1.477-.123 3.006.106 1.53.563 3.04.457 1.513 1.195 2.884.773 1.054 1.564 1.775.791.72 1.39.72.597 0 .913-.93.317-.932.176-3.218 0-4.289 1.266-11.197 1.265-6.908 4.007-16.4-1.652 2.742-3.34 5.59-1.687 2.847-3.093 5.273-1.407 2.426-2.39 4.201-.985 1.776-1.302 2.408Z"/>
</svg>
