<svg xmlns="http://www.w3.org/2000/svg" viewBox="10 10 52 52">
  <path d="M36.229 59.8q-4.782 0-9.036-1.775t-7.523-4.851q-3.27-3.076-5.344-7.19-2.074-4.113-2.496-8.754 1.652-.808 3.234-.878 1.582-.07 2.954.21 1.37-.843 2.76-1.423 1.388-.58 3.04-1.143.282-.281.563-.334.281-.053.562-.053.141.563.457 1.389.317.826.721 1.688.404.86.861 1.6.457.737.844 1.16-.281-.669-.527-1.97-.246-1.3-.457-2.583-.211-1.284-.334-2.303-.123-1.02-.123-1.16-.246 0-.422-.035-.457-.07-.668-.282 0-.14-.053-.58l-.123-1.02q-.07-.58-.123-1.23-.053-.65-.053-1.178 0-.843.141-1.564.14-.72.95-1.002-.282-2.18-.054-3.867.229-1.688.81-2.97.58-1.284 1.388-2.198.808-.914 1.687-1.512 2.074-1.406 4.922-1.793h2.109q2.848.387 4.922 1.793.88.598 1.688 1.512.808.914 1.371 2.197.562 1.283.791 2.97.228 1.688-.018 3.868.809.281.95 1.002.14.72.14 1.564 0 .528-.105 1.178-.106.65-.246 1.23-.141.58-.246 1.02-.106.44-.106.58-.246.211-.527.282-.14.035-.211.035-.211 1.652-.457 3.164-.211 1.3-.457 2.672-.246 1.37-.528 2.18.247-.423.633-1.16.387-.74.809-1.6.422-.862.79-1.688.37-.826.651-1.389.281 0 .51.053.229.053.229.334 1.933.563 3.322 1.143 1.388.58 2.478 1.423 1.688-.28 3.463-.017 1.776.264 3.428 1.072-.176 3.094-1.143 5.942-.966 2.847-2.566 5.308-1.6 2.461-3.762 4.483-2.162 2.021-4.763 3.445-2.602 1.424-5.573 2.215-2.97.79-6.134.79Zm-8.403-31.253q.035.457.176.879.14.387.422.826.281.44.844.861.14.106.738.229.598.123 1.283.193.686.07 1.283.053.598-.018.703-.158.422-.282.65-.58.23-.3.335-.58.14-.317.14-.668l-6.574-1.055Zm9.07 1.055q.106.351.317.668.176.28.474.58.3.298.721.58.106.14.703.158.598.017 1.284-.053.685-.07 1.283-.193.597-.123.738-.229.527-.422.826-.861.299-.44.44-.826.14-.422.175-.88l-6.96 1.056Z"/>
</svg>
