<svg xmlns="http://www.w3.org/2000/svg" viewBox="10 10 52 52">
  <path d="M35.982 59.34q-6.96-4.676-12.287-10.02-5.326-5.343-8.982-11.742-1.336-2.215-2.074-4.623-.739-2.408-.932-4.816-.193-2.408.14-4.676.335-2.268 1.178-4.184.844-1.916 2.162-3.392 1.319-1.477 3.112-2.25 2.32-.809 4.693-.95 2.373-.14 4.658.44 2.286.58 4.412 1.934 2.127 1.353 3.92 3.533 1.829-2.18 3.955-3.533 2.127-1.354 4.413-1.934 2.285-.58 4.675-.44 2.391.141 4.711.95 1.758.773 3.094 2.25 1.336 1.476 2.162 3.392.826 1.916 1.16 4.184.334 2.268.141 4.676-.193 2.408-.932 4.816-.738 2.408-2.074 4.623-3.656 6.399-8.982 11.742-5.327 5.344-12.323 10.02Z"/>
</svg>
