<svg xmlns="http://www.w3.org/2000/svg" viewBox="10 10 52 52">
  <path d="M35.846 59.311q-6.574-4.64-11.988-9.966-5.414-5.327-9.106-11.69-1.3-2.18-2.039-4.588-.738-2.408-.931-4.799-.194-2.39.175-4.64.37-2.25 1.249-4.149.878-1.898 2.267-3.357 1.389-1.459 3.287-2.232 2.32-.985 4.606-1.16 2.285-.176 4.482.404 2.197.58 4.219 1.898 2.021 1.319 3.78 3.287 1.827-1.968 3.954-3.287 2.127-1.318 4.43-1.898 2.303-.58 4.676-.405 2.373.176 4.693 1.16 1.758.774 3.076 2.233 1.319 1.459 2.162 3.357.844 1.899 1.196 4.149.351 2.25.21 4.64-.14 2.391-.826 4.8-.685 2.408-1.88 4.587-3.973 6.328-9.334 11.69-5.362 5.361-12.358 9.966Zm4.465-10.582v-9.28h9.703v-8.755h-9.703v-9.738h-8.79v9.738h-9.245v8.754h9.246v9.281h8.789Z"/>
</svg>
