<svg xmlns="http://www.w3.org/2000/svg" viewBox="10 10 52 52">
  <path d="M16.077 26.648q.598-1.476 1.477-2.566.878-1.09 2.039-1.687 1.16-.317 2.074-.563.914-.246 1.793-.246 1.793 0 3.902.932 2.11.931 3.902 2.97 1.793-2.039 3.903-2.97 2.11-.932 3.867-.932.598 0 1.178.193.58.194 1.177.194l2.356-3.094q-3.234-1.16-6.54-.633-3.304.527-5.94 2.567-1.477-1.02-3.06-1.653-1.581-.633-3.234-.861-1.652-.229-3.304 0-1.653.228-3.27.967-2.039.879-3.48 2.53-1.442 1.653-2.356 3.692-.422 1.617-.562 3.41-.14 1.793.07 3.604.211 1.81.809 3.603.597 1.793 1.617 3.41 2.355 4.114 6.469 8.174 4.113 4.061 10.3 8.174 2.637-1.793 4.957-3.709 2.32-1.916 4.395-3.674v-5.097q-2.074 2.074-4.395 4.06-2.32 1.987-4.957 3.745-4.71-2.954-8.156-6.381-3.445-3.428-5.484-7.26-1.758-2.637-2.11-5.45-.351-2.812.563-5.449Zm28.02 22.22V30.55h-4.254l10.09-14.414L60.056 30.55h-4.289v18.316H44.096ZM28.135 27.07v6.188h-6.223v6.258h6.223v6.222h6.222v-6.222h6.258v-6.258h-6.258V27.07h-6.222Z"/>
</svg>
