<svg xmlns="http://www.w3.org/2000/svg" viewBox="10 10 52 52">
  <path d="M14.8 16.963q4.044.633 7.454.351 3.41-.28 6.082-1.054 2.672-.774 4.605-1.793 1.934-1.02 3.059-1.828 1.125.808 3.129 1.828t4.71 1.793q2.708.773 6.083 1.054 3.375.282 7.277-.351.88 5.062.633 9.492-.246 4.43-1.424 8.315-1.178 3.884-3.164 7.294-1.986 3.41-4.64 6.416-2.655 3.006-5.854 5.713-3.2 2.707-6.75 5.168-3.55-2.46-6.75-5.168-3.2-2.707-5.854-5.713-2.654-3.005-4.64-6.416-1.986-3.41-3.164-7.294-1.178-3.885-1.424-8.297-.246-4.412.633-9.51Zm23.766 11.285-1.687-7.383-3.059 5.203-5.59-5.203 3.024 8.227-5.625-.422 4.746 3.445-7.348 3.48 7.348 1.266-3.867 9.07 8.613-6.468.879 4.289 1.3-4.29 9.985 6.47-4.36-9.07h4.782l-4.36-3.024 5.626-4.324-6.926.422 2.566-5.625-6.047 3.937Z"/>
</svg>
