<svg xmlns="http://www.w3.org/2000/svg" viewBox="10 10 52 52">
  <path d="M13.723 16.049q4.219.703 7.77.387 3.55-.317 6.363-1.125 2.813-.809 4.834-1.881 2.022-1.073 3.217-1.916 1.195.843 3.287 1.916 2.092 1.072 4.94 1.88 2.847.81 6.38 1.126 3.533.316 7.612-.387 1.02 5.344.843 9.967-.175 4.623-1.37 8.7-1.196 4.079-3.288 7.63-2.092 3.55-4.904 6.715-2.813 3.164-6.24 5.994-3.428 2.83-7.26 5.431-3.727-2.601-7.084-5.431-3.358-2.83-6.117-5.994-2.76-3.165-4.852-6.715-2.092-3.551-3.322-7.63-1.23-4.077-1.477-8.7-.246-4.623.668-9.967ZM45.891 30.11q-.844 0-1.635.07-.79.071-1.617.141-.826.07-1.687.14-.862.071-1.881.071.703-1.336 1.635-2.918.931-1.582 1.775-2.953.984-1.582 2.04-3.164-2.321.14-4.466.387-1.828.21-3.744.562-1.916.352-3.111.844-.422.598-.88 1.477-.456.878-.93 1.88-.475 1.002-.915 2.075-.44 1.072-.861 2.127-.95 2.46-1.899 5.168 1.02-.247 2.04-.457.843-.176 1.792-.334.95-.159 1.653-.159-.528 2.918-.598 5.819-.07 2.9.07 5.256.141 2.742.528 5.273 1.863-3.55 3.972-7.242.88-1.582 1.917-3.322t2.144-3.569q1.107-1.828 2.285-3.656 1.178-1.828 2.373-3.516Z"/>
</svg>
