<svg xmlns="http://www.w3.org/2000/svg" viewBox="10 10 52 52">
  <path d="M14.867 17.28q4.008.491 7.383.122t6.03-1.142q2.654-.774 4.57-1.705 1.916-.932 3.04-1.6 1.126.668 3.112 1.6 1.986.931 4.693 1.705 2.707.773 6.065 1.142 3.357.37 7.224-.123.985 5.063.809 9.475-.176 4.412-1.283 8.262-1.108 3.85-3.112 7.19-2.004 3.339-4.658 6.292-2.654 2.953-5.924 5.572-3.27 2.62-6.925 4.975-3.551-2.39-6.715-4.992-3.164-2.602-5.801-5.555t-4.623-6.293q-1.986-3.34-3.129-7.207t-1.389-8.262q-.246-4.394.633-9.457Zm35.227 12.093h-.844q-.527 0-1.072.035t-1.073.123q-.527.088-.843.229-.176.176-.457.51-.282.334-.563.72-.351.422-.703.914v2.602q0 .316-.527.422-.528.105-1.23.422v-1.723q.35-.633.597-1.477.246-.843.404-1.634.158-.791.246-1.477.088-.685.088-1.002-.176-.14-.896-.51-.721-.369-1.653-.773-.931-.404-1.898-.756-.967-.352-1.6-.527-.176.316-.457.703-.281.387-.597.79-.317.405-.633.792-.317.387-.492.703 0 .352.07.861.07.51.176 1.002.105.598.246 1.196.351.28.738.492.316.21.686.404.369.193.72.37-.176.632-.404 1.405-.229.774-.475 1.512-.246.738-.474 1.336-.229.598-.37.914h-.421q-.176-.633-.475-1.476-.299-.844-.58-1.6-.281-.756-.492-1.336-.211-.58-.211-.756-.316 0-.914-.263-.598-.264-1.23-.616.984-1.265 1.828-2.724.843-1.46 1.16-2.444 0-.632-.018-1.213-.017-.58-.14-1.142-.124-.563-.387-1.143-.264-.58-.72-1.213-.317-.492-.88-.879-.562-.386-1.248-.632-.685-.246-1.459-.317-.773-.07-1.582.106-.633.316-1.547.931-.914.616-1.564 1.705-.65 1.09-.756 2.743-.106 1.652.844 4.078-1.618.984-3.164 1.95-1.547.968-2.883 1.917 1.793 2.918 3.691 5.133 1.899 2.215 3.674 3.814 1.775 1.6 3.322 2.69 1.547 1.09 2.672 1.722.668-.316 1.46-.58.79-.263 1.107-.263 1.02.632 2.232 1.16 1.213.527 2.549.527.633-.95 1.002-2.443.369-1.494.685-3.147 1.336-.984 2.55-2.092 1.212-1.107 2.196-1.74.809-.316 1.6-.703.791-.387 1.477-.756.685-.369 1.23-.685.545-.317.861-.493 0-.316-.21-1.125-.212-.808-.545-1.757-.334-.95-.721-1.916-.387-.967-.703-1.6Z"/>
</svg>
