<svg xmlns="http://www.w3.org/2000/svg" viewBox="10 10 52 52">
  <path d="M14.661 17.086q4.114.492 7.524.105 3.41-.386 6.1-1.16 2.689-.773 4.622-1.722 1.934-.95 3.06-1.582 1.16.632 3.18 1.582 2.022.949 4.764 1.722 2.743.774 6.118 1.16 3.375.387 7.277-.105.879 5.133.668 9.58-.211 4.447-1.336 8.332-1.125 3.885-3.094 7.26-1.969 3.375-4.64 6.363-2.672 2.988-5.942 5.625t-6.996 5.027q-3.55-2.39-6.768-5.027-3.216-2.637-5.87-5.625-2.655-2.988-4.659-6.363-2.004-3.375-3.181-7.26-1.178-3.885-1.442-8.332-.264-4.447.615-9.58Z"/>
</svg>
