<svg xmlns="http://www.w3.org/2000/svg" viewBox="10 10 52 52">
  <path d="M36 56.707q-4.113 0-7.453-.51t-5.713-1.37q-2.373-.862-3.656-2.005-1.283-1.142-1.283-2.408 0-.809.808-2.373.809-1.564 2.057-3.463 1.248-1.898 2.742-3.955 1.494-2.057 2.848-3.832 1.353-1.775 2.355-3.076 1.002-1.3 1.318-1.723.493-.738.774-1.195.281-.457.404-.756t.14-.51q.018-.21.018-.457v-8.297q0-.422-.474-.668-.475-.246-.862-.527-.246-.105-.369-.51-.123-.404-.123-.896t.123-.914q.123-.422.37-.528 1.019-.843 2.425-1.142 1.406-.299 3.551-.299 2.145 0 3.691.299 1.547.299 2.602 1.142.246.106.352.528.105.422.087.914-.017.492-.21.896-.194.405-.545.51-.07.14-.264.264-.193.123-.37.263-.175.141-.316.3-.14.157-.14.368v8.297q0 .246.017.457.018.211.123.51.106.299.317.756.21.457.633 1.195.28.422 1.3 1.723 1.02 1.3 2.373 3.076 1.354 1.775 2.848 3.832 1.494 2.057 2.742 3.955 1.248 1.899 2.057 3.463.808 1.564.808 2.373 0 1.266-1.265 2.408-1.266 1.143-3.604 2.004t-5.695 1.371q-3.357.51-7.541.51ZM22.219 49.5q0 .21.527.65.527.44 1.6.932 1.072.492 2.69.932 1.616.44 3.76.65-.737-.527-1.265-1.3-.527-.774-.756-1.653-.228-.879-.175-1.758.052-.879.474-1.617.281-.422 1.143-1.055.861-.633 1.898-1.529 1.037-.897 2.022-2.092.984-1.195 1.529-2.742.545-1.547.44-3.48-.106-1.934-1.266-4.325-1.371 1.793-2.83 3.815-1.46 2.021-2.865 4.025-1.407 2.004-2.655 3.832-1.248 1.828-2.197 3.27-.95 1.441-1.512 2.373-.562.931-.562 1.072Z"/>
</svg>
