<svg xmlns="http://www.w3.org/2000/svg" viewBox="10 10 52 52">
  <path d="M18.264 37.846q-1.371-1.371-2.655-2.953-1.283-1.582-2.162-3.375-.492-.704-.896-1.372-.405-.667-.615-1.37.21.703.615 1.37.404.668.896 1.372.88 1.793 2.162 3.375 1.284 1.582 2.655 2.953ZM60.1 28.88q-.036.14-.036.21-.175.458-.246.757-.07.298-.351.756 0 .175-.14.386-.071.106-.106.176-.246.457-.492.72-.247.264-.422.475-.493.703-.932 1.336-.44.633-.896 1.055-.247.492-.458.738-.21.246-.457.528-.878.703-1.634 1.37-.756.669-1.67 1.301.246-1.335.053-2.689-.194-1.354-.65-2.725-.458-1.828-1.688-3.27-1.23-1.44-2.813-2.144-1.125-.457-2.127-.527-1.002-.07-2.127-.07h-.914q.281-1.371.246-2.707-.035-1.336-.492-2.707.176-.246.457-.317.281-.07.703-.281.07 0 .176-.035.176-.07.176-.281h.914q.07 0 .176-.036.14-.035.386-.28h1.196q0 .21.14.28.07.036.176.036h.914q0 .246.106.28.07.036.14.036h.352l.316.281q.176 0 .387.035.21.036.21.282h.317q0 .07.035.14.07.14.211.14l.317.317q.07.07.281.317h.633q.21-.246.281-.317l.316-.316q.211 0 .282-.14.07-.141.316-.141.246-.246.317-.282.07-.035.28-.035.247-.21.317-.246.07-.035.317-.035l.246-.316h.351q.176 0 .246-.159.07-.158.317-.158h2.426l.316.317h.281q.07.105.176.175.21.141.387.141.492.387.914.879.281.246.633.65.351.405.632.897 0 .457.123.685.123.229.123.475.247.703.282 1.178.035.474.035.931v1.477q-.211.21-.281.457ZM27.264 18.86q-.246.176-.457.37-.211.193-.457.193v.351-.351q.246 0 .457-.194.21-.193.457-.369Zm9.07 36.703q-3.902-2.53-6.82-5.484-2.918-2.953-4.922-6.574-1.16-1.793-1.565-3.832-.404-2.04-.123-3.903.282-1.863 1.23-3.34.95-1.476 2.532-2.179 2.531-1.125 5.063-.475 2.53.65 4.605 2.9 2.004-2.25 4.605-2.9 2.602-.65 5.309.475 1.477.703 2.408 2.18.932 1.476 1.23 3.34.3 1.863-.07 3.902-.369 2.039-1.494 3.832-2.004 3.621-5.08 6.574t-6.908 5.484ZM20.021 39.92q-.421-.457-.86-.95-.44-.491-.897-1.124-1.371-1.371-2.655-2.953-1.283-1.582-2.162-3.375-.492-.704-.896-1.372-.405-.667-.615-1.37V27.58q-.247-.246-.282-.615-.035-.37-.035-.615v-2.075q0-.457.035-.966.035-.51.282-1.178.457-1.582 1.335-2.83.88-1.248 2.25-1.67.282-.211.475-.246t.44-.035q0-.07.035-.141.07-.176.246-.176h.633q.21 0 .44-.158.228-.158.474-.158h1.756q0 .246.211.281.211.035.457.035h.844v.317h.633l.281.28q.106 0 .229.054.123.052.193.123.106.07.176.14.246 0 .475.123.228.123.439.123v.317q.105 0 .229.052.123.053.193.124.105.105.21.175.071 0 .141.035.141.07.141.211.07.106.176.176.21.14.387.14 0 .282.193.317.193.035.475.035h.246v-.351q.246 0 .457-.194.21-.193.457-.369.246 0 .422-.175.105-.07.175-.176l.317-.317q.246 0 .316-.123t.281-.123q.246-.246.44-.316.193-.07.474-.281.176 0 .387-.141.106-.07.176-.176h.352q.246 0 .439-.158t.475-.158h.562q.281 0 .316-.035.036-.036.036-.246h.844q.246 0 .317.035.07.035.316.246h.914q.07 0 .14.035.142.07.142.281h.562v.317q.281 0 .475.035.193.035.193.246.176.246.545.44.369.193.615.439l.914.914q.281.457.633 1.055.352.597.563 1.054v.317q.246.21.316.597t.316.563v1.265q.422 1.407 0 3.305-2.215.422-3.902 1.758-1.371-1.125-3.111-1.6-1.74-.474-3.534-.474-.914 0-2.021.07-1.107.07-2.232.527-1.582.703-2.69 2.145-1.107 1.441-1.81 3.27-.704 1.617-.721 3.392-.018 1.775.474 3.568-.246 0-.316-.158t-.352-.158Zm8.473-.316h5.414v-5.415h4.852v5.415h5.414v4.816H38.76v5.414h-4.852V44.42h-5.414v-4.816Z"/>
</svg>
