<svg xmlns="http://www.w3.org/2000/svg" viewBox="10 10 52 52">
  <path d="M35.925 24.89q-.95 2.883-1.547 5.38-.597 2.496-.914 4.57-.316 2.074-.422 3.762-.105 1.687-.105 2.953 0 1.441-.281 1.986-.282.545-.686.51-.404-.035-.844-.528-.44-.492-.756-1.125-.949-1.617-1.16-3.462-.21-1.846.739-3.78.14-.316.685-1.37.545-1.056 1.336-2.497.791-1.441 1.81-3.111 1.02-1.67 2.145-3.287Zm-20.918-7.663q4.008.632 7.365.351 3.358-.281 5.995-1.037 2.636-.756 4.535-1.758 1.898-1.002 3.023-1.81 1.125.808 3.094 1.81 1.969 1.002 4.64 1.758 2.672.756 5.995 1.037 3.322.281 7.19-.351.948 4.992.79 9.369-.158 4.377-1.283 8.191-1.125 3.815-3.094 7.172-1.969 3.357-4.605 6.328-2.637 2.97-5.871 5.625-3.235 2.654-6.856 5.115-3.515-2.46-6.68-5.115-3.164-2.654-5.765-5.625-2.602-2.97-4.57-6.328-1.97-3.357-3.13-7.172-1.16-3.814-1.388-8.174-.229-4.36.615-9.386Zm20.918 2.566q-.95 2.25-2.11 4.254-1.16 2.004-2.32 3.797-1.16 1.793-2.232 3.392-1.072 1.6-1.88 3.041-.95 2.426-.704 4.852t1.459 4.394q1.213 1.97 3.217 3.2 2.004 1.23 4.57 1.23 2.707 0 4.799-1.23 2.092-1.23 3.305-3.2 1.213-1.968 1.388-4.394.176-2.426-.949-4.852-.633-1.441-1.635-3.04-1.002-1.6-2.162-3.393-1.16-1.793-2.39-3.797-1.23-2.004-2.356-4.254Z"/>
</svg>
