<svg xmlns="http://www.w3.org/2000/svg" viewBox="10 10 52 52">
  <path d="M14.83 16.963q3.902.668 7.26.387 3.357-.282 6.082-1.055 2.724-.774 4.71-1.793 1.987-1.02 3.112-1.828 1.16.808 3.094 1.828 1.933 1.02 4.605 1.793 2.672.773 6.064 1.055 3.393.28 7.436-.387.844 5.062.615 9.492-.228 4.43-1.406 8.297-1.178 3.867-3.164 7.26-1.986 3.392-4.64 6.416-2.655 3.023-5.854 5.713-3.2 2.69-6.75 5.185-3.551-2.496-6.75-5.185-3.2-2.69-5.836-5.713-2.637-3.024-4.64-6.416-2.005-3.393-3.165-7.26-1.16-3.867-1.406-8.28-.246-4.411.633-9.51Zm14.695 6.047-3.445 6.504 3.023 4.289-3.023 4.746 3.445 6.082 3.902-2.18-2.18-3.902 3.024-4.746-3.023-4.29 2.18-4.324-3.903-2.18Zm10.793 0-3.902 6.504 3.058 4.289-2.566 4.746 3.41 6.082 3.902-2.18-2.18-3.902 2.637-4.746-2.636-4.29 2.18-4.324-3.903-2.18Z"/>
</svg>
