<svg xmlns="http://www.w3.org/2000/svg" viewBox="10 10 52 52">
  <path d="M59.924 27.29q0 2.496-.985 4.746-.984 2.25-2.671 4.026-1.688 1.775-3.92 2.97-2.233 1.196-4.729 1.547h-.95v9.457l-9 1.442V18.782l9.95-1.441q2.496-.352 4.729.299 2.232.65 3.92 2.021 1.687 1.371 2.671 3.34.985 1.969.985 4.29Zm-12.305 5.238q1.793-.386 2.795-1.37 1.002-.985 1.002-2.426 0-1.442-1.002-2.373-1.002-.932-2.795-.932h-.95v7.101h.95Zm-35.543-10.44 9.95-.95 2.847 6.152 2.848-7.101 9.457-1.407-7.559 17.508 7.559 15.188-9.457 1.406-2.848-6.152-2.848 7.101-9.949.95 8.051-17.051-8.05-15.645Z"/>
</svg>
