<svg xmlns="http://www.w3.org/2000/svg" viewBox="10 10 52 52">
  <path d="M14.678 16.893q4.078.632 7.506.351 3.427-.281 6.117-1.055 2.69-.773 4.623-1.81 1.933-1.037 3.094-1.846 1.125.809 3.128 1.846 2.004 1.037 4.729 1.81 2.725.774 6.117 1.055 3.393.281 7.33-.351.88 5.097.615 9.544-.263 4.448-1.423 8.35-1.16 3.902-3.164 7.313-2.004 3.41-4.659 6.433-2.654 3.024-5.87 5.73-3.217 2.708-6.803 5.204-3.586-2.496-6.803-5.203-3.217-2.707-5.889-5.73-2.672-3.024-4.676-6.434t-3.164-7.313q-1.16-3.902-1.423-8.35-.264-4.447.615-9.544Zm27.808 14.343q0 1.301-.457 2.303t-1.177 1.67q-.721.668-1.618 1.002-.896.334-1.757.281-.862-.053-1.618-.492-.755-.44-1.177-1.318-.317 1.687.28 2.918.599 1.23 1.934 1.863.81.316 1.881.316 1.073 0 2.18-.369 1.107-.369 2.11-1.107 1.001-.739 1.634-1.864 1.301-2.003 1.301-5.203 0-2.109-.844-3.937-.844-1.828-2.32-3.182-1.477-1.353-3.463-2.11-1.986-.755-4.271-.755-1.442 0-2.866.387-1.424.386-2.69 1.072-1.265.685-2.302 1.635-1.037.949-1.67 2.074 2.602-1.723 4.904-2.408 2.303-.686 4.22-.58 1.915.105 3.427.843 1.512.739 2.514 1.846 1.002 1.108 1.476 2.461.475 1.354.37 2.654Zm-12.129-2.18q1.196-.667 2.356-.738 1.16-.07 2.144.246.985.317 1.74.967.757.65 1.126 1.442.369.79.298 1.67-.07.878-.703 1.617 1.618-.352 2.479-1.53.861-1.177.545-2.794 0-.844-.475-1.688-.474-.844-1.318-1.547-.844-.703-2.057-1.142-1.213-.44-2.69-.44-1.3-.316-2.53-.053-1.231.264-2.215.932-1.97 1.16-3.182 2.883-1.213 1.723-1.652 3.709-.44 1.986-.106 4.113.334 2.127 1.46 4.06.632 1.337 1.652 2.391 1.019 1.055 2.25 1.81 1.23.757 2.566 1.249 1.336.492 2.637.633-2.813-1.512-4.57-3.252-1.758-1.74-2.637-3.498-.88-1.758-.985-3.463-.105-1.705.352-3.164.457-1.46 1.388-2.602.932-1.142 2.127-1.81Zm4.325 11.708q-1.09-.633-1.688-1.565-.598-.931-.79-1.916-.194-.984-.018-1.933.175-.95.632-1.653.457-.703 1.143-1.037.685-.334 1.564-.123-.949-1.336-2.232-1.441-1.283-.106-2.936.562-.668.492-1.125 1.424-.457.932-.615 2.074-.158 1.143.035 2.39.194 1.249.862 2.374.316 1.3 1.23 2.285.914.984 2.215 1.617 1.793.985 3.832 1.16 2.04.176 3.99-.404 1.951-.58 3.674-1.863 1.723-1.283 2.848-3.252.808-1.3 1.213-2.725.404-1.424.44-2.847.034-1.424-.282-2.778-.317-1.353-.95-2.478.106 3.129-.492 5.467-.597 2.337-1.652 3.937-1.055 1.6-2.426 2.514-1.37.914-2.865 1.213-1.494.298-2.953.035-1.459-.264-2.654-1.037Z"/>
</svg>
