<svg xmlns="http://www.w3.org/2000/svg" viewBox="10 10 52 52">
  <path d="M51.064 40.605q-1.336 1.97-3.199 3.288-1.863 1.318-3.832 1.986-1.969.668-3.85.668-1.88 0-3.181-.668-2.637-1.336-3.639-3.568-1.002-2.233-.299-5.256.633 1.652 1.97 2.513 1.335.862 2.935 1.002t3.304-.457q1.705-.597 3.094-1.828 1.389-1.23 2.285-3.076.897-1.846.897-4.272 0-2.425-.967-4.869-.967-2.443-2.848-4.447-1.88-2.004-4.605-3.322-2.725-1.319-6.24-1.494-3.516-.176-7.788 1.054-4.271 1.23-9.193 4.29 1.477-2.145 3.428-3.868 1.951-1.722 4.236-2.9 2.285-1.178 4.887-1.81 2.601-.633 5.414-.633 4.148 0 7.752 1.458 3.603 1.46 6.293 3.973 2.69 2.514 4.236 5.854 1.547 3.34 1.547 7.101 0 2.39-.668 4.834-.668 2.444-1.969 4.447Zm-19.37-21.093q2.495.14 4.605 1.054 2.11.914 3.62 2.233 1.513 1.318 2.356 2.9.844 1.582.844 3.059.352 2.953-1.143 4.922-1.494 1.968-4.095 2.953 1.09-1.442 1.16-3.006.07-1.565-.65-2.988-.721-1.424-2.11-2.567-1.389-1.142-3.164-1.687-1.775-.545-3.85-.37-2.074.176-4.148 1.372-2.074 1.23-3.709 3.287-1.635 2.056-2.443 4.658-.809 2.602-.598 5.607.211 3.006 1.775 6.118 1.565 3.111 4.711 6.187 3.147 3.076 8.21 5.819-2.497-.141-4.923-.95-2.425-.808-4.605-2.162-2.18-1.353-4.025-3.252-1.846-1.898-3.147-4.219-2.144-3.62-2.76-7.523-.615-3.902.159-7.523.773-3.621 2.882-6.698 2.11-3.076 5.414-5.08 2.32-1.336 4.834-1.74 2.514-.404 4.8-.404ZM23.36 46.793q-1.16-2.145-1.441-4.377-.281-2.232.088-4.201.369-1.969 1.3-3.533.932-1.565 2.268-2.409 1.16-.984 2.373-1.37 1.213-.387 2.39-.264 1.178.123 2.303.668t2.145 1.388q-1.652-.105-3.006.686-1.353.79-2.25 2.144-.896 1.354-1.248 3.112-.351 1.758.018 3.533t1.511 3.445q1.143 1.67 3.252 2.865 2.18 1.23 4.852 1.583 2.672.351 5.379-.282 2.707-.633 5.238-2.338 2.531-1.705 4.43-4.658 1.898-2.953 2.97-7.19 1.073-4.236.862-9.966.984 2.32 1.459 4.851.474 2.532.404 5.133-.07 2.602-.756 5.203-.685 2.602-1.986 5.063-2.145 3.48-5.238 5.889-3.094 2.408-6.592 3.515-3.498 1.108-7.172.791-3.674-.316-6.979-2.285-2.25-1.336-3.92-3.006-1.67-1.67-2.654-3.99Z"/>
</svg>
