<svg xmlns="http://www.w3.org/2000/svg" viewBox="10 10 52 52">
  <path d="M48.516 19.477q0-.88.316-1.618.316-.738.879-1.3.562-.563 1.318-.88.756-.316 1.635-.316.95 0 1.758.317.808.316 1.389.879.58.562.896 1.3.316.739.316 1.618 0 1.933-1.212 3.164-1.213 1.23-3.147 1.23-.879 0-1.635-.334t-1.318-.914q-.563-.58-.879-1.389-.316-.808-.316-1.757ZM30.973 23.59H18.07v-3.586h12.903v3.586Zm20.882 2.355-4.886-3.34H35.895L30.48 30.34l2.567 2.285 4.394-5.906h6.188l-6.996 10.3-.246 9.81H25.805v3.62h14.449v-7.734l7.734 4.113v9.809h4.114v-12.41l-7.454-5.133 3.34-4.887v2.813h12.657v-3.868h-8.79v-7.207ZM27.88 29.812H14.94v-3.62h12.94v3.62Zm-16.524 5.696v-3.621h12.903v3.62H11.355Z"/>
</svg>
