<svg xmlns="http://www.w3.org/2000/svg" viewBox="10 10 52 52">
  <path d="M48.107 39.275q.14 3.234-1.037 5.133-1.178 1.898-2.97 2.46-1.794.563-3.868-.21-2.074-.774-3.762-2.883-1.265.844-2.11.685-.843-.158-1.265-1.142-.422-.985-.422-2.69t.422-3.955q.668 2.145 2.022 3.358 1.353 1.213 2.935 1.529 1.582.316 3.164-.211t2.69-1.828q1.107-1.3 1.512-3.358.404-2.056-.334-4.763.632-1.969.527-3.955-.106-1.987-.861-3.762-.756-1.775-2.11-3.217-1.353-1.441-3.181-2.355-1.829-.914-4.079-1.178-2.25-.264-4.834.352-2.583.615-5.431 2.214-2.848 1.6-5.871 4.413-.281-2.954.808-5.133 1.09-2.18 3.13-3.305 2.038-1.125 4.816-1.055 2.777.07 5.87 1.618 2.919-1.02 5.608-1.02 2.69 0 4.922.826 2.232.826 3.902 2.39 1.67 1.565 2.532 3.604.861 2.04.808 4.483-.052 2.443-1.283 5.08 1.828 1.547 2.549 2.918.72 1.37.404 2.426-.316 1.054-1.635 1.722-1.318.668-3.568.809ZM31.232 23.138q1.969-1.195 3.691-1.582 1.723-.387 3.094-.123 1.371.264 2.32 1.107.95.844 1.372 2.092.421 1.248.263 2.795-.158 1.547-1.002 3.235 1.547.703 1.934 1.529t-.246 1.67q-.633.843-2.215 1.652-1.582.809-3.973 1.512 1.688-1.582 2.145-3.34.457-1.758-.018-3.27-.474-1.511-1.74-2.601t-2.988-1.406q-1.723-.317-3.78.386-2.056.703-4.095 2.743-2.531.562-4.483 2.25-1.95 1.687-2.953 4.042-1.002 2.356-.896 5.133.105 2.778 1.652 5.502 1.547 2.725 4.711 5.168 3.164 2.444 8.332 4.131-2.25 1.688-4.588 1.81-2.338.124-4.306-1.107-1.97-1.23-3.34-3.709-1.371-2.478-1.653-5.994-2.25-1.969-3.515-4.271-1.266-2.303-1.617-4.623-.352-2.32.14-4.5t1.793-3.938q1.3-1.758 3.34-2.936 2.039-1.177 4.746-1.458.703-2.391 1.652-3.727.95-1.336 2.004-1.582 1.055-.246 2.145.598 1.09.843 2.074 2.812Zm-5.625 22.887q-1.863-1.23-2.953-2.602-1.09-1.37-1.477-2.707-.386-1.336-.105-2.584t1.107-2.215q.826-.966 2.18-1.564 1.354-.598 3.146-.703 0-1.828.598-2.62.598-.79 1.652-.65 1.055.14 2.479 1.178 1.424 1.037 3.111 2.865-2.144-.773-3.832-.351-1.687.422-2.724 1.564-1.037 1.143-1.354 2.76-.316 1.617.229 3.287t2.056 3.146q1.512 1.477 4.149 2.32 1.863 1.9 4.412 2.69 2.549.791 5.15.457 2.602-.334 5.01-1.828t3.99-4.201q1.582-2.707 2.057-6.662.475-3.955-.756-9.193 2.672.984 3.938 2.9 1.265 1.916 1.125 4.236-.141 2.32-1.688 4.781t-4.5 4.57q-.457 2.884-1.758 5.116-1.3 2.232-3.111 3.709-1.81 1.477-3.99 2.145-2.18.668-4.395.439-2.215-.229-4.324-1.371-2.11-1.143-3.797-3.287-2.11.562-3.621.387-1.512-.176-2.285-.95-.774-.773-.738-2.074.035-1.3 1.019-2.988Z"/>
</svg>
