<svg xmlns="http://www.w3.org/2000/svg" viewBox="10 10 52 52">
  <path d="M23.08007813 45.52734375q-.17578126-.3515625-.65039063-1.14257813-.47460938-.79101562-1.10742188-1.81054687t-1.37109374-2.14453125q-.73828126-1.125-1.40625-2.14453125.45703124-1.01953125 1.17773437-2.42578125t1.59960938-2.97070313q.87890624-1.56445312 1.86328124-3.19921875.984375-1.63476562 1.93359376-3.1640625.94921874-1.52929687 1.828125-2.83007812.87890624-1.30078125 1.546875-2.21484375 1.1953125-.52734375 2.6015625-1.10742188l2.8125-1.16015624q1.40625-.58007813 2.70703125-1.16015626 1.30078125-.58007812 2.3203125-1.10742187.84375.52734375 1.88085937 1.30078125 1.03710938.7734375 1.98632813 1.58203125T44.4375 21.33984375q.68554688.703125.86132813 1.0546875.3515625.703125.40429687 1.58203125.05273438.87890625.05273438 1.58203125 1.01953125.52734375 2.44335937 1.24804688 1.42382813.72070312 2.83007813 1.52929687t2.56640625 1.63476563q1.16015625.82617187 1.6875 1.49414062.10546875.24609375.36914062 1.0546875.26367188.80859375.6328125 2.00390625.36914063 1.1953125.80859375 2.671875.43945313 1.4765625.96679688 3.00585938.52734375 1.52929687 1.08984375 3.04101562t1.125 2.7421875q-3.76171875 4.11328125-8.56054688 7.54101563Q46.91601562 56.953125 40.76367187 60.046875q-2.56640625-.52734375-5.29101562-1.10742188-2.72460938-.58007812-5.32617188-1.265625-2.6015625-.68554687-4.90429687-1.45898437-2.30273438-.7734375-3.99023438-1.6171875.3515625-1.37109375.66796876-2.83007813.31640624-1.45898437.58007812-2.72460937t.421875-2.21484375q.15820313-.94921875.15820313-1.30078125Zm7.2421875-3.1640625q-1.37109376 1.01953125-2.44335938 1.6875-1.07226563.66796875-2.09179688 1.01953125v.45703125q-.28125 1.3359375-.52734374 2.671875-.2109375 1.16015625-.43945313 2.49609375-.22851563 1.3359375-.40429688 2.53125.66796876 0 1.56445313-.19335938.89648438-.19335937 1.84570313-.65039062.94921874-.45703125 1.828125-1.24804688.87890624-.79101562 1.58203124-1.98632812 2.390625-1.01953125 4.02539063-1.96875 1.63476563-.94921875 2.33789063-1.65234375-.17578125-.703125-.2109375-1.4765625t.03515625-1.4765625q.0703125-.80859375.17578125-1.58203125.6328125-.66796875 1.3359375-1.37109375.59765625-.59765625 1.31835937-1.30078125.72070313-.703125 1.42382813-1.40625-.17578125-.66796875-.33398438-1.40625-.15820313-.73828125-.29882813-1.42382813-.140625-.68554687-.2109375-1.24804687t-.0703125-.9140625q-.84375.84375-2.14453125 2.12695313-1.30078125 1.28320312-2.68945312 2.68945312-1.38867188 1.40625-2.75976563 2.77734375l-2.390625 2.390625-.45703124.45703125Zm-4.078125-7.27734375q2.56640624-.52734375 4.20117187-.89648438 1.63476563-.36914062 2.83007813-.79101562 1.1953125-.421875 2.16210937-.984375.96679688-.5625 2.16210938-1.40625.31640625-.4921875.3515625-1.40625t-.03515625-1.828125q-.10546875-1.0546875-.31640625-2.21484375.52734375-.140625.94921875-.38671875.38671875-.2109375.75585937-.5625.36914063-.3515625.54492188-.84375 0-.17578125-.0703125-.65039063-.0703125-.47460937-.2109375-1.07226562T39.26953125 20.8125q-.15820313-.6328125-.33398438-1.16015625-.84375.3515625-2.109375.89648438-1.265625.54492187-2.53125 1.10742187t-2.35546875 1.01953125q-1.08984374.45703125-1.6171875.6328125-1.546875 2.21484375-3.0234375 4.5t-2.70703124 4.2890625q-1.23046876 2.00390625-2.109375 3.53320313-.87890626 1.52929687-1.23046876 2.19726562.84375 0 1.52929688-.22851563.68554688-.22851562 1.1953125-.5625.50976563-.33398437.84375-.73828125.33398438-.40429687.50976563-.75585937.3515625 0 .40429687-.05273438.05273438-.05273437.05273438-.40429687h.45703124Zm-4.078125-19.51171875 1.37109374-3.62109375 1.3359375 3.62109375 3.62109376 1.37109375-3.62109376 1.37109375L23.53710938 21.9375l-1.37109374-3.62109375-3.62109376-1.37109375 3.62109376-1.37109375Zm27.2109375.9140625 1.828125-3.62109375 1.37109375 3.62109375 3.1640625 1.37109375-3.1640625 1.3359375-1.37109375 3.65625-1.828125-3.65625-3.1640625-1.3359375 3.1640625-1.37109375Zm-33.57421875 9.0703125 1.37109374-4.078125 1.79296876 4.078125 4.11328124 1.37109375-4.11328124 1.37109375-1.79296876 4.53515625-1.37109374-4.53515625-4.078125-1.37109375 4.078125-1.37109375Z" fill="rgba(160, 160, 160, 0.8)"/>
</svg>
