<svg xmlns="http://www.w3.org/2000/svg" viewBox="10 10 52 52">
  <path d="M12.176 49.342q-.738-1.266-.667-2.9.07-1.635.843-3.481.774-1.846 2.215-3.867 1.442-2.022 3.48-4.06.176-3.727 1.723-6.927 1.547-3.199 4.043-5.554 2.496-2.356 5.783-3.71 3.288-1.353 6.944-1.353 2.32 0 4.447.545 2.127.545 4.025 1.53 2.637-.669 4.993-.88 2.355-.21 4.271.07 1.916.282 3.358 1.038 1.44.756 2.25 1.951.738 1.371.58 3.147-.159 1.775-1.108 3.797-.95 2.021-2.601 4.183-1.653 2.162-3.92 4.324-2.268 2.162-5.098 4.254-2.83 2.092-6.064 3.955-3.305 1.969-6.575 3.393-3.27 1.424-6.31 2.32-3.041.897-5.748 1.248-2.707.352-4.887.14-2.18-.21-3.727-1.001-1.546-.791-2.25-2.162Zm6.223-9.633q-1.723 3.059-.703 4.746.738 1.336 2.742 1.67 2.004.334 4.87-.21 2.865-.546 6.345-1.917 3.48-1.371 7.137-3.445 3.656-2.215 6.556-4.57 2.9-2.356 4.8-4.57 1.898-2.216 2.618-4.15.721-1.933-.017-3.269-.457-.703-1.354-1.09-.896-.386-2.232-.492.422.387.826.791l.791.791q0 .106.158.492.158.387.158 1.055 0 .668-.316 1.652-.316.985-1.3 2.32-.844-1.827-2.163-3.322-1.318-1.494-2.988-2.548-1.67-1.055-3.639-1.635-1.969-.58-4.148-.58-2.215 0-4.166.633-1.951.632-3.674 1.617 2.426.105 4.816.984 2.39.879 4.518 2.303 2.127 1.424 3.902 3.34 1.776 1.916 3.006 4.095-2.531 1.864-5.238 3.393-2.707 1.53-5.362 2.69-2.654 1.16-5.097 1.95-2.444.792-4.412 1.196-1.969.404-3.34.369-1.371-.035-1.863-.527-.809-1.864-1.23-3.762Zm18.14 14.8q-2.003 0-3.884-.439-1.88-.44-3.604-1.177 6.856-1.97 13.606-5.836 3.691-1.97 6.803-4.465 3.111-2.496 5.572-4.957-.387 3.55-1.951 6.627-1.565 3.076-4.026 5.343-2.46 2.268-5.677 3.586-3.217 1.319-6.838 1.319Z"/>
</svg>
