<svg xmlns="http://www.w3.org/2000/svg" viewBox="10 10 52 52">
  <path d="M41.572 26.156q3.059.633 5.819 1.881t5.15 3.024q2.39 1.775 4.36 4.043 1.968 2.267 3.48 4.904-1.406 2.496-3.235 4.605-1.828 2.11-4.042 3.867l4.218 8.086H14.678l4.254-8.015q-2.215-1.758-4.06-3.885-1.847-2.127-3.253-4.658 1.512-2.637 3.498-4.904 1.987-2.268 4.36-4.061 2.373-1.793 5.115-3.041t5.765-1.846l5.485-10.722 5.73 10.722Zm-5.73 3.41q-2.988 0-5.836.721-2.848.72-5.379 2.074-2.531 1.354-4.676 3.287-2.144 1.934-3.762 4.36 1.618 2.426 3.762 4.394 2.145 1.97 4.676 3.375 2.531 1.407 5.379 2.18 2.848.773 5.836.773 3.094 0 5.994-.773t5.467-2.18q2.566-1.406 4.71-3.375 2.145-1.968 3.762-4.394-1.617-2.426-3.761-4.36-2.145-1.933-4.711-3.287-2.567-1.353-5.467-2.074-2.9-.72-5.994-.72Zm0 19.618q-1.863 0-3.533-.704-1.67-.703-2.936-1.933t-2.004-2.9q-.738-1.67-.738-3.64 0-1.827.738-3.497t2.004-2.936q1.266-1.265 2.936-2.021t3.533-.756q3.164 0 5.414 1.758-.246-.176-.58-.194-.334-.017-.545-.017-1.16 0-2.162.44-1.002.439-1.74 1.177-.739.738-1.16 1.74-.423 1.002-.423 2.127 0 1.16.422 2.18.422 1.02 1.16 1.758.739.738 1.74 1.177 1.003.44 2.163.44.808 0 1.582-.281.773-.282 1.441-.774.668-.492 1.16-1.178.493-.685.739-1.494v.352q0 1.969-.703 3.638-.704 1.67-1.952 2.9-1.248 1.231-2.935 1.934-1.688.704-3.621.704Zm5.52-16.559q-.036 0-.106-.07.07.07.105.07Z"/>
</svg>
