<svg xmlns="http://www.w3.org/2000/svg" viewBox="10 10 52 52">
  <path d="M12.65 42.223q-.984-1.793.159-4.254 1.142-2.461 3.885-5.203.175-2.426 1.177-4.553t2.637-3.71q1.635-1.581 3.814-2.478 2.18-.896 4.676-.896 1.477 0 2.883.316 1.406.317 2.707.985 3.586-.809 6.188-.475 2.601.334 3.726 1.951.738 1.371.14 3.305-.597 1.934-2.232 4.078-1.634 2.145-4.183 4.324-2.55 2.18-5.783 4.043-3.34 1.934-6.54 3.094-3.199 1.16-5.87 1.494-2.673.334-4.624-.158-1.95-.492-2.76-1.863Zm24.54-17.86q.316.176.632.457.317.282.633.633 0 .07.106.317.105.246.105.685 0 .44-.21 1.108-.212.667-.845 1.546-.632-1.195-1.546-2.197t-2.022-1.723q-1.107-.72-2.39-1.107-1.284-.387-2.655-.387-1.476 0-2.777.352-1.3.351-2.637 1.16 1.688.105 3.322.686 1.635.58 3.059 1.529 1.424.95 2.549 2.197 1.125 1.248 1.863 2.725-2.496 1.863-5.22 3.199-2.725 1.336-5.116 2.127-2.39.79-4.148.984-1.758.194-2.32-.299-.176-.667-.317-1.3-.14-.633-.316-1.266-1.266 1.898-.633 3.2.457.808 1.828 1.019 1.371.21 3.322-.123 1.951-.334 4.29-1.213 2.337-.879 4.763-2.25 2.426-1.442 4.36-3.006 1.933-1.564 3.18-3.041 1.249-1.477 1.724-2.76.474-1.283-.018-2.162-.316-.492-.967-.79-.65-.3-1.6-.3Zm-2.391 19.793q-1.266.668-2.795 1.09-1.53.422-3.006.422-1.3 0-2.566-.299-1.266-.299-2.39-.79 2.109-.634 4.411-1.6 2.303-.967 4.412-2.268 2.426-1.3 4.377-2.848 1.952-1.547 3.604-3.164-.633.985-1.266 2.04-.633 1.054-1.125 2.038-1.125 1.618-2.056 2.936-.932 1.318-1.6 2.443Zm.879 6.715q-.352 0-.457-.035-.106-.035-.422-.211-.457-.316-.598-.791-.14-.475.176-1.143.07-.035.598-.79.527-.756 1.336-1.987.808-1.23 1.81-2.795l2.04-3.181 2.038-3.182q1.002-1.565 1.776-2.813.773-1.248 1.283-2.056.51-.809.545-.88.633-.632 1.3-.632.704 0 1.09.633.036.07.545.879.51.808 1.301 2.074.791 1.266 1.793 2.848 1.002 1.582 2.04 3.216 1.036 1.635 2.056 3.2l1.81 2.777q.791 1.213 1.301 1.951.51.738.545.738.598 1.266-.422 1.934-.176.176-.351.21-.176.036-.528.036H35.678Zm11.426-4.992q-.668 0-1.213.334t-.545.967q0 .808.545 1.16.545.351 1.213.351.632 0 1.054-.351.422-.352.422-1.16 0-.633-.422-.967-.422-.334-1.054-.334Zm0-10.969q-.809 0-1.284.352-.474.351-.474 1.16 0 .316.14 1.353.141 1.038.317 2.514.07.563.158 1.178t.14 1.142l.089.897q.035.369.035.474 0 .282.193.44.193.158.686.158.632 0 .632-.598.07-.105.159-.474.088-.37.158-.897t.105-1.142q.036-.615.036-1.178.175-1.477.28-2.514.106-1.037.106-1.353 0-.809-.422-1.16-.422-.352-1.054-.352Z"/>
</svg>
