<svg xmlns="http://www.w3.org/2000/svg" viewBox="10 10 52 52">
  <path d="M32.148 51.861q-.809.316-1.635.58-.826.264-1.775.264-1.196-.07-2.198-.563-1.001-.492-1.722-1.283-.72-.79-1.09-1.846-.37-1.054-.299-2.25 0-.316.106-.65.105-.334.105-.615l-10.828-7.91 6.152-9.985L30.25 35.69h7.454v-3.832H34.08l-3.41-2.566q-1.687 1.336-3.62 1.09-1.196-.07-2.216-.563-1.02-.492-1.74-1.3-.72-.81-1.09-1.846-.369-1.037-.299-2.233.106-1.125.633-2.11.528-.984 1.336-1.67.809-.685 1.846-1.054t2.162-.299q1.125 0 2.127.493 1.002.492 1.705 1.3.703.809 1.055 1.899.351 1.09.21 2.285v.809l2.778 1.968h5.941v5.52q-.808 1.265-1.722 2.707-.914 1.441-1.899 3.023 0 .176-.105.246-.106.07-.281.387h-7.91l-9.563-6.61-2.145 3.2 8.122 5.941q.808-.597 1.705-.826.896-.228 1.705-.228 1.582.175 2.9 1.16 1.318.984 1.951 2.25-.914 1.476-1.424 2.338-.51.861-.685.861-.317.633-.457 1.3-.14.669.035 1.477.176.176.21.457.036.282.212.598Zm-4.676-28.934q-.808 0-1.353.545-.545.545-.545 1.354-.176.668.334 1.213t1.318.72q.844 0 1.406-.562.563-.562.563-1.371 0-.809-.457-1.354t-1.266-.545Zm1.723 22.36q-.809-.176-1.389.334t-.58 1.318q-.14.809.387 1.406.527.598 1.336.774.808 0 1.388-.563.58-.562.756-1.37 0-.81-.545-1.354-.545-.545-1.353-.545Zm5.273 5.73q-.281-.175-.44-.474-.157-.3-.157-.58v-.457q.175-.176.193-.211.017-.035.017-.176h.176q0-.035.035-.14.036-.071.07-.159.036-.088.106-.158.492-.809 1.494-2.373 1.002-1.565 2.127-3.358.492-.949 1.178-1.88.686-.932 1.178-1.74.316-.493.545-.932.228-.44.51-.791 1.3-1.899 2.32-3.393 1.02-1.494 1.3-2.127.07-.07.106-.14l.07-.141q.035-.07.035-.14.668-.634 1.301-.634.317 0 .598.159.281.158.457.474.035.07.527.862.492.79 1.283 2.039.792 1.248 1.793 2.812 1.002 1.565 2.04 3.182 1.037 1.617 2.021 3.164.984 1.547 1.775 2.742.791 1.195 1.284 1.934.492.738.527.738.352.633.21 1.09-.14.457-.597.808l-.21.211H34.713l-.246-.21ZM44.91 36.955q0 .351.123 1.318.123.967.298 2.092v.457q.106.527.176 1.125.07.598.14 1.125.071.527.106.897.036.369.036.474 0 .281.175.44.176.158.668.158.598 0 .598-.598.105-.105.158-.474.053-.37.088-.897.035-.527.088-1.125.053-.598.123-1.125v-.457q.176-1.125.281-2.092.106-.967-.07-1.318 0-.809-.317-1.143-.316-.334-.949-.334h-.457q-.633.176-.949.51-.316.334-.316.967Zm1.722 9.387q-.633 0-1.09.28-.457.282-.632.774v.211q0 .809.545 1.16.544.352 1.177.352 1.266 0 1.266-1.512v-.21q0-.493-.404-.774-.405-.281-.862-.281Z"/>
</svg>
