<svg xmlns="http://www.w3.org/2000/svg" viewBox="10 10 52 52">
  <path d="M29.399 44.28q-1.371 0-2.532-.493-1.16-.492-2.039-1.353-.879-.862-1.37-2.04-.493-1.177-.493-2.548 0-1.266.492-2.426.492-1.16 1.371-2.04.88-.878 2.04-1.405 1.16-.528 2.53-.528 1.126 0 2.005.282.878.28 1.828.773h-1.02q-.808 0-1.494.299-.686.299-1.16.826-.475.527-.738 1.23-.264.704-.264 1.477 0 1.652 1.002 2.76Q30.559 40.2 32.21 40.2q1.266 0 2.197-.72.932-.721 1.424-1.846v.21q0 1.372-.492 2.55-.492 1.177-1.371 2.039-.879.86-2.04 1.353-1.16.492-2.53.492Zm-12.024-.669q-1.582-1.09-2.76-2.53-1.177-1.442-2.127-3.235 2.11-3.727 5.38-6.17 3.269-2.444 7.417-3.252l4.114-7.735 3.832 7.735q2.566.316 4.94 1.6 2.372 1.283 4.306 2.9-.492.492-.844 1.09-.352.597-.668 1.09-2.426-2.145-5.291-3.34-2.865-1.196-6.275-1.196-2.18 0-4.202.545-2.021.545-3.814 1.512-1.793.967-3.287 2.303-1.494 1.336-2.62 2.918 1.126 1.687 2.62 3.076 1.494 1.389 3.287 2.373 1.793.984 3.814 1.512 2.022.527 4.202.527 1.441 0 2.847-.281 1.407-.282 2.707-.774-1.125 1.793-1.758 2.813-.632 1.02-.808 1.02-.14.35-.193.667-.053.317-.229.633H14.387l2.988-5.8Zm17.578 7.7q0-.036-.035-.106-.105-.105-.176-.105-.492-.106-.545-.65-.052-.546.123-1.038v-.176q.07 0 .458-.562.386-.563.984-1.512l1.371-2.18q.773-1.23 1.687-2.601.176-.352.334-.563.159-.21.3-.527.35-.492.65-.95.299-.456.65-.773.176-.316.211-.527.035-.21.211-.527.316-.352.633-.791l.668-.932v-.246q.492-.633.79-1.037.3-.404.475-1.072h.176q.176-.352.334-.51l.334-.334q.246-.387.44-.738.193-.352.334-.633l.28-.563q.458 0 .458-.457.176 0 .351-.105.176-.106.528-.106v.211q.316 0 .597.053.282.053.457.404 0 .07.036.14.035.071.07.124.035.053.105.123.141.176.3.37.157.192.333.509.633 1.055 1.74 2.777 1.108 1.723 2.356 3.639 1.248 1.916 2.496 3.814 1.248 1.899 2.197 3.27.176.351.334.65.158.299.334.615.211.422.405.721.193.299.333.475.141.21.282.351.176.457.158.914-.018.457-.334.809l-.246.14-.211.212H34.954Zm12.024-4.887q-.668 0-1.213.334t-.545.931q0 .317.018.405.017.088.193.263.281.88 1.547.88.633 0 1.037-.37.404-.369.404-1.178 0-.597-.404-.931-.404-.334-1.037-.334Zm0-10.899q-.492 0-.739.088-.246.088-.597.088 0 .176-.106.317-.105.14-.105.316-.176.176-.193.334-.018.158-.018.334 0 .316.018.932.017.615.193 1.423.176.282.193.739.018.457.018.738 0 .668.123 1.371t.123 1.195q0 .176.017.229.018.053.194.228v.844q0 .176.035.194.035.017.21.017h.177q0 .176.14.193.141.018.317.018l.422-.21q.035-.071.105-.142l.07-.14q.036-.07.036-.176 0-.14.105-.562.105-.422.105-.88v-.632q0-.492.018-.844.018-.351.193-.703.176-1.441.282-2.479.105-1.037.105-1.353 0-.809-.404-1.143-.404-.334-1.037-.334Z"/>
</svg>
