<svg xmlns="http://www.w3.org/2000/svg" viewBox="10 10 52 52">
  <path d="M27.563 15.345q.878.14 1.652.492.668.316 1.3.879.633.562.95 1.476v2.496q-.774-.738-1.969-1.125-1.02-.351-2.619-.44-1.6-.087-3.814.51v-1.617q.457-.738 1.09-1.335.562-.493 1.406-.915.843-.421 2.003-.421Zm16.875 0q-.95.14-1.723.492-.668.316-1.248.879-.58.562-.756 1.476v2.496q.703-.738 1.863-1.125.985-.351 2.496-.44 1.512-.087 3.692.51l.175-1.617q-.492-.738-1.16-1.335-.597-.493-1.423-.915-.827-.421-1.916-.421Zm9.246 17.648q.035-.387.017-.932-.017-.545-.088-1.195-.07-.65-.158-1.353-.088-.704-.193-1.372-.246-1.582-.598-3.34-.492-1.406-1.81-2.161-1.319-.756-2.76-1.108-1.688-.387-3.657-.457-1.582.176-2.689.791t-1.846 1.318q-.879.809-1.441 1.793v2.672L36 27.052l-2.46.597v-2.672q-.528-.984-1.372-1.793-.703-.703-1.846-1.318-1.142-.615-2.76-.79-2.003.07-3.69.456-.74.176-1.46.44-.72.263-1.353.668-.633.404-1.143.931-.51.528-.756 1.23-.316 1.758-.527 3.34-.211 1.336-.37 2.708-.158 1.37-.158 2.144-1.09.879-1.968 1.688-.739.703-1.336 1.44-.598.74-.598 1.196l-2.25 11.11.422 1.652q.176 1.687 1.3 3.059.458.597 1.179 1.177.72.58 1.74 1.055t2.408.826q1.389.352 3.217.457 1.793.035 3.586-.492.773-.21 1.6-.58.825-.37 1.67-.914.843-.545 1.67-1.318.825-.774 1.564-1.829.21-1.02.28-2.144.071-.95-.017-2.11t-.474-2.32l3.902.809 3.902-.809q-.386 1.16-.474 2.32-.088 1.16-.018 2.11.07 1.125.281 2.144 1.407 2.075 3.112 3.13 1.705 1.054 3.217 1.511 1.757.527 3.55.492 1.793-.105 3.2-.457 1.406-.351 2.443-.826 1.037-.475 1.775-1.055.739-.58 1.23-1.177 1.16-1.372 1.407-3.059l.422-1.652-2.25-11.11q.07-.457-.545-1.195t-1.424-1.441q-.914-.81-2.144-1.688ZM15.223 48.005q.07-1.09.72-1.987.65-.896 1.705-1.529 1.055-.633 2.391-.95 1.336-.315 2.813-.245 1.476.176 2.707.685 1.23.51 2.144 1.301.914.791 1.424 1.793.51 1.002.51 2.162-.176 1.02-.826 1.899-.65.879-1.688 1.529-1.037.65-2.338.967-1.3.316-2.777.14-1.477-.07-2.742-.545-1.266-.474-2.18-1.248-.914-.773-1.424-1.793-.51-1.02-.44-2.18Zm18.105-7.383q.176-.527.563-.914.316-.352.826-.65.51-.3 1.283-.3.773 0 1.248.3.475.298.756.65.316.387.457.914 0 1.02-.387 1.564-.386.545-.844.791-.562.317-1.23.317-.703 0-1.266-.317-.492-.246-.914-.79-.422-.546-.492-1.565Zm15.82 2.672q1.477-.07 2.813.246t2.355.95q1.02.632 1.635 1.528.615.897.615 1.987.141 1.16-.316 2.18-.457 1.019-1.354 1.792-.896.774-2.162 1.248-1.265.475-2.742.545-1.476.176-2.812-.14-1.336-.317-2.39-.967-1.056-.65-1.706-1.53-.65-.878-.72-1.898-.071-1.16.421-2.162t1.424-1.793q.932-.79 2.197-1.3 1.266-.51 2.742-.686Z"/>
</svg>
