<svg xmlns="http://www.w3.org/2000/svg" viewBox="10 10 52 52">
  <path d="M27.923 48.2q0 .07-.105.175-.07.035-.106.035H21.35q.316.985.791 1.828.475.844 1.107 1.793v.457h-.21q-.317.317-1.002.58-.686.264-1.354.264-.316 0-.527-.018-.211-.017-.528-.193-1.441-2.39-1.898-4.236-.457-1.846-.457-3.428v-.422q0-2.988 3.2-6.152.245-.246 1.054-.967.808-.72 1.722-1.53 1.055-.913 2.32-2.003 1.618-1.266 2.884-2.444 1.265-1.177 2.25-2.408h-8.297q.632.95 1.37 1.617.739.668 1.372 1.336v.422q-.176.176-.527.457-.352.282-.739.598-.386.316-.756.615-.369.299-.51.475-.808-.668-1.388-1.213-.58-.545-.756-.72-1.617-1.583-2.408-3.147-.791-1.565-.791-3.006v-.422q0-1.617.457-3.445.457-1.828 1.898-4.22.317-.175.528-.192.21-.018.527-.018.668 0 1.354.264.685.263 1.001.58h.211v.422q-.492.668-.826 1.265-.334.598-.65 1.09h9.351q-.175-.492-.492-1.09-.316-.597-.808-1.265v-.422q0-.14.228-.3.229-.157.58-.28.352-.123.809-.194.457-.07.914-.07.316 0 .545.018.228.017.545.193.703 1.195 1.125 2.25.422 1.055.633 1.986.21.932.28 1.776.071.843.071 1.652v.422q0 1.441-.756 3.006-.756 1.564-2.232 3.146-.387.387-1.23 1.143-.844.756-1.688 1.494-.985.879-2.145 1.828-1.3.984-2.302 1.898-1.002.915-1.952 1.723h6.364q-.492-.492-.95-.967-.457-.474-.949-.966h.211-.21q.14-.141.509-.458.37-.316.756-.685.387-.37.756-.686.369-.316.545-.492 1.23.985 1.67 1.46.439.474.615.474.281.492.879.808-.985 1.301-1.653 2.409-.668 1.107-1.3 2.091h-8.93q-.176.317-.334.739-.158.422-.334.738H29.4q-.387.598-.668 1.037-.281.44-.457.791-.211.387-.352.703Zm-7.031-22.747q0 .317.018.668.017.352.193.844H31.93v-1.722H20.892v.21ZM53.904 50.45q-.035.07-.035.106h-23.59v-.211q-.176 0-.229-.106-.053-.105-.228-.105-.176-.176-.282-.58-.105-.405.07-.721v-.422q.071-.035.176-.176.07-.105.194-.263.123-.158.299-.405.316-.457.685-1.09.37-.632.967-1.44.316-.493.668-.985.352-.492.844-1.16.176-.317.351-.65.176-.335.492-.827 0-.176.124-.334.123-.158.298-.334.493-.809 1.002-1.687.51-.88 1.143-1.688.808-1.195 1.53-2.32l1.282-2.004q.563-.879.88-1.424.316-.545.316-.615.105 0 .175-.106.036-.035.036-.105.175-.176.21-.193.036-.018.212-.018h.457v-.211q.492 0 .685.123.193.123.37.299l.21.21q.176.141.774 1.073.597.932 1.582 2.514.175 0 .21.246.036.246.212.422.175.175.316.562.14.387.316.703.176.176.352.422t.527.422q0 .316.211.65t.211.65q1.195 1.759 2.356 3.481l2.109 3.13q1.09 1.652 2.11 3.128.316.633.193 1.125t-.616.809q-.07 0-.175.105Zm-10.899-4.57q0-.07-.105-.176-.07-.035-.106-.035h-.843q-.352 0-.528.053-.176.052-.351.369-.317.176-.475.351-.158.176-.158.528 0 .457.281.861.281.404.774.58h.457q.808 0 1.248-.334.439-.334.439-1.107 0-.774-.633-1.09Zm-1.054-11.074q-.493 0-.897.334t-.404.966q-.07 0-.106.036-.105.07-.105.175v.633q.176 0 .193.123.018.123.018.3 0 .491.017 1.23.018.738.194 1.511 0 .317.105.668.106.352.106.844v1.477q0 .175.017.421.018.247.194.247v.421q.175 0 .334.106.158.105.334.105h.421l.633-.632v-2.355q.176-.317.194-.651.017-.334.017-.65.176-1.407.299-2.444t.123-1.354q0-.632-.281-.984t-.774-.527h-.632Z"/>
</svg>
