<svg xmlns="http://www.w3.org/2000/svg" viewBox="10 10 52 52">
  <path d="M25.967 51.082q-3.024 0-5.502-.37-2.479-.368-4.236-1.001-1.758-.633-2.708-1.494-.949-.862-.949-1.81 0-.528.616-1.653.615-1.125 1.564-2.531.95-1.407 2.074-2.918 1.125-1.512 2.145-2.848 1.02-1.336 1.775-2.32.756-.985.967-1.301.633-.984.738-1.406.106-.422.106-.739V24.54q0-.316-.334-.58-.334-.264-.51-.264-.246-.07-.387-.369-.14-.299-.193-.65-.053-.352.035-.72.088-.37.334-.616.809-.317 1.916-.58 1.107-.264 2.549-.264 1.582 0 2.724.264 1.143.263 1.952.58.14.246.228.615.088.37.07.72-.017.352-.14.651-.123.299-.37.37-.175 0-.527.263-.351.264-.351.58v6.152q0 .317.105.739.106.422.774 1.406.246.316.966 1.195.721.88 1.653 2.092.931 1.213 1.933 2.62 1.002 1.405 1.81 2.777-1.898 3.058-2.97 4.834-1.072 1.775-1.248 1.95-.316.493-.457 1.108-.14.615.035 1.248-1.3.176-2.865.299-1.564.123-3.322.123ZM15.77 45.773q0 .176.405.528.404.351 1.195.738t1.986.756q1.196.37 2.778.51-.563-.457-.95-1.073-.386-.615-.562-1.265-.176-.65-.123-1.301.053-.65.37-1.213.21-.316.86-.79.65-.475 1.407-1.143.756-.668 1.494-1.547.738-.88 1.107-1.987.37-1.107.246-2.496-.123-1.388-1.072-3.076-.914 1.266-1.933 2.707-1.02 1.441-2.04 2.865-1.02 1.424-1.95 2.76-.932 1.336-1.653 2.408-.72 1.073-1.143 1.776-.422.703-.422.843Zm19.336 5.73q0-.034-.035-.105-.105-.105-.176-.105l-.632-.633v-.422q0-.316.017-.422.018-.105.194-.421.035-.141.175-.282.106-.14.264-.334.158-.193.404-.474.176-.317.457-.756l.598-.932q0-.176.123-.316t.299-.317q.316-.632.65-1.16.334-.527.826-1.16 1.196-1.934 2.479-3.937 1.283-2.004 2.373-3.674 1.09-1.67 1.81-2.778.721-1.107.792-1.283h.21q0-.351.264-.404.264-.053.58-.053l.211-.21q.176 0 .352.14t.492.316q0 .07.035.106.035.105.176.105l.633 1.266q.316.316.422.527.105.211.457.528l.632 1.265q.176 0 .3.229.122.228.122.404l2.373 3.674q1.284 1.986 2.461 3.832 1.178 1.846 2.11 3.34.931 1.494 1.353 2.127.07.07.14.105l.141.07q.07.036.141.036v.632q.176.317.035.703-.14.387-.457.563l-.21.21H35.106Zm11.883-4.886q-.808 0-1.248.317-.44.316-.44.949 0 .808.44 1.16.44.352 1.248.352h.844v-.422q.316-.176.37-.475.052-.299.052-.615 0-1.266-1.266-1.266Zm-1.687-9.351q0 .316.105 1.336.106 1.02.106 2.496.175.316.193.632.018.317.018.668 0 .176.105.422.106.246.106.422v1.477l.21.21q0 .176.018.194.018.018.193.018 0 .175.159.193.158.018.474.018.07 0 .14-.036l.141-.07q.07-.035.141-.105.035-.07.106-.141l.07-.14q.035-.07.035-.141 0-.176.106-.475.105-.299.105-.79V41.52q.176 0 .193-.124.018-.123.018-.298v-.633q0-.176.105-.229.106-.052.106-.228v-2.742q0-.809-.317-1.143-.316-.334-.949-.334-.808 0-1.248.334-.44.334-.44 1.143Z"/>
</svg>
