<svg xmlns="http://www.w3.org/2000/svg" viewBox="10 10 52 52">
  <path d="M29.136 22.236q.211-.21.492-.21.422 0 1.037.28.616.282 1.248.669.633.386 1.125.773.493.387.668.633.176.176.211.316t.035.317q-1.265 2.496-2.32 4.5-.457.843-.896 1.687-.44.844-.791 1.547-.352.703-.616 1.178-.263.474-.334.58-.175.176-.334.299-.158.123-.334.123-.175 0-.72-.387-.545-.387-1.213-.703l-1.266-.633q.633-.316.985-.861.351-.545.51-1.196.158-.65.193-1.353t.035-1.336v-.633q.316-.738.668-1.582.351-.844.65-1.6.3-.755.528-1.353.228-.598.298-.844.036-.105.141-.21Zm-6.82 4.29v-1.213q0-.792.017-1.618.018-.826.07-1.494.053-.668.124-.844 0-.316.175-.492.176-.176.422-.246t.493-.088q.246-.017.421-.017h.211q.422 0 .95.07.527.07 1.02.193.491.123.896.282.404.158.58.298 0 .176.088.3.087.122-.088.122 0 .176-.106.703-.105.528-.263 1.213-.159.686-.352 1.442-.193.756-.37 1.388-.316-.175-.825-.193-.51-.018-1.319-.018-.492 0-1.072.018-.58.018-1.072.193Zm-6.012-3.868q.07-.387.686-.685.615-.3 1.318-.475.844-.21 1.863-.352h.211q.492 0 .791.159.299.158.299.474v4.746q-.633.07-1.3.159-.669.087-1.249.158-.58.07-1.054.158-.475.088-.721.158l-.422.246q0-.808-.106-1.6-.105-.79-.105-1.423-.176-.668-.193-1.108-.018-.439-.018-.615Zm16.348 14.836q-.246 0-.686-.176-.44-.175-.914-.44-.474-.263-.879-.562-.404-.298-.545-.545-.175-.316-.193-.492-.018-.175-.018-.351.07-.176.457-.897.387-.72.985-1.705.597-.984 1.248-2.092.65-1.107 1.248-2.056.598-.95.984-1.582.387-.633.457-.703 0-.176.123-.194.123-.017.3-.017.175 0 .65.21.474.212 1.019.528.545.316 1.037.703.492.387.738.703v.633q-.07.176-.527.932-.457.755-.967 1.634-.51.88-.966 1.6-.458.72-.528.791-.246.316-.685.967-.44.65-.897 1.283-.457.633-.808 1.125-.352.492-.422.492l-.211.211Zm-2.32 13.29.07.14q.035.07.105.14-.984.317-1.88.37-.897.052-2.022.052-1.477 0-2.883-.298-1.406-.3-2.707-.792v-6.855q-.633-.422-1.336-.896-.703-.475-1.353-.95-.65-.474-1.178-.949-.528-.475-.844-.861l-.21-.246q-.106-.07-.405-1.037-.299-.967-.65-2.127-.352-1.16-.616-2.198-.263-1.037-.263-1.283t.404-.967q.404-.72.931-1.476.528-.756 1.002-1.389.475-.633.65-.703.247-.07.95-.246t1.617-.352q.914-.175 1.899-.316.984-.14 1.793-.14 1.441 0 1.898.034.457.036.457.176 0 .07-.07.703t-.176 1.371q-.105.739-.21 1.407-.106.668-.177.808-.07 0-.299.176-.228.176-.703.422-.474.246-1.23.51-.756.263-1.881.404h-.21l.42 1.512q.669-.317 1.302-.492.633-.176 1.3-.176.739 0 1.39.21.65.212 1.247.546.598.334 1.178.72.58.387 1.143.703 0 .176.123.211.123.036.298.211.739.563 1.266.88.527.316.914.456t.633.158q.246.018.422.018h.21q.317 0 .634-.053.316-.052.668-.404.07-.14.421-.686.352-.544.809-1.212.457-.668.879-1.319.422-.65.668-1.072 0 .492-.035 1.266l-.07 1.546q-.036.774-.07 1.39-.036.614-.036.755 0 .07-.106.176-.07.035-.105.035-.176.633-.457 1.037-.281.404-.633.897l-.633.632q0 .176-.123.334-.123.159-.299.334-.175.176-.439.387-.264.211-.545.44-.281.228-.545.404-.264.176-.404.281v1.934q-.809 1.125-1.16 1.652-.352.527-.352.703-.492.633-.545 1.318-.053.686.123 1.495 0 .07.035.14Zm2.742.07q-.176 0-.194-.018-.017-.018-.017-.193-.317-.176-.475-.475-.158-.299-.158-.615 0-.176.123-.3.123-.122.299-.122 0-.176.58-1.178t1.564-2.478q.176-.352.44-.668.263-.317.44-.633.175-.317.35-.65.176-.335.493-.651.176-.316.316-.598.14-.28.317-.457.668-.984 1.3-2.056.633-1.073 1.301-2.057.88-1.3 1.635-2.426.756-1.125 1.318-2.004.563-.879.914-1.406.352-.527.422-.598 0-.035.035-.105.106-.105.176-.105 0-.036.035-.106.07-.14.176-.14.176 0 .334-.106.158-.105.334-.105.176 0 .422.14t.422.317q.07.07.14.105.106.105.317.105 0 .07.404.791.405.721 1.108 1.846.703 1.125 1.634 2.567.932 1.441 1.987 2.953.176.351.44.773.263.422.439.738.492.668.826 1.266.334.598.685 1.09.809 1.23 1.477 2.25t1.16 1.793q.492.773.756 1.248t.264.545q.316.316.193.844-.123.527-.615.879l-.246.21H33.074v-.21Zm13.113-4.325q0-.07-.106-.175-.07-.036-.105-.036-.176-.175-.422-.193-.246-.018-.422-.018-.316 0-.615.053t-.475.37q-.316.175-.369.35-.053.177-.053.528 0 .492.176.914.176.422.668.598.176 0 .334.105.158.106.334.106.633 0 1.072-.457.44-.457.44-1.266 0-.351-.14-.527-.141-.176-.317-.352Zm-.422-11.18q-.176-.175-.316-.193-.141-.017-.317-.017-.668 0-1.002.263-.334.264-.51.58 0 .176-.017.334-.018.159-.193.334 0 .317.123 1.354l.298 2.514q0 .492.106.949.105.457.105.773v.211q.176.633.194 1.09.017.457.017.633t.018.299q.017.123.193.123 0 .175.176.193.176.018.492.018h.211q.317-.176.37-.317.052-.14.052-.316l.21-.211v-.879q0-.316.019-.773.017-.457.193-.95 0-.175.123-.422.123-.246.123-.421.176-1.477.281-2.514.106-1.037-.07-1.354 0-.492-.193-.808-.194-.317-.686-.492Zm.422 6.012q-.176.493-.193.95-.018.457-.018.773 0-.316.018-.773.017-.457.193-.95Zm-2.145 5.168q.176-.316.475-.369.299-.053.615-.053.176 0 .422.018t.422.193q-.176-.175-.422-.193-.246-.018-.422-.018-.316 0-.615.053t-.475.37Zm2.145 0q0-.07-.106-.175-.07-.036-.105-.036.035 0 .105.036.106.105.106.175Zm-1.055 2.602q-.176 0-.334-.106-.158-.105-.334-.105.176 0 .334.105.158.106.334.106Zm0-13.992q-.668 0-1.002.263-.334.264-.51.58.176-.316.51-.58.334-.263 1.002-.263.176 0 .317.017.14.018.316.194-.176-.176-.316-.194-.141-.017-.317-.017Zm12.059 15.715q.492-.352.615-.88.123-.527-.193-.843 0-.07-.264-.545-.264-.475-.756-1.248-.492-.774-1.16-1.793-.668-1.02-1.477-2.25.809 1.23 1.477 2.25t1.16 1.793q.492.773.756 1.248t.264.545q.316.316.193.844-.123.527-.615.879Zm-12.727-6.258q0 .175.176.193.176.018.492.018h.211-.21q-.317 0-.493-.018t-.176-.193Zm-11.601 6.047q0 .175.017.193.018.018.194.018-.176 0-.194-.018-.017-.018-.017-.193Zm11.601-19.829q-.105 0-.176.141-.035.07-.035.106 0-.036.035-.106.07-.14.176-.14Zm-8.789 13.36q.176-.317.352-.65.175-.335.492-.651-.316.316-.492.65t-.352.65Zm-3.445 5.379q0-.176.123-.3.123-.122.299-.122 0-.176.58-1.178t1.564-2.478q-.984 1.476-1.564 2.478-.58 1.002-.58 1.178-.176 0-.3.123-.122.123-.122.299Z"/>
</svg>
