<?xml version="1.0" encoding="UTF-8" ?>
<!DOCTYPE svg PUBLIC "-//W3C//DTD SVG 1.1//EN" "http://www.w3.org/Graphics/SVG/1.1/DTD/svg11.dtd">
<svg width="45pt" height="39pt" viewBox="0 0 45 39" version="1.1" xmlns="http://www.w3.org/2000/svg">
<g id="#ffffffff">
<path fill="#ffffff" opacity="1.00" d=" M 18.29 16.25 C 24.16 11.26 29.27 5.45 35.24 0.59 C 32.67 7.65 29.70 14.56 27.01 21.57 C 30.12 21.65 33.22 21.67 36.33 21.82 C 34.43 24.02 32.43 26.13 30.46 28.26 C 34.98 31.17 40.02 33.24 44.37 36.42 C 38.75 36.63 33.13 36.49 27.51 36.52 C 27.96 37.14 28.86 38.38 29.31 39.00 L 15.07 39.00 C 9.82 31.51 5.56 23.36 0.00 16.10 L 0.00 15.05 C 1.31 16.09 2.70 17.01 4.06 17.98 C 4.25 13.31 4.20 8.63 4.60 3.97 C 7.50 8.08 10.00 12.46 12.90 16.57 C 13.96 14.15 14.94 11.70 16.07 9.31 C 16.90 11.59 17.57 13.93 18.29 16.25 Z" />
</g>
</svg>
