<?xml version="1.0" encoding="UTF-8" ?>
<!DOCTYPE svg PUBLIC "-//W3C//DTD SVG 1.1//EN" "http://www.w3.org/Graphics/SVG/1.1/DTD/svg11.dtd">
<svg width="73pt" height="71pt" viewBox="0 0 73 71" version="1.1" xmlns="http://www.w3.org/2000/svg">
<g id="#ffffffff">
<path fill="#ffffff" opacity="1.00" d=" M 40.96 0.00 L 42.07 0.00 C 43.23 3.17 44.15 6.42 45.16 9.64 C 43.00 11.46 40.87 13.30 38.71 15.11 C 38.75 9.89 40.10 4.86 41.94 0.01 L 40.96 0.00 Z" />
<path fill="#ffffff" opacity="1.00" d=" M 20.59 9.88 C 21.16 7.51 21.87 5.12 23.11 3.00 C 23.84 5.11 24.50 7.24 25.27 9.34 C 24.42 10.86 23.57 12.39 22.74 13.92 C 21.96 12.62 21.06 11.35 20.59 9.88 Z" />
<path fill="#ffffff" opacity="1.00" d=" M 20.43 28.37 C 25.31 20.92 30.52 13.69 35.53 6.33 C 35.29 12.53 34.58 18.71 34.18 24.90 C 42.48 20.30 50.70 15.56 59.01 10.98 C 53.47 20.25 47.94 29.51 42.31 38.72 C 50.04 38.39 57.76 37.79 65.49 37.47 C 61.23 41.04 57.17 44.85 52.83 48.34 C 55.52 49.31 58.26 50.12 61.02 50.86 C 57.59 54.58 54.40 58.53 50.81 62.10 C 52.34 63.34 53.86 64.60 55.33 65.93 C 49.95 66.01 44.56 65.95 39.18 65.97 C 40.44 63.40 41.84 60.91 43.13 58.35 C 40.32 59.48 37.59 60.78 34.84 62.01 C 34.77 61.39 34.65 60.13 34.58 59.51 C 32.23 60.61 29.92 61.81 27.63 63.02 C 29.62 56.08 31.15 49.02 33.29 42.12 C 29.50 45.34 25.81 48.68 22.01 51.90 C 21.44 50.30 20.83 48.72 20.16 47.16 C 18.58 49.20 17.04 51.28 15.41 53.28 C 14.51 49.48 14.23 45.56 13.38 41.75 C 11.81 44.30 10.94 47.18 9.84 49.95 C 6.51 45.32 3.66 40.39 0.40 35.71 C 1.23 35.70 2.88 35.69 3.70 35.68 C 6.60 29.77 8.34 23.21 11.86 17.67 C 12.30 19.19 12.71 20.71 13.15 22.24 C 15.85 19.50 17.19 15.79 19.56 12.81 C 19.96 17.99 19.70 23.21 20.43 28.37 Z" />
<path fill="#ffffff" opacity="1.00" d=" M 56.27 26.19 C 61.84 26.14 67.41 26.36 72.98 26.04 C 70.30 28.72 67.08 30.78 64.20 33.24 C 59.84 33.23 55.47 33.22 51.11 33.28 C 52.87 30.94 54.57 28.56 56.27 26.19 Z" />
<path fill="#ffffff" opacity="1.00" d=" M 60.33 47.16 C 63.07 45.14 65.78 43.09 68.53 41.09 C 67.06 43.62 65.37 46.01 63.79 48.47 C 62.64 48.04 61.48 47.60 60.33 47.16 Z" />
</g>
</svg>
