<?xml version="1.0" encoding="UTF-8" ?>
<!DOCTYPE svg PUBLIC "-//W3C//DTD SVG 1.1//EN" "http://www.w3.org/Graphics/SVG/1.1/DTD/svg11.dtd">
<svg width="62pt" height="53pt" viewBox="0 0 62 53" version="1.1" xmlns="http://www.w3.org/2000/svg">
<g id="#ffffffff">
<path fill="#ffffff" opacity="1.00" d=" M 16.26 19.74 C 17.85 14.52 19.23 9.23 20.96 4.06 C 22.71 9.49 24.31 14.97 25.94 20.44 C 32.02 15.85 38.17 11.34 44.38 6.93 C 41.64 14.96 38.73 22.94 35.98 30.97 C 39.67 30.90 43.35 30.78 47.04 30.73 C 44.87 33.76 42.63 36.74 40.44 39.75 C 46.95 39.54 53.47 39.48 59.98 39.25 C 55.97 42.88 51.91 46.45 47.83 50.00 C 49.59 50.97 51.34 51.98 53.08 53.00 L 30.31 53.00 C 31.38 51.57 32.38 50.10 33.37 48.62 C 30.00 49.50 26.63 50.44 23.25 51.27 C 24.13 48.92 25.06 46.59 26.01 44.26 C 25.28 44.14 23.82 43.90 23.09 43.77 C 23.91 40.77 24.68 37.77 25.36 34.73 C 22.08 37.68 18.98 40.81 15.87 43.92 C 14.63 41.33 13.44 38.70 12.04 36.19 C 11.72 37.67 11.42 39.14 11.12 40.62 C 7.62 35.07 3.93 29.65 0.42 24.11 C 2.19 24.73 3.94 25.39 5.70 26.04 C 6.22 21.69 6.43 17.32 6.79 12.96 C 9.96 15.20 13.12 17.46 16.26 19.74 Z" />
<path fill="#ffffff" opacity="1.00" d=" M 45.03 19.98 C 48.56 19.59 52.07 18.98 55.58 18.40 C 53.39 21.02 51.05 23.52 48.85 26.13 C 46.63 26.18 44.41 26.23 42.19 26.29 C 43.14 24.19 44.10 22.09 45.03 19.98 Z" />
</g>
</svg>
