<?xml version="1.0" encoding="UTF-8" ?>
<!DOCTYPE svg PUBLIC "-//W3C//DTD SVG 1.1//EN" "http://www.w3.org/Graphics/SVG/1.1/DTD/svg11.dtd">
<svg width="61pt" height="50pt" viewBox="0 0 61 50" version="1.1" xmlns="http://www.w3.org/2000/svg">
<g id="#735363ff">
</g>
<g id="#fefefeff">
<path fill="#fefefe" opacity="1.00" d=" M 10.71 26.31 C 6.90 16.60 14.90 5.19 25.08 4.47 C 33.25 3.72 40.83 9.82 42.77 17.63 C 41.83 17.59 39.96 17.52 39.02 17.48 C 37.33 12.40 32.64 7.77 26.96 8.21 C 19.36 7.13 12.47 14.69 13.40 22.10 C 13.64 29.59 21.26 35.06 28.45 34.35 C 29.34 35.29 30.23 36.23 31.11 37.18 C 22.76 39.20 13.53 34.52 10.71 26.31 Z" />
<path fill="#fefefe" opacity="1.00" d=" M 24.28 21.67 C 22.70 20.56 22.92 17.80 24.97 17.38 C 27.58 18.69 29.63 20.80 32.03 22.42 C 34.76 21.98 36.58 19.17 38.96 17.79 C 40.06 18.01 41.16 18.24 42.26 18.46 C 46.82 22.74 49.36 28.87 54.83 32.21 C 54.37 38.62 47.94 42.59 41.94 42.49 C 41.28 41.22 40.61 39.96 39.96 38.69 C 34.93 38.18 29.87 36.30 26.73 32.15 C 26.63 31.45 26.43 30.06 26.33 29.37 C 28.25 29.38 30.16 29.48 32.07 29.64 C 29.76 26.72 26.99 24.22 24.28 21.67 Z" />
</g>
</svg>
