<?xml version="1.0" encoding="UTF-8" ?>
<!DOCTYPE svg PUBLIC "-//W3C//DTD SVG 1.1//EN" "http://www.w3.org/Graphics/SVG/1.1/DTD/svg11.dtd">
<svg width="75pt" height="50pt" viewBox="0 0 75 50" version="1.1" xmlns="http://www.w3.org/2000/svg">
<g id="#331c26ff">
</g>
<g id="#fefefeff">
<path fill="#fefefe" opacity="1.00" d=" M 11.52 23.00 C 11.04 14.77 18.07 7.30 26.11 6.48 C 30.85 5.98 36.12 6.86 39.55 10.44 C 42.57 13.08 44.05 16.89 45.49 20.52 C 49.74 20.54 53.98 20.63 58.23 20.44 C 55.97 17.89 53.48 15.56 51.20 13.03 C 52.33 12.06 53.32 10.94 54.27 9.80 C 59.64 13.40 63.68 18.69 68.39 23.10 C 64.10 27.75 59.44 32.03 54.85 36.38 C 53.54 35.38 52.33 34.25 51.21 33.04 C 53.43 30.60 56.03 28.49 57.89 25.74 C 53.84 25.50 49.79 25.69 45.74 25.58 C 43.47 31.09 40.29 37.16 34.11 38.94 C 29.35 40.06 23.88 40.11 19.61 37.40 C 14.71 34.40 11.12 28.89 11.52 23.00 M 23.46 12.53 C 19.55 14.44 16.17 18.41 16.51 23.00 C 16.07 29.90 23.17 35.78 29.88 34.59 C 37.61 34.27 42.65 24.66 38.90 18.00 C 36.40 12.29 28.99 9.92 23.46 12.53 Z" />
</g>
</svg>
