<?xml version="1.0" encoding="UTF-8" ?>
<!DOCTYPE svg PUBLIC "-//W3C//DTD SVG 1.1//EN" "http://www.w3.org/Graphics/SVG/1.1/DTD/svg11.dtd">
<svg width="57pt" height="50pt" viewBox="0 0 57 50" version="1.1" xmlns="http://www.w3.org/2000/svg">
<g id="#4c2429ff">
</g>
<g id="#fefefeff">
<path fill="#fefefe" opacity="1.00" d=" M 19.32 4.30 C 30.95 0.55 44.23 10.85 43.69 22.98 C 44.18 34.95 31.00 45.20 19.53 41.52 C 11.46 39.33 4.88 31.54 5.25 23.00 C 4.84 14.47 11.32 6.68 19.32 4.30 M 20.32 8.26 C 13.94 10.01 8.87 16.26 9.22 23.00 C 8.71 32.41 18.82 40.39 27.85 37.89 C 34.54 36.38 39.83 29.95 39.56 23.02 C 40.18 13.36 29.51 5.07 20.32 8.26 Z" />
<path fill="#fefefe" opacity="1.00" d=" M 21.46 12.61 C 25.07 11.91 29.20 12.30 31.73 15.27 C 37.24 20.02 35.42 29.92 28.76 32.69 C 23.04 35.38 15.86 31.80 14.17 25.83 C 12.28 20.35 16.23 14.34 21.46 12.61 Z" />
</g>
</svg>
