<?xml version="1.0" encoding="UTF-8" ?>
<!DOCTYPE svg PUBLIC "-//W3C//DTD SVG 1.1//EN" "http://www.w3.org/Graphics/SVG/1.1/DTD/svg11.dtd">
<svg width="120pt" height="120pt" viewBox="0 0 120 120" version="1.1" xmlns="http://www.w3.org/2000/svg">
<g id="#ffffffff">
<path fill="#ffffff" opacity="1.00" d=" M 76.02 27.06 C 81.64 22.81 90.69 24.78 94.00 31.02 C 97.29 36.10 95.50 43.26 90.84 46.85 C 88.75 48.55 86.05 49.10 83.50 49.75 C 80.95 55.32 78.78 61.05 76.75 66.82 C 80.12 70.04 83.04 74.14 83.01 79.00 C 83.73 87.74 75.57 95.48 66.99 95.20 C 59.01 95.18 51.97 87.97 51.99 80.01 C 51.80 76.11 53.92 72.69 55.64 69.35 C 51.64 64.67 47.83 59.82 43.84 55.13 C 39.81 56.05 35.36 56.59 31.58 54.52 C 24.29 50.98 21.87 40.26 27.04 33.99 C 31.03 28.82 38.93 27.02 44.60 30.42 C 47.44 32.02 49.09 34.95 50.62 37.70 C 57.36 37.25 64.07 36.38 70.79 35.71 C 71.98 32.56 73.05 29.01 76.02 27.06 M 52.29 44.23 C 50.42 45.83 50.11 48.60 49.07 50.75 C 52.78 55.72 56.57 60.63 60.25 65.62 C 63.44 64.67 66.73 64.14 70.06 64.09 C 72.56 58.85 74.74 53.45 76.91 48.06 C 75.05 46.17 73.24 44.22 71.55 42.18 C 65.12 42.70 58.67 43.26 52.29 44.23 Z" />
</g>
</svg>
