<?xml version="1.0" encoding="UTF-8" ?>
<!DOCTYPE svg PUBLIC "-//W3C//DTD SVG 1.1//EN" "http://www.w3.org/Graphics/SVG/1.1/DTD/svg11.dtd">
<svg width="120pt" height="120pt" viewBox="0 0 120 120" version="1.1" xmlns="http://www.w3.org/2000/svg">
<g id="#ffffffff">
<path fill="#ffffff" opacity="1.00" d=" M 25.55 52.54 C 28.46 38.40 40.82 26.67 55.13 24.66 C 55.32 27.74 55.35 30.84 55.10 33.92 C 43.87 36.40 34.62 46.35 33.84 57.95 C 33.22 61.96 34.87 65.81 35.04 69.75 C 32.96 71.84 30.49 73.47 28.04 75.09 C 24.87 68.09 23.88 60.07 25.55 52.54 Z" />
<path fill="#ffffff" opacity="1.00" d=" M 64.18 24.79 C 79.93 26.37 93.41 40.24 95.01 55.96 C 95.88 62.10 94.44 68.22 92.74 74.08 C 89.61 73.25 87.24 70.93 84.77 68.97 C 87.83 59.99 85.93 49.55 79.42 42.57 C 75.49 38.04 69.90 35.48 64.23 33.85 C 64.25 30.83 64.24 27.81 64.18 24.79 Z" />
<path fill="#ffffff" opacity="1.00" d=" M 57.35 44.40 C 63.05 43.48 69.07 45.84 72.74 50.28 C 77.17 55.73 77.18 64.28 72.73 69.73 C 69.26 73.92 63.65 76.30 58.21 75.69 C 50.36 75.15 43.71 67.88 43.93 60.00 C 43.73 52.41 49.87 45.39 57.35 44.40 Z" />
<path fill="#ffffff" opacity="1.00" d=" M 33.39 83.14 C 35.55 81.12 37.43 78.74 40.00 77.21 C 42.66 79.15 44.91 81.67 47.94 83.08 C 58.39 88.57 72.13 85.89 80.03 77.21 C 82.64 78.54 84.74 80.64 87.14 82.29 C 81.44 90.24 71.64 94.79 62.00 95.41 C 51.27 96.14 40.19 91.51 33.39 83.14 Z" />
</g>
</svg>
