<?xml version="1.0" encoding="UTF-8" ?>
<!DOCTYPE svg PUBLIC "-//W3C//DTD SVG 1.1//EN" "http://www.w3.org/Graphics/SVG/1.1/DTD/svg11.dtd">
<svg width="120pt" height="120pt" viewBox="0 0 120 120" version="1.1" xmlns="http://www.w3.org/2000/svg">
<g id="#ffffffff">
<path fill="#ffffff" opacity="1.00" d=" M 54.39 25.44 C 68.00 24.17 82.38 30.64 89.68 42.35 C 94.31 49.52 95.35 58.53 93.86 66.81 C 91.92 76.99 85.15 86.10 75.93 90.85 C 66.38 95.90 54.41 96.06 44.74 91.21 C 37.35 87.64 31.41 81.28 28.24 73.73 C 22.58 60.57 26.01 44.20 36.24 34.23 C 41.10 29.42 47.57 26.20 54.39 25.44 M 50.70 34.39 C 57.09 35.93 63.06 38.67 68.46 42.41 C 68.58 39.41 68.41 36.40 67.98 33.43 C 62.27 32.05 55.77 30.32 50.70 34.39 M 73.86 35.79 C 73.77 39.52 73.40 43.24 72.55 46.88 C 75.99 50.99 78.61 55.68 80.79 60.56 C 82.97 55.59 85.01 49.94 83.42 44.51 C 81.13 40.76 77.27 38.40 73.86 35.79 M 31.83 57.59 C 33.59 58.08 35.36 58.58 37.13 59.08 C 36.89 52.37 38.88 45.97 40.90 39.67 C 35.54 44.14 32.70 50.78 31.83 57.59 M 46.48 40.50 C 43.15 46.34 42.46 53.25 42.68 59.86 C 51.21 58.76 59.52 55.14 65.06 48.39 C 59.70 44.28 53.45 40.49 46.48 40.50 M 43.82 65.31 C 45.41 70.02 47.40 74.62 50.19 78.76 C 54.30 78.35 58.47 77.91 62.34 76.35 C 67.81 74.26 72.19 70.27 76.78 66.78 C 75.10 61.53 72.39 56.68 68.99 52.35 C 63.15 60.34 53.61 64.85 43.82 65.31 M 82.24 77.35 C 86.90 71.08 88.62 63.19 87.99 55.48 C 85.23 62.53 81.57 69.53 82.24 77.35 M 32.35 64.25 C 33.42 68.06 34.33 72.05 36.66 75.33 C 38.50 77.08 41.25 77.31 43.56 78.13 C 41.58 73.97 39.73 69.73 38.43 65.29 C 36.41 64.95 34.38 64.60 32.35 64.25 M 56.24 84.32 C 59.59 85.97 63.25 88.50 67.16 87.27 C 70.03 86.38 73.13 85.44 75.30 83.26 C 76.80 80.57 76.91 77.39 77.30 74.40 C 71.11 79.28 63.99 82.75 56.24 84.32 M 44.39 82.84 C 46.79 84.85 49.63 86.22 52.62 87.11 C 50.44 84.76 47.63 83.10 44.39 82.84 Z" />
</g>
</svg>
