<?xml version="1.0" encoding="UTF-8" ?>
<!DOCTYPE svg PUBLIC "-//W3C//DTD SVG 1.1//EN" "http://www.w3.org/Graphics/SVG/1.1/DTD/svg11.dtd">
<svg width="120pt" height="120pt" viewBox="0 0 120 120" version="1.1" xmlns="http://www.w3.org/2000/svg">
<g id="#ffffffff">
<path fill="#ffffff" opacity="1.00" d=" M 44.32 23.42 C 49.45 22.97 54.44 26.96 55.15 32.06 C 56.38 38.40 50.22 44.66 43.89 43.82 C 39.02 43.32 34.84 38.94 34.85 34.00 C 34.57 28.68 39.04 23.77 44.32 23.42 M 43.12 28.29 C 38.78 29.51 38.06 35.94 41.85 38.25 C 45.19 40.88 50.74 38.19 50.73 33.96 C 51.07 30.03 46.84 26.71 43.12 28.29 Z" />
<path fill="#ffffff" opacity="1.00" d=" M 66.38 23.49 C 71.19 22.79 76.15 26.00 77.54 30.65 C 79.50 36.42 75.06 43.14 69.05 43.80 C 63.31 44.67 57.61 39.77 57.56 33.97 C 57.09 28.82 61.37 24.10 66.38 23.49 M 65.36 28.42 C 62.91 29.49 61.52 32.47 62.23 35.04 C 62.70 37.29 64.82 38.83 66.98 39.25 C 70.44 39.73 73.84 36.54 73.39 33.03 C 73.33 29.20 68.67 26.83 65.36 28.42 Z" />
<path fill="#ffffff" opacity="1.00" d=" M 44.45 60.32 C 48.48 53.49 52.34 46.55 56.45 39.77 C 60.32 46.64 64.29 53.46 68.18 60.32 C 60.27 60.34 52.36 60.34 44.45 60.32 M 56.39 48.67 C 55.05 50.99 53.73 53.33 52.41 55.67 C 55.09 55.65 57.76 55.68 60.44 55.66 C 59.11 53.32 57.76 50.98 56.39 48.67 Z" />
<path fill="#ffffff" opacity="1.00" d=" M 31.17 43.32 C 36.88 41.66 43.25 46.07 43.78 51.96 C 44.70 57.70 39.79 63.46 33.98 63.46 C 28.68 63.73 23.67 59.25 23.44 53.93 C 23.01 49.12 26.53 44.45 31.17 43.32 M 31.10 48.11 C 29.08 49.30 27.71 51.68 28.12 54.06 C 28.42 57.27 31.92 59.73 35.06 58.83 C 38.39 58.11 40.37 54.08 38.91 51.00 C 37.73 48.04 33.93 46.57 31.10 48.11 Z" />
<path fill="#ffffff" opacity="1.00" d=" M 68.91 52.01 C 69.43 46.67 74.76 42.41 80.09 43.05 C 85.06 43.50 89.24 48.02 89.27 53.01 C 89.40 55.34 88.39 57.48 87.40 59.52 C 85.75 59.02 84.10 58.52 82.42 58.11 C 83.37 56.86 84.60 55.63 84.72 53.98 C 85.27 50.70 82.35 47.35 79.01 47.51 C 75.74 47.46 72.86 50.71 73.37 53.94 C 73.53 55.59 74.79 56.80 75.69 58.08 C 74.00 58.44 72.34 58.89 70.69 59.35 C 69.49 57.11 68.47 54.61 68.91 52.01 Z" />
<path fill="#ffffff" opacity="1.00" d=" M 75.33 61.44 C 79.72 60.56 84.45 61.29 88.24 63.72 C 94.25 67.41 97.60 74.93 96.30 81.87 C 95.05 89.72 87.95 96.24 79.96 96.56 C 73.80 96.99 67.64 93.78 64.25 88.66 C 60.54 83.36 60.22 75.97 63.35 70.33 C 65.78 65.80 70.30 62.47 75.33 61.44 M 80.83 65.87 C 80.46 67.09 80.16 68.32 79.95 69.58 C 81.81 68.70 83.73 67.99 85.75 67.57 C 84.32 66.63 82.65 64.27 80.83 65.87 M 79.64 71.18 C 80.76 72.67 82.65 73.20 84.39 73.56 C 82.52 73.84 80.69 73.53 79.01 72.70 C 78.58 74.14 78.25 75.61 78.14 77.11 C 79.97 77.59 81.56 78.81 82.39 80.50 C 80.32 79.34 77.80 78.00 77.12 75.54 C 75.88 77.81 72.60 77.03 71.10 79.11 C 66.82 83.11 68.99 91.62 75.03 92.35 C 78.04 92.94 80.24 90.57 82.35 88.88 L 81.95 89.28 L 82.28 89.73 L 82.72 89.36 L 82.71 90.21 C 86.36 87.04 88.90 82.56 88.55 77.63 L 88.96 78.77 C 89.24 75.27 88.40 71.32 85.74 68.84 C 83.48 67.85 81.29 69.86 79.64 71.18 Z" />
<path fill="#ffffff" opacity="1.00" d=" M 41.26 63.39 C 46.36 61.15 52.74 64.15 54.60 69.31 C 57.02 74.90 52.94 81.83 47.06 82.90 C 41.38 84.37 35.35 79.75 34.92 73.99 C 34.23 69.51 37.10 65.01 41.26 63.39 M 43.40 67.48 C 40.77 68.18 38.99 70.99 39.40 73.67 C 39.79 77.08 43.76 79.46 46.96 78.26 C 50.45 77.15 51.97 72.23 49.59 69.40 C 48.17 67.57 45.60 66.83 43.40 67.48 Z" />
<path fill="#ffffff" opacity="1.00" d=" M 57.90 75.95 C 56.09 70.51 59.65 64.58 64.95 62.84 C 61.48 66.52 58.98 70.99 57.90 75.95 Z" />
<path fill="#ffffff" opacity="1.00" d=" M 84.39 73.56 L 85.15 73.72 C 85.29 74.09 85.58 74.82 85.72 75.19 C 85.35 74.98 84.62 74.56 84.26 74.35 L 84.39 73.56 Z" />
<path fill="#ffffff" opacity="1.00" d=" M 85.72 75.19 C 87.27 74.98 88.32 76.21 88.55 77.63 C 86.92 78.21 86.25 76.31 85.72 75.19 Z" />
<path fill="#ffffff" opacity="1.00" d=" M 75.27 79.45 C 79.19 79.36 81.41 84.31 79.44 87.47 C 78.07 90.38 73.60 90.98 71.69 88.30 C 68.96 85.29 70.90 79.31 75.27 79.45 Z" />
<path fill="#ffffff" opacity="1.00" d=" M 82.39 80.50 L 82.78 81.16 C 82.75 83.89 82.75 86.63 82.72 89.36 L 82.35 88.88 C 82.27 86.09 82.25 83.29 82.39 80.50 Z" />
</g>
</svg>
