<?xml version="1.0" encoding="UTF-8" ?>
<!DOCTYPE svg PUBLIC "-//W3C//DTD SVG 1.1//EN" "http://www.w3.org/Graphics/SVG/1.1/DTD/svg11.dtd">
<svg width="120pt" height="120pt" viewBox="0 0 120 120" version="1.1" xmlns="http://www.w3.org/2000/svg">
<g id="#ffffffff">
<path fill="#ffffff" opacity="1.00" d=" M 52.61 25.58 C 59.36 23.61 66.69 22.50 73.58 24.47 C 80.98 26.51 87.02 32.67 88.99 40.08 C 90.82 46.54 89.70 53.34 88.13 59.72 C 84.54 58.56 80.80 57.51 76.98 57.91 C 69.15 58.50 61.93 63.93 59.23 71.32 C 57.52 75.44 57.84 80.00 58.38 84.33 C 56.85 86.06 55.28 87.77 53.65 89.42 C 54.08 82.41 55.33 75.49 55.94 68.50 C 45.42 74.79 35.57 82.17 24.99 88.37 C 31.30 77.76 38.59 67.78 45.06 57.27 C 37.99 58.15 30.92 59.11 23.83 59.83 C 30.80 53.00 38.44 46.92 46.01 40.79 C 40.38 39.08 34.59 38.00 28.86 36.68 C 36.31 32.08 44.23 28.14 52.61 25.58 Z" />
<path fill="#ffffff" opacity="1.00" d=" M 75.33 61.40 C 81.85 60.02 88.96 62.72 92.94 68.05 C 97.48 73.85 97.78 82.52 93.65 88.62 C 89.93 94.43 82.58 97.57 75.81 96.31 C 68.57 95.15 62.45 89.07 61.36 81.80 C 59.56 72.67 66.20 63.05 75.33 61.40 M 69.11 68.59 C 70.20 74.06 73.33 78.79 75.33 83.94 C 73.22 82.28 71.11 80.60 68.70 79.39 C 71.33 83.70 75.29 86.95 78.88 90.43 C 82.12 86.61 87.29 83.95 88.65 78.85 C 86.38 80.50 84.33 82.44 82.22 84.29 C 83.95 80.09 86.09 76.07 87.91 71.91 C 88.47 70.89 88.41 69.72 88.00 68.66 C 85.14 72.47 83.71 77.09 81.28 81.15 C 81.73 78.12 82.26 75.10 82.36 72.03 C 79.99 74.98 79.72 78.85 78.76 82.36 C 77.95 78.81 77.46 75.14 75.90 71.81 C 75.52 74.64 75.77 77.48 75.84 80.32 C 73.72 76.34 72.45 71.78 69.11 68.59 Z" />
</g>
</svg>
