<?xml version="1.0" encoding="UTF-8" ?>
<!DOCTYPE svg PUBLIC "-//W3C//DTD SVG 1.1//EN" "http://www.w3.org/Graphics/SVG/1.1/DTD/svg11.dtd">
<svg width="120pt" height="120pt" viewBox="0 0 120 120" version="1.1" xmlns="http://www.w3.org/2000/svg">
<g id="#ffffffff">
<path fill="#ffffff" opacity="1.00" d=" M 23.44 41.13 C 26.85 35.22 30.26 29.31 33.71 23.43 C 37.14 29.33 40.58 35.23 44.02 41.13 C 41.87 41.12 39.72 41.14 37.57 41.13 C 37.53 43.03 38.08 45.18 40.21 45.64 C 46.14 46.52 52.29 45.17 58.16 46.67 C 60.73 47.28 62.74 49.39 63.24 51.98 C 64.38 56.60 63.86 62.73 59.28 65.33 C 53.40 68.33 46.56 66.14 40.33 67.41 C 36.87 68.22 36.52 74.39 40.13 75.19 C 46.01 76.14 52.07 74.83 57.94 76.16 C 57.57 81.78 59.01 87.49 62.47 91.99 C 60.24 95.51 55.86 96.47 51.96 96.56 C 45.04 96.67 38.12 96.56 31.20 96.61 C 31.20 94.47 31.19 92.33 31.19 90.20 C 38.47 90.03 45.78 90.57 53.03 89.87 C 57.03 89.54 56.95 82.69 53.08 82.21 C 47.86 81.58 42.54 82.52 37.35 81.53 C 34.72 80.96 31.97 79.57 30.87 76.97 C 29.50 73.75 29.61 70.00 30.55 66.67 C 31.40 63.75 34.09 61.74 36.96 61.05 C 42.22 59.79 47.67 60.84 53.00 60.20 C 56.89 59.78 57.00 53.44 53.32 52.56 C 47.91 51.60 42.33 52.82 36.92 51.74 C 34.63 51.22 32.24 50.08 31.18 47.87 C 29.97 45.83 29.97 43.40 29.74 41.11 C 27.64 41.13 25.54 41.14 23.44 41.13 Z" />
<path fill="#ffffff" opacity="1.00" d=" M 76.27 61.40 C 83.72 60.12 91.59 64.31 94.78 71.14 C 98.21 77.93 96.58 86.80 90.91 91.88 C 85.75 96.80 77.52 97.99 71.16 94.76 C 64.91 91.78 60.72 84.89 61.25 77.95 C 61.49 69.77 68.19 62.49 76.27 61.40 M 79.73 69.16 C 80.13 69.17 80.92 69.21 81.32 69.23 C 82.69 68.39 84.19 67.95 85.82 67.91 C 84.64 67.01 83.65 65.27 81.98 65.37 C 80.18 65.45 80.58 68.10 79.73 69.16 M 79.65 71.92 C 83.39 72.91 86.75 74.98 89.11 78.08 C 89.08 74.48 87.95 70.84 85.28 68.33 C 82.79 68.41 81.09 70.08 79.65 71.92 M 79.19 72.22 C 79.26 72.85 79.40 74.10 79.47 74.73 C 78.14 75.17 77.02 76.04 75.91 76.86 C 77.82 77.17 79.98 77.32 81.19 79.07 C 84.23 82.11 83.66 86.88 82.07 90.48 C 85.45 88.00 88.76 83.97 88.33 79.49 C 87.07 75.40 82.98 73.42 79.19 72.22 M 72.28 78.24 C 68.60 80.59 67.75 86.17 70.43 89.58 C 72.23 92.15 75.96 93.19 78.76 91.67 C 82.53 89.76 83.98 84.61 81.87 80.97 C 80.22 77.60 75.44 76.10 72.28 78.24 Z" />
<path fill="#ffffff" opacity="1.00" d=" M 74.41 79.48 C 78.37 78.71 81.36 83.45 79.75 86.92 C 78.75 90.00 74.47 91.31 72.12 88.93 C 68.95 86.26 70.23 80.26 74.41 79.48 Z" />
</g>
</svg>
