<?xml version="1.0" encoding="UTF-8" ?>
<!DOCTYPE svg PUBLIC "-//W3C//DTD SVG 1.1//EN" "http://www.w3.org/Graphics/SVG/1.1/DTD/svg11.dtd">
<svg width="120pt" height="120pt" viewBox="0 0 120 120" version="1.1" xmlns="http://www.w3.org/2000/svg">
<g id="#ffffffff">
<path fill="#ffffff" opacity="1.00" d=" M 49.29 27.59 C 57.23 24.29 66.20 22.32 74.71 24.42 C 82.03 26.28 88.04 32.55 89.38 40.02 C 90.57 46.70 89.23 53.55 87.26 59.95 C 86.85 59.61 86.03 58.91 85.62 58.57 C 84.85 50.28 83.11 41.20 76.53 35.44 C 69.21 28.72 58.73 27.92 49.29 27.59 Z" />
<path fill="#ffffff" opacity="1.00" d=" M 27.31 33.59 C 38.11 32.48 49.04 31.61 59.87 32.70 C 67.26 33.38 74.04 37.90 77.68 44.33 C 80.07 48.43 80.79 53.22 81.16 57.87 C 71.65 56.86 62.49 62.80 58.92 71.53 C 58.67 69.21 58.61 66.87 58.56 64.54 C 49.33 71.36 39.66 77.56 29.88 83.55 C 36.00 73.83 41.97 63.99 48.90 54.82 C 40.47 54.56 32.05 54.20 23.62 54.24 C 30.63 49.57 38.32 46.05 45.90 42.43 C 45.87 42.23 45.82 41.84 45.79 41.64 C 39.72 38.74 33.47 36.25 27.31 33.59 Z" />
<path fill="#ffffff" opacity="1.00" d=" M 75.27 61.40 C 82.02 59.96 89.44 62.86 93.35 68.56 C 97.55 74.33 97.62 82.68 93.60 88.57 C 89.72 94.59 81.95 97.69 74.98 96.04 C 67.20 94.43 61.12 87.00 61.18 79.03 C 60.82 70.77 67.17 62.94 75.27 61.40 M 74.22 76.37 C 73.45 74.00 74.50 71.28 73.27 69.07 C 72.84 69.24 71.97 69.57 71.53 69.74 C 71.15 73.24 71.46 76.79 71.45 80.31 C 70.59 78.59 70.10 76.37 68.29 75.36 C 65.89 78.45 69.36 81.82 70.17 84.93 C 71.40 88.50 75.84 88.47 78.93 87.91 C 77.30 84.35 80.12 81.38 80.60 77.96 C 81.07 78.16 82.02 78.56 82.49 78.76 C 81.93 76.11 83.94 72.05 80.73 70.75 C 80.47 72.92 80.70 75.11 80.53 77.28 C 79.67 74.23 81.42 69.43 77.88 67.88 C 77.33 70.68 77.84 73.53 77.60 76.35 C 76.87 73.29 78.11 69.83 76.07 67.13 C 72.77 68.87 75.10 73.39 74.22 76.37 M 84.16 75.67 C 84.31 77.61 84.93 79.95 83.06 81.31 C 82.58 80.41 82.07 79.54 81.54 78.68 C 80.51 80.68 79.30 82.69 78.92 84.93 C 78.93 87.32 81.02 88.75 82.71 90.04 C 82.45 87.86 81.91 85.55 83.41 83.68 C 83.68 84.32 84.23 85.61 84.51 86.26 C 85.50 84.21 87.59 82.43 87.20 79.94 C 86.81 78.15 85.38 76.92 84.16 75.67 M 88.54 80.49 C 89.10 84.54 83.66 86.08 84.71 90.26 C 86.74 89.78 88.97 89.01 89.91 86.96 C 91.18 84.73 89.93 82.30 88.54 80.49 Z" />
</g>
</svg>
