<?xml version="1.0" encoding="UTF-8" ?>
<!DOCTYPE svg PUBLIC "-//W3C//DTD SVG 1.1//EN" "http://www.w3.org/Graphics/SVG/1.1/DTD/svg11.dtd">
<svg width="120pt" height="120pt" viewBox="0 0 120 120" version="1.1" xmlns="http://www.w3.org/2000/svg">
<g id="#ffffffff">
<path fill="#ffffff" opacity="1.00" d=" M 52.15 37.10 C 57.98 35.48 61.12 29.90 63.56 24.82 C 64.17 30.03 65.49 35.74 69.98 39.02 C 75.39 43.37 82.75 42.56 89.18 41.81 C 86.47 44.21 83.42 46.43 81.65 49.68 C 80.35 52.12 80.34 54.96 80.07 57.64 C 77.28 57.85 74.51 58.15 71.73 58.39 C 70.96 53.67 73.99 50.01 77.19 47.03 C 73.82 47.36 69.96 48.27 66.99 46.08 C 63.10 43.39 62.83 38.25 62.52 33.97 C 60.83 37.78 59.09 42.45 54.67 43.74 C 50.07 45.11 45.67 42.47 41.85 40.20 C 43.70 44.14 46.33 48.78 44.13 53.11 C 42.46 56.62 38.40 57.56 35.01 58.56 C 38.71 59.59 43.17 60.10 45.50 63.54 C 47.97 67.33 46.36 71.98 45.18 75.92 C 48.56 71.84 53.45 68.58 59.00 70.12 C 58.68 72.58 58.29 75.02 57.94 77.47 C 55.23 77.29 52.43 76.90 49.79 77.76 C 45.97 78.99 43.06 81.89 40.05 84.41 C 40.75 80.65 41.72 76.84 41.23 72.99 C 40.77 68.45 38.00 64.19 33.94 62.07 C 31.37 60.72 28.57 59.89 25.86 58.86 C 30.40 57.25 35.45 55.13 37.41 50.34 C 40.02 44.61 37.58 38.32 35.02 33.05 C 40.11 36.07 46.12 39.10 52.15 37.10 Z" />
<path fill="#ffffff" opacity="1.00" d=" M 74.39 61.50 C 81.40 59.59 89.40 62.49 93.43 68.57 C 98.16 75.17 97.44 84.95 91.79 90.79 C 86.46 96.78 76.86 98.11 70.02 94.00 C 64.12 90.72 60.57 83.82 61.23 77.12 C 61.73 69.81 67.30 63.26 74.39 61.50 M 72.74 67.80 C 70.98 69.52 72.08 71.99 72.40 74.04 C 69.46 79.02 70.74 84.96 71.32 90.37 C 74.28 88.73 76.95 86.63 79.43 84.34 C 81.52 85.70 83.70 86.92 85.94 88.00 C 87.40 82.56 87.50 76.87 86.58 71.33 C 85.14 71.31 83.71 71.29 82.28 71.27 C 82.14 71.93 81.87 73.25 81.73 73.91 C 82.58 74.99 83.44 76.06 84.30 77.14 C 84.20 78.32 84.11 79.51 84.03 80.70 C 82.54 78.26 80.29 76.52 77.30 77.21 C 79.67 74.79 80.13 71.43 80.00 68.18 C 77.67 67.61 74.99 66.20 72.74 67.80 Z" />
<path fill="#ffffff" opacity="1.00" d=" M 77.27 79.26 C 77.77 79.81 77.77 79.81 77.27 79.26 Z" />
<path fill="#ffffff" opacity="1.00" d=" M 77.23 81.22 C 77.78 81.72 77.78 81.72 77.23 81.22 Z" />
</g>
</svg>
