<?xml version="1.0" encoding="UTF-8" ?>
<!DOCTYPE svg PUBLIC "-//W3C//DTD SVG 1.1//EN" "http://www.w3.org/Graphics/SVG/1.1/DTD/svg11.dtd">
<svg width="120pt" height="120pt" viewBox="0 0 120 120" version="1.1" xmlns="http://www.w3.org/2000/svg">
<g id="#ffffffff">
<path fill="#ffffff" opacity="1.00" d=" M 62.71 23.60 C 67.48 23.60 72.24 23.60 77.01 23.60 C 77.00 34.97 77.01 46.33 77.00 57.70 C 71.47 58.25 66.31 60.98 62.70 65.20 C 62.73 51.33 62.70 37.47 62.71 23.60 Z" />
<path fill="#ffffff" opacity="1.00" d=" M 43.00 41.00 C 47.81 41.00 52.63 41.00 57.44 41.00 C 57.44 58.37 57.45 75.74 57.44 93.11 C 52.62 93.16 47.81 93.12 42.99 93.13 C 42.99 75.76 42.99 58.38 43.00 41.00 Z" />
<path fill="#ffffff" opacity="1.00" d=" M 23.42 58.33 C 28.20 58.34 32.98 58.33 37.77 58.33 C 37.76 69.94 37.76 81.54 37.77 93.14 C 32.98 93.13 28.20 93.12 23.42 93.14 C 23.42 81.54 23.42 69.93 23.42 58.33 Z" />
<path fill="#ffffff" opacity="1.00" d=" M 74.35 61.46 C 81.14 59.62 88.83 62.31 93.00 67.98 C 97.39 73.62 97.74 81.96 93.93 87.99 C 91.01 92.84 85.62 96.10 79.95 96.37 C 73.85 96.83 67.65 93.85 64.21 88.80 C 60.44 83.45 59.98 75.92 63.22 70.21 C 65.53 65.93 69.65 62.70 74.35 61.46 M 71.83 69.09 C 70.46 71.16 73.45 73.14 72.24 75.20 C 71.86 75.52 71.11 76.15 70.74 76.46 C 70.30 81.15 70.52 85.90 71.31 90.54 C 74.38 88.68 77.70 86.66 79.36 83.35 C 80.22 86.16 83.57 86.66 85.89 87.83 C 87.35 82.39 87.66 76.58 86.29 71.09 C 84.80 71.23 83.32 71.38 81.84 71.56 C 81.88 72.42 81.95 74.13 81.99 74.99 C 82.79 75.48 83.58 75.99 84.37 76.50 C 84.26 77.68 84.03 80.04 83.92 81.22 C 83.37 78.84 81.38 77.45 79.40 76.32 C 79.21 76.74 78.83 77.57 78.64 77.98 C 77.99 77.49 76.71 76.51 76.07 76.02 C 76.71 76.04 77.98 76.08 78.62 76.10 C 79.73 73.84 80.04 71.32 80.15 68.84 C 77.77 67.05 73.53 65.80 71.83 69.09 Z" />
<path fill="#ffffff" opacity="1.00" d=" M 77.20 79.17 L 77.82 79.19 L 77.80 79.81 L 77.18 79.79 L 77.20 79.17 Z" />
<path fill="#ffffff" opacity="1.00" d=" M 77.16 81.16 L 77.78 81.14 L 77.79 81.76 L 77.17 81.78 L 77.16 81.16 Z" />
</g>
</svg>
