<?xml version="1.0" encoding="UTF-8" ?>
<!DOCTYPE svg PUBLIC "-//W3C//DTD SVG 1.1//EN" "http://www.w3.org/Graphics/SVG/1.1/DTD/svg11.dtd">
<svg width="120pt" height="120pt" viewBox="0 0 120 120" version="1.1" xmlns="http://www.w3.org/2000/svg">
<g id="#ffffffff">
<path fill="#ffffff" opacity="1.00" d=" M 43.04 23.31 C 54.35 23.35 65.66 23.35 76.97 23.31 C 83.57 33.13 90.05 43.03 96.59 52.88 C 94.71 55.75 92.84 58.62 90.98 61.50 C 83.29 56.37 72.40 56.64 65.39 62.85 C 62.44 62.82 59.50 62.70 56.56 62.58 C 59.36 55.71 62.16 48.84 64.96 41.97 C 59.40 47.24 53.77 52.42 48.21 57.68 C 47.46 55.35 46.72 53.01 45.96 50.68 C 44.88 53.10 43.87 55.55 42.83 57.99 C 40.13 53.87 37.51 49.71 34.80 45.60 C 34.62 50.16 34.48 54.71 34.32 59.27 C 32.53 58.00 30.76 56.71 28.97 55.45 C 34.19 63.48 39.50 71.45 44.75 79.47 C 49.13 79.46 53.52 79.48 57.90 79.46 C 57.98 80.21 58.14 81.72 58.22 82.47 C 53.14 82.46 48.06 82.47 42.99 82.47 C 36.47 72.60 29.94 62.73 23.42 52.87 C 29.97 43.03 36.44 33.12 43.04 23.31 Z" />
<path fill="#ffffff" opacity="1.00" d=" M 75.38 61.49 C 85.15 59.14 95.52 66.79 96.44 76.72 C 97.90 86.48 89.78 96.33 79.89 96.62 C 70.18 97.37 61.04 88.73 61.22 79.00 C 60.93 70.75 67.29 62.99 75.38 61.49 M 66.55 72.68 C 65.99 77.33 66.66 83.69 71.48 85.92 C 71.21 83.20 70.62 80.51 70.74 77.77 C 71.56 77.84 73.20 77.97 74.01 78.04 C 75.47 79.30 77.32 79.03 79.01 78.48 C 80.65 79.17 82.50 79.22 83.84 77.91 C 84.65 77.88 86.29 77.83 87.11 77.80 C 87.24 80.61 86.19 83.38 86.70 86.16 C 90.92 83.19 91.85 77.61 91.39 72.81 C 89.45 71.05 86.96 73.21 84.91 73.68 C 81.24 73.95 77.54 73.78 73.86 73.78 C 71.41 73.76 68.87 71.04 66.55 72.68 Z" />
</g>
</svg>
