<?xml version="1.0" encoding="UTF-8" ?>
<!DOCTYPE svg PUBLIC "-//W3C//DTD SVG 1.1//EN" "http://www.w3.org/Graphics/SVG/1.1/DTD/svg11.dtd">
<svg width="120pt" height="120pt" viewBox="0 0 120 120" version="1.1" xmlns="http://www.w3.org/2000/svg">
<g id="#ffffffff">
<path fill="#ffffff" opacity="1.00" d=" M 0.00 0.00 L 0.36 0.00 C 0.27 0.09 0.09 0.27 0.00 0.36 L 0.00 0.00 Z" />
<path fill="#ffffff" opacity="1.00" d=" M 29.41 26.34 C 40.59 24.79 51.88 22.92 63.20 23.63 C 70.88 24.01 78.09 29.00 80.99 36.13 C 83.84 43.07 82.80 50.71 82.59 57.99 C 79.22 57.68 75.88 58.05 72.55 58.50 C 66.40 60.76 61.75 65.57 58.90 71.36 C 58.80 66.43 59.05 61.49 59.12 56.56 C 49.50 64.10 39.13 70.61 29.06 77.52 C 29.19 76.63 29.53 75.84 30.08 75.13 C 36.52 65.69 42.77 56.11 49.71 47.03 C 41.05 47.28 32.39 47.47 23.75 48.01 C 31.42 42.46 40.01 38.37 48.36 33.98 C 42.14 31.22 35.50 29.33 29.41 26.34 Z" />
<path fill="#ffffff" opacity="1.00" d=" M 75.52 61.43 C 84.31 59.48 93.79 65.43 95.95 74.14 C 98.17 81.81 94.44 90.65 87.39 94.39 C 81.00 98.05 72.43 96.97 67.02 92.03 C 62.21 87.79 60.10 80.82 61.66 74.61 C 63.22 68.04 68.87 62.64 75.52 61.43 M 70.61 70.27 C 70.38 71.33 70.14 72.39 69.91 73.46 C 69.51 73.17 68.71 72.61 68.32 72.33 C 68.30 74.01 67.76 75.58 66.90 77.02 C 67.91 75.08 69.13 74.76 70.55 76.03 C 70.78 74.91 71.00 73.78 71.22 72.66 C 72.83 72.53 74.32 70.34 72.66 69.18 C 72.11 69.89 72.01 72.10 70.61 70.27 M 85.67 70.11 C 85.50 71.45 84.60 73.24 86.59 73.62 C 86.78 74.74 86.99 75.86 87.20 76.98 C 87.57 76.57 88.31 75.76 88.68 75.35 C 89.03 75.78 89.74 76.63 90.09 77.05 C 89.88 75.87 89.72 74.69 89.59 73.50 C 87.06 74.40 87.38 71.04 85.67 70.11 M 74.42 72.22 C 72.26 76.80 70.61 81.60 69.15 86.45 C 72.56 88.67 76.83 89.48 80.81 88.67 C 80.51 86.96 80.30 85.24 80.19 83.51 C 82.57 81.77 86.78 80.52 85.38 76.71 C 83.37 76.35 81.54 77.49 79.63 77.91 C 78.95 78.34 78.22 78.62 77.44 78.74 C 77.88 77.59 78.38 76.44 78.79 75.27 L 79.25 77.70 C 80.20 77.28 82.10 76.46 83.05 76.04 C 83.04 75.22 83.02 73.59 83.00 72.77 C 80.17 72.30 77.29 72.03 74.42 72.22 M 90.09 77.05 C 90.64 77.47 90.64 77.47 90.09 77.05 Z" />
</g>
</svg>
