<?xml version="1.0" encoding="UTF-8" ?>
<!DOCTYPE svg PUBLIC "-//W3C//DTD SVG 1.1//EN" "http://www.w3.org/Graphics/SVG/1.1/DTD/svg11.dtd">
<svg width="120pt" height="120pt" viewBox="0 0 120 120" version="1.1" xmlns="http://www.w3.org/2000/svg">
<g id="#ffffffff">
<path fill="#ffffff" opacity="1.00" d=" M 48.35 33.59 C 51.16 30.35 53.91 27.06 56.69 23.81 C 58.85 28.78 60.80 33.85 62.97 38.82 C 67.26 36.51 71.63 34.36 75.92 32.06 C 74.98 36.24 73.65 40.35 73.00 44.59 C 77.62 44.78 82.22 45.23 86.82 45.54 C 83.38 49.01 79.92 52.46 76.47 55.91 L 77.91 57.47 C 75.49 57.75 73.10 58.23 70.81 59.06 C 69.54 57.88 68.34 56.64 67.10 55.44 C 69.03 53.74 70.92 52.00 72.81 50.26 C 69.87 50.41 66.92 50.57 63.97 50.76 C 64.48 48.50 65.02 46.25 65.53 43.99 C 63.64 44.64 61.76 45.35 59.90 46.09 C 58.23 43.09 56.81 39.96 55.29 36.89 C 53.95 39.13 53.05 41.59 52.02 43.98 C 50.10 42.76 48.20 41.54 46.27 40.34 C 46.97 42.93 47.66 45.52 48.33 48.13 C 46.42 48.13 44.51 48.13 42.60 48.12 C 44.37 49.86 46.12 51.62 47.89 53.37 C 45.27 54.87 42.61 56.33 39.94 57.73 C 42.35 59.16 45.26 59.26 47.89 60.13 C 46.43 63.68 44.03 66.92 43.22 70.68 C 46.57 67.91 50.11 65.37 53.58 62.73 C 54.27 64.27 54.98 65.81 55.68 67.35 C 56.89 66.33 58.10 65.31 59.31 64.28 C 60.17 64.88 61.04 65.48 61.90 66.09 C 58.43 70.47 58.68 76.47 55.15 80.81 C 54.08 78.25 53.05 75.68 52.02 73.10 C 45.26 77.41 38.56 81.80 31.78 86.07 C 33.87 79.00 35.83 71.88 38.01 64.83 C 33.20 62.96 28.29 61.37 23.45 59.57 C 28.11 56.80 32.80 54.08 37.45 51.29 C 34.90 48.68 32.23 46.18 29.77 43.49 C 33.22 43.13 36.66 42.79 40.10 42.40 C 38.73 36.36 37.26 30.34 35.93 24.29 C 40.10 27.34 44.22 30.47 48.35 33.59 Z" />
<path fill="#ffffff" opacity="1.00" d=" M 64.98 59.60 C 66.41 59.58 67.83 59.61 69.26 59.67 C 68.62 60.05 67.34 60.82 66.70 61.20 C 66.68 61.58 66.63 62.34 66.60 62.71 C 65.94 61.74 65.51 60.64 64.98 59.60 Z" />
<path fill="#ffffff" opacity="1.00" d=" M 74.24 61.38 C 81.14 59.48 88.97 62.21 93.15 68.02 C 97.88 74.23 97.64 83.59 92.66 89.59 C 87.95 95.65 79.11 97.89 72.06 94.86 C 65.41 92.18 60.84 85.14 61.18 77.96 C 61.23 70.34 66.89 63.28 74.24 61.38 M 68.00 75.14 C 67.99 76.65 67.99 78.16 67.99 79.67 C 71.60 77.67 75.22 75.70 78.82 73.69 C 82.47 75.63 86.06 77.67 89.68 79.67 C 89.69 78.16 89.70 76.64 89.70 75.13 C 86.09 73.13 82.45 71.17 78.83 69.19 C 75.22 71.17 71.62 73.17 68.00 75.14 M 67.99 81.91 C 67.99 83.43 67.99 84.94 68.00 86.45 C 71.61 84.48 75.24 82.53 78.83 80.52 C 82.47 82.45 86.06 84.46 89.68 86.44 C 89.69 84.98 89.72 83.52 89.75 82.06 C 86.19 79.90 82.49 77.98 78.84 75.97 C 75.23 77.95 71.61 79.94 67.99 81.91 Z" />
</g>
</svg>
