<?xml version="1.0" encoding="UTF-8" ?>
<!DOCTYPE svg PUBLIC "-//W3C//DTD SVG 1.1//EN" "http://www.w3.org/Graphics/SVG/1.1/DTD/svg11.dtd">
<svg width="120pt" height="120pt" viewBox="0 0 120 120" version="1.1" xmlns="http://www.w3.org/2000/svg">
<g id="#ffffffff">
<path fill="#ffffff" opacity="1.00" d=" M 51.97 30.86 C 56.58 29.87 60.16 26.46 63.66 23.49 C 65.19 27.85 66.58 32.72 70.22 35.82 C 74.20 38.24 79.04 38.42 83.57 38.77 C 81.77 42.46 79.88 46.25 79.47 50.40 C 79.21 53.22 80.87 55.68 82.19 58.03 C 75.22 56.99 67.88 59.52 63.19 64.82 L 62.50 63.35 C 63.85 62.56 65.20 61.78 66.55 61.00 C 66.25 60.44 65.65 59.31 65.35 58.74 C 64.17 59.42 63.00 60.10 61.83 60.78 C 59.23 53.98 56.47 47.23 53.21 40.71 C 51.57 36.45 46.41 35.87 42.83 33.91 C 42.48 37.22 41.91 40.56 42.22 43.89 C 46.33 50.97 51.48 57.39 56.61 63.75 C 55.43 64.44 54.24 65.13 53.06 65.83 C 53.39 66.34 54.04 67.38 54.36 67.90 C 55.84 67.35 57.16 66.47 58.52 65.67 C 59.03 66.36 60.06 67.73 60.58 68.41 C 58.76 71.83 57.87 75.63 57.85 79.49 C 53.53 80.94 49.99 83.92 46.65 86.91 C 45.10 82.62 43.81 77.83 40.25 74.71 C 36.28 72.11 31.30 72.00 26.72 71.64 C 28.71 67.39 31.14 62.94 30.78 58.10 C 29.64 53.62 26.35 50.13 23.46 46.68 C 27.87 45.12 32.89 43.78 35.90 39.94 C 38.16 35.98 38.37 31.26 38.73 26.81 C 42.91 28.72 47.23 31.09 51.97 30.86 Z" />
<path fill="#ffffff" opacity="1.00" d=" M 75.33 61.40 C 85.37 59.03 96.05 67.14 96.51 77.41 C 97.06 83.73 93.92 90.20 88.58 93.63 C 83.13 97.29 75.58 97.49 69.95 94.10 C 64.33 90.90 60.78 84.41 61.19 77.94 C 61.39 70.04 67.59 62.86 75.33 61.40 M 68.07 75.40 C 68.04 76.91 68.03 78.42 68.01 79.94 C 71.65 77.98 75.26 75.97 78.89 73.99 C 82.52 75.96 86.13 77.96 89.75 79.94 C 89.74 78.43 89.74 76.94 89.74 75.44 C 86.12 73.45 82.51 71.44 78.90 69.45 C 75.28 71.42 71.70 73.45 68.07 75.40 M 68.02 82.24 C 68.03 83.73 68.03 85.22 68.03 86.72 C 71.66 84.75 75.27 82.75 78.90 80.78 C 82.52 82.76 86.13 84.73 89.73 86.73 C 89.74 85.23 89.75 83.74 89.77 82.25 C 86.15 80.25 82.52 78.28 78.90 76.28 C 75.27 78.26 71.65 80.26 68.02 82.24 Z" />
</g>
</svg>
