<?xml version="1.0" encoding="UTF-8" ?>
<!DOCTYPE svg PUBLIC "-//W3C//DTD SVG 1.1//EN" "http://www.w3.org/Graphics/SVG/1.1/DTD/svg11.dtd">
<svg width="120pt" height="120pt" viewBox="0 0 120 120" version="1.1" xmlns="http://www.w3.org/2000/svg">
<g id="#ffffffff">
<path fill="#ffffff" opacity="1.00" d=" M 24.27 29.47 C 34.25 30.94 44.64 28.90 53.21 23.54 C 61.85 28.84 72.21 30.97 82.24 29.48 C 83.72 38.95 83.24 48.85 79.69 57.83 C 72.19 57.57 64.91 61.45 60.88 67.76 C 61.20 66.33 61.51 64.90 61.83 63.46 C 64.77 61.57 67.01 58.64 70.33 57.35 C 72.05 56.58 73.68 55.62 75.29 54.65 C 74.65 51.68 73.50 48.87 72.35 46.07 C 70.72 46.14 69.10 46.25 67.48 46.41 C 66.63 47.39 65.77 48.37 64.91 49.35 C 64.99 50.59 65.09 51.84 65.20 53.09 C 64.50 53.38 63.10 53.96 62.41 54.25 C 62.50 50.78 64.11 47.59 64.32 44.13 C 61.70 42.82 58.97 41.77 56.22 40.80 C 55.17 42.00 54.13 43.21 53.11 44.43 C 53.30 45.86 53.51 47.29 53.71 48.73 C 54.64 49.42 55.58 50.11 56.51 50.79 C 55.89 52.88 55.29 54.98 54.42 56.97 C 54.21 56.97 53.78 56.95 53.57 56.95 C 52.27 54.29 52.21 50.36 48.69 49.59 C 50.07 47.50 51.56 45.39 52.22 42.93 C 52.96 39.74 51.65 35.94 48.72 34.30 C 45.15 32.43 40.31 34.29 38.85 38.02 C 37.78 40.85 38.67 43.90 39.44 46.69 C 36.54 48.21 33.79 49.99 31.13 51.89 C 35.66 59.29 42.01 65.42 49.30 70.08 C 50.51 69.70 51.73 69.31 52.96 68.94 C 54.94 69.97 57.00 70.83 59.14 71.48 C 57.80 75.25 57.60 79.30 58.23 83.22 C 56.62 84.55 54.94 85.78 53.22 86.97 C 47.34 82.90 41.68 78.44 36.81 73.18 C 30.86 66.78 26.39 58.88 24.52 50.31 C 23.04 43.47 23.24 36.37 24.27 29.47 Z" />
<path fill="#ffffff" opacity="1.00" d=" M 75.21 61.36 C 81.76 59.88 88.94 62.60 92.93 67.97 C 97.21 73.40 97.75 81.39 94.33 87.38 C 91.49 92.58 85.90 96.19 79.95 96.46 C 73.85 96.88 67.64 93.85 64.25 88.76 C 60.52 83.43 60.12 75.98 63.31 70.31 C 65.75 65.81 70.19 62.42 75.21 61.36 M 68.04 75.40 C 68.03 76.92 68.03 78.44 68.03 79.96 C 71.67 77.97 75.31 75.96 78.95 73.96 C 82.51 75.96 86.07 77.97 89.65 79.96 C 89.64 78.44 89.64 76.93 89.64 75.42 C 86.10 73.44 82.53 71.51 78.98 69.52 C 75.33 71.46 71.71 73.48 68.04 75.40 M 68.03 82.16 C 68.03 83.65 68.03 85.14 68.03 86.63 C 71.70 84.72 75.31 82.70 78.99 80.82 C 82.53 82.78 86.11 84.65 89.62 86.65 C 89.64 85.17 89.65 83.68 89.67 82.20 C 86.12 80.15 82.52 78.21 78.94 76.21 C 75.30 78.20 71.66 80.17 68.03 82.16 Z" />
</g>
</svg>
