<?xml version="1.0" encoding="UTF-8" ?>
<!DOCTYPE svg PUBLIC "-//W3C//DTD SVG 1.1//EN" "http://www.w3.org/Graphics/SVG/1.1/DTD/svg11.dtd">
<svg width="120pt" height="120pt" viewBox="0 0 120 120" version="1.1" xmlns="http://www.w3.org/2000/svg">
<g id="#ffffffff">
<path fill="#ffffff" opacity="1.00" d=" M 24.33 29.52 C 34.31 30.96 44.73 28.98 53.25 23.53 C 61.81 28.86 72.15 31.02 82.13 29.52 C 83.79 38.95 83.23 48.85 79.66 57.80 C 71.92 57.53 64.22 61.73 60.53 68.57 C 57.98 73.00 57.47 78.29 58.33 83.26 C 56.66 84.51 54.97 85.71 53.26 86.90 C 46.42 82.18 39.88 76.90 34.55 70.48 C 29.78 64.62 26.14 57.73 24.52 50.32 C 23.01 43.49 23.26 36.40 24.33 29.52 Z" />
<path fill="#ffffff" opacity="1.00" d=" M 75.33 61.42 C 79.71 60.56 84.44 61.34 88.22 63.76 C 93.39 66.90 96.70 72.86 96.56 78.91 C 96.58 85.21 92.92 91.37 87.36 94.33 C 82.05 97.25 75.20 97.23 69.98 94.11 C 64.35 90.91 60.79 84.41 61.19 77.94 C 61.38 70.05 67.59 62.88 75.33 61.42 M 68.01 75.40 C 68.00 76.90 68.00 78.40 67.99 79.90 C 71.61 77.93 75.22 75.94 78.84 73.96 C 82.46 75.94 86.07 77.93 89.69 79.90 C 89.69 78.41 89.69 76.91 89.69 75.41 C 86.07 73.44 82.45 71.46 78.84 69.47 C 75.23 71.44 71.63 73.44 68.01 75.40 M 68.00 82.18 C 67.99 83.70 67.99 85.22 67.99 86.74 C 71.59 84.74 75.21 82.78 78.79 80.75 C 82.44 82.72 86.07 84.72 89.68 86.75 C 89.69 85.25 89.70 83.74 89.71 82.23 C 86.10 80.22 82.46 78.25 78.84 76.26 C 75.23 78.24 71.62 80.23 68.00 82.18 Z" />
</g>
</svg>
