<?xml version="1.0" encoding="UTF-8" ?>
<!DOCTYPE svg PUBLIC "-//W3C//DTD SVG 1.1//EN" "http://www.w3.org/Graphics/SVG/1.1/DTD/svg11.dtd">
<svg width="120pt" height="120pt" viewBox="0 0 120 120" version="1.1" xmlns="http://www.w3.org/2000/svg">
<g id="#ffffffff">
<path fill="#ffffff" opacity="1.00" d=" M 56.56 26.73 C 58.85 26.73 61.15 26.73 63.44 26.73 C 63.44 29.35 63.45 31.96 63.44 34.58 C 74.42 36.16 83.52 45.34 85.20 56.28 C 87.79 56.26 90.39 56.27 92.99 56.27 C 92.98 58.31 92.99 60.36 93.01 62.40 C 86.92 57.31 78.15 55.79 70.80 58.94 C 70.80 58.27 70.80 56.93 70.80 56.26 C 73.45 56.27 76.11 56.27 78.76 56.26 C 77.26 48.77 71.00 42.70 63.46 41.46 C 63.44 43.95 63.44 46.44 63.45 48.94 C 61.15 48.93 58.85 48.93 56.55 48.94 C 56.56 46.44 56.56 43.95 56.55 41.46 C 49.05 42.55 42.91 48.79 41.79 56.25 C 44.26 56.28 46.73 56.26 49.20 56.26 C 49.18 58.57 49.21 60.88 49.19 63.19 C 46.72 63.21 44.25 63.19 41.79 63.21 C 42.77 70.74 49.11 76.82 56.54 77.95 C 56.56 75.49 56.55 73.04 56.55 70.58 C 57.25 70.55 58.64 70.49 59.34 70.47 C 57.60 75.39 57.39 80.93 59.14 85.88 C 60.08 88.59 61.85 90.89 63.42 93.25 C 61.13 93.27 58.84 93.27 56.56 93.27 C 56.56 90.46 56.56 87.66 56.55 84.85 C 45.62 83.23 36.53 74.09 34.86 63.18 C 32.24 63.20 29.63 63.20 27.01 63.20 C 27.01 60.89 27.01 58.58 27.01 56.27 C 29.64 56.27 32.26 56.26 34.89 56.27 C 36.51 45.35 45.61 36.17 56.56 34.58 C 56.55 31.96 56.56 29.35 56.56 26.73 Z" />
<path fill="#ffffff" opacity="1.00" d=" M 58.16 56.17 C 59.95 55.45 62.38 55.85 63.36 57.65 C 64.86 60.18 63.17 64.17 60.03 64.18 C 55.93 64.37 54.52 57.85 58.16 56.17 Z" />
<path fill="#ffffff" opacity="1.00" d=" M 76.36 60.46 C 84.89 59.00 93.71 64.52 96.43 72.66 C 99.42 79.89 96.18 88.58 90.11 93.17 C 84.38 97.65 75.88 98.07 69.70 94.28 C 64.51 91.07 60.70 85.23 60.97 79.01 C 60.23 70.05 67.61 61.65 76.36 60.46 M 67.87 75.08 C 67.85 76.67 67.83 78.27 67.80 79.86 C 71.53 77.75 75.37 75.83 79.02 73.56 C 82.81 75.66 86.61 77.76 90.39 79.87 C 90.37 78.28 90.35 76.68 90.31 75.08 C 86.58 73.00 82.83 70.99 79.07 68.97 C 75.33 70.99 71.65 73.13 67.87 75.08 M 67.86 82.15 C 67.85 83.72 67.83 85.28 67.80 86.85 C 71.53 84.74 75.39 82.87 79.02 80.58 C 82.81 82.68 86.61 84.77 90.39 86.87 C 90.37 85.29 90.35 83.72 90.31 82.14 C 86.56 80.09 82.83 77.99 79.07 75.97 C 75.33 78.02 71.64 80.17 67.86 82.15 Z" />
</g>
</svg>
