<?xml version="1.0" encoding="UTF-8" ?>
<!DOCTYPE svg PUBLIC "-//W3C//DTD SVG 1.1//EN" "http://www.w3.org/Graphics/SVG/1.1/DTD/svg11.dtd">
<svg width="120pt" height="120pt" viewBox="0 0 120 120" version="1.1" xmlns="http://www.w3.org/2000/svg">
<g id="#ffffffff">
<path fill="#ffffff" opacity="1.00" d=" M 57.47 23.50 C 73.38 22.09 89.18 32.58 94.43 47.59 C 99.73 61.74 95.05 78.81 83.25 88.26 C 72.74 97.09 57.13 99.11 44.72 93.25 C 30.90 87.07 21.90 71.72 23.57 56.62 C 24.84 39.28 40.10 24.36 57.47 23.50 M 37.67 53.05 C 37.56 56.12 37.55 59.19 37.71 62.25 C 45.31 58.56 52.46 54.01 60.02 50.23 C 67.56 54.03 74.75 58.50 82.34 62.21 C 82.50 59.16 82.49 56.10 82.37 53.05 C 74.98 48.90 67.56 44.80 60.00 40.95 C 52.49 44.85 45.06 48.93 37.67 53.05 M 37.71 67.14 C 37.56 70.17 37.55 73.20 37.70 76.23 C 45.29 72.55 52.47 68.08 60.01 64.28 C 67.57 68.04 74.75 72.52 82.35 76.21 C 82.50 73.17 82.49 70.13 82.34 67.09 C 74.91 63.02 67.54 58.81 60.00 54.94 C 52.49 58.86 45.12 63.03 37.71 67.14 Z" />
</g>
</svg>
