<?xml version="1.0" encoding="UTF-8" ?>
<!DOCTYPE svg PUBLIC "-//W3C//DTD SVG 1.1//EN" "http://www.w3.org/Graphics/SVG/1.1/DTD/svg11.dtd">
<svg width="120pt" height="120pt" viewBox="0 0 120 120" version="1.1" xmlns="http://www.w3.org/2000/svg">
<g id="#ffffffff">
<path fill="#ffffff" opacity="1.00" d=" M 24.36 29.46 C 34.32 30.92 44.74 28.91 53.26 23.48 C 61.81 28.81 72.15 30.98 82.13 29.46 C 83.78 38.92 83.26 48.85 79.63 57.80 C 73.65 57.78 67.61 60.07 63.53 64.51 C 58.83 69.39 56.96 76.60 58.28 83.20 C 56.64 84.46 54.95 85.66 53.26 86.84 C 46.63 82.25 40.27 77.17 35.03 71.01 C 30.04 65.02 26.21 57.96 24.53 50.31 C 23.02 43.46 23.23 36.35 24.36 29.46 M 49.73 38.56 C 46.49 43.73 44.66 49.59 42.66 55.31 C 44.83 54.77 47.02 54.30 49.24 53.99 C 48.48 61.04 48.66 68.16 49.41 75.19 C 53.31 67.66 57.54 60.29 62.24 53.21 C 63.43 51.38 64.94 49.73 65.87 47.73 C 62.95 47.88 60.03 47.90 57.11 47.96 C 59.25 43.95 61.81 40.19 64.37 36.44 C 59.47 36.96 54.50 37.17 49.73 38.56 Z" />
<path fill="#ffffff" opacity="1.00" d=" M 75.35 61.47 C 79.98 60.56 84.96 61.51 88.84 64.21 C 93.65 67.42 96.66 73.13 96.56 78.92 C 96.60 85.23 92.95 91.41 87.37 94.37 C 81.83 97.45 74.60 97.24 69.30 93.74 C 64.04 90.43 60.81 84.18 61.19 77.96 C 61.40 70.07 67.61 62.91 75.35 61.47 M 68.09 75.34 C 68.02 76.89 67.98 78.45 67.98 80.01 C 71.61 78.03 75.22 76.01 78.84 74.01 C 82.46 76.01 86.07 78.02 89.70 80.01 C 89.69 78.50 89.69 76.98 89.69 75.46 C 86.06 73.51 82.47 71.47 78.84 69.52 C 75.27 71.49 71.72 73.49 68.09 75.34 M 68.00 82.22 C 67.99 83.74 67.99 85.27 67.99 86.79 C 71.62 84.83 75.22 82.80 78.88 80.87 C 82.48 82.86 86.10 84.79 89.68 86.80 C 89.69 85.29 89.69 83.78 89.70 82.28 C 86.09 80.27 82.47 78.31 78.86 76.31 C 75.23 78.26 71.64 80.29 68.00 82.22 Z" />
</g>
</svg>
