<?xml version="1.0" encoding="UTF-8" ?>
<!DOCTYPE svg PUBLIC "-//W3C//DTD SVG 1.1//EN" "http://www.w3.org/Graphics/SVG/1.1/DTD/svg11.dtd">
<svg width="120pt" height="120pt" viewBox="0 0 120 120" version="1.1" xmlns="http://www.w3.org/2000/svg">
<g id="#ffffffff">
<path fill="#ffffff" opacity="1.00" d=" M 57.46 23.47 C 72.83 22.17 88.21 31.82 93.88 46.13 C 99.51 59.41 96.20 75.80 85.84 85.84 C 77.49 94.35 64.80 98.32 53.10 95.94 C 40.64 93.65 29.82 84.32 25.57 72.41 C 21.70 61.88 23.05 49.58 29.23 40.20 C 35.33 30.61 46.10 24.19 57.46 23.47 M 64.66 32.59 C 62.27 34.59 63.12 38.25 62.96 41.01 C 66.09 38.35 69.99 37.52 74.03 38.10 C 72.35 34.87 68.63 30.92 64.66 32.59 M 66.21 40.17 C 63.06 42.49 61.64 46.34 59.93 49.73 C 64.99 48.08 70.99 48.11 75.07 51.96 C 77.82 53.65 78.07 57.55 80.86 59.03 C 81.17 53.66 79.65 48.35 77.54 43.46 C 75.60 39.42 70.00 37.49 66.21 40.17 M 54.71 54.95 C 57.62 56.00 60.87 56.57 63.17 58.82 C 68.60 63.21 70.47 71.02 68.47 77.58 C 67.69 79.91 66.18 81.89 65.08 84.07 C 71.07 81.91 74.82 76.09 77.68 70.71 C 81.48 63.79 78.71 53.78 71.18 50.74 C 65.50 47.91 59.00 51.05 54.71 54.95 M 52.40 56.42 C 44.76 57.04 38.87 64.50 39.11 72.00 C 38.69 80.09 45.60 88.27 53.97 87.87 C 62.48 87.86 69.03 79.14 68.14 70.98 C 67.87 62.99 60.67 55.44 52.40 56.42 Z" />
<path fill="#ffffff" opacity="1.00" d=" M 50.39 61.40 C 55.57 60.12 61.01 63.92 62.15 69.00 C 64.18 75.12 59.74 82.92 52.99 83.05 C 47.88 83.52 43.39 79.25 42.57 74.37 C 41.32 68.91 44.80 62.65 50.39 61.40 Z" />
</g>
</svg>
