<?xml version="1.0" encoding="UTF-8" ?>
<!DOCTYPE svg PUBLIC "-//W3C//DTD SVG 1.1//EN" "http://www.w3.org/Graphics/SVG/1.1/DTD/svg11.dtd">
<svg width="120pt" height="120pt" viewBox="0 0 120 120" version="1.1" xmlns="http://www.w3.org/2000/svg">
<g id="#ffffffff">
<path fill="#ffffff" opacity="1.00" d=" M 32.26 27.77 C 36.73 23.58 43.35 23.15 49.16 23.64 C 49.19 25.85 49.28 28.05 49.39 30.26 C 44.76 31.35 40.12 32.43 35.49 33.54 C 34.41 31.62 33.34 29.69 32.26 27.77 Z" />
<path fill="#ffffff" opacity="1.00" d=" M 36.02 35.35 C 41.42 34.07 46.80 32.72 52.20 31.46 C 52.36 31.83 52.68 32.57 52.84 32.94 C 51.64 33.76 50.61 34.99 49.07 35.17 C 45.04 36.16 41.02 37.19 37.00 38.22 C 35.54 38.69 34.11 37.90 32.74 37.54 C 32.87 35.79 34.70 35.74 36.02 35.35 Z" />
<path fill="#ffffff" opacity="1.00" d=" M 36.25 40.73 C 41.51 39.63 46.70 38.26 51.92 36.98 C 52.52 38.91 53.11 40.83 53.67 42.77 C 59.89 43.13 66.42 44.56 71.25 48.73 C 74.02 51.11 75.39 54.59 76.45 57.98 C 75.28 58.22 74.12 58.47 72.95 58.72 C 72.58 57.81 72.20 56.90 71.83 55.99 C 58.59 55.99 45.35 56.04 32.10 55.97 C 28.09 59.32 26.65 65.02 27.96 70.00 C 28.91 76.14 32.59 82.16 38.54 84.53 C 44.97 86.99 52.05 85.75 58.51 84.07 C 58.80 84.93 59.39 86.65 59.69 87.51 C 53.72 89.53 47.24 90.08 41.00 89.30 C 34.44 88.55 28.39 84.15 26.06 77.91 C 23.94 72.16 22.26 65.58 24.59 59.63 C 27.02 53.90 32.02 49.73 37.28 46.66 C 36.94 44.68 36.60 42.70 36.25 40.73 Z" />
<path fill="#ffffff" opacity="1.00" d=" M 76.31 61.38 C 82.76 60.42 89.61 63.31 93.32 68.69 C 97.34 74.23 97.67 82.18 94.03 88.00 C 91.06 93.01 85.48 96.33 79.65 96.55 C 73.62 96.89 67.56 93.81 64.22 88.78 C 60.66 83.65 60.25 76.59 63.05 71.03 C 65.55 65.92 70.64 62.13 76.31 61.38 M 77.27 66.35 C 77.66 68.51 78.02 70.69 77.70 72.88 C 77.09 72.87 75.87 72.86 75.26 72.85 L 75.20 74.19 C 75.73 74.19 76.80 74.19 77.34 74.19 C 76.76 78.44 75.81 82.71 76.06 87.03 C 76.71 88.72 77.93 90.09 78.94 91.57 C 79.92 90.06 81.19 88.69 81.81 86.98 C 81.90 82.75 81.13 78.55 80.46 74.38 C 80.96 74.29 81.96 74.12 82.46 74.03 C 83.36 72.33 80.92 73.08 80.03 72.76 C 79.92 70.68 79.85 68.53 80.67 66.57 C 79.53 66.49 78.40 66.41 77.27 66.35 Z" />
</g>
</svg>
