<?xml version="1.0" encoding="UTF-8" ?>
<!DOCTYPE svg PUBLIC "-//W3C//DTD SVG 1.1//EN" "http://www.w3.org/Graphics/SVG/1.1/DTD/svg11.dtd">
<svg width="120pt" height="120pt" viewBox="0 0 120 120" version="1.1" xmlns="http://www.w3.org/2000/svg">
<g id="#ffffffff">
<path fill="#ffffff" opacity="1.00" d=" M 48.83 23.35 C 50.94 30.12 53.04 36.90 55.15 43.68 C 62.57 38.10 69.97 32.51 77.41 26.96 C 74.09 36.97 70.73 46.97 67.41 56.98 C 71.86 56.88 76.30 56.58 80.74 56.66 C 79.68 58.39 77.57 57.84 75.93 58.18 C 68.54 59.04 61.91 64.30 59.28 71.25 C 58.02 74.17 57.87 77.37 57.73 80.50 C 55.80 80.98 53.88 81.47 51.95 81.96 C 53.04 78.98 54.07 75.98 55.14 73.00 C 54.28 73.00 52.56 73.00 51.71 73.00 C 52.64 69.12 53.58 65.24 54.51 61.36 C 50.64 65.19 46.76 69.01 42.89 72.85 C 41.29 69.57 39.68 66.30 38.11 63.01 C 37.64 65.03 37.28 67.07 36.83 69.09 C 32.37 62.21 27.90 55.33 23.41 48.47 C 25.71 49.15 28.02 49.83 30.31 50.55 C 30.84 45.23 31.37 39.91 31.93 34.59 C 35.84 37.40 39.73 40.23 43.61 43.08 C 45.36 36.50 47.10 29.93 48.83 23.35 Z" />
<path fill="#ffffff" opacity="1.00" d=" M 78.34 43.38 C 82.66 42.82 86.97 42.10 91.28 41.43 C 88.52 44.38 86.06 47.62 83.12 50.39 C 80.46 50.95 77.72 50.79 75.02 51.00 C 76.12 48.45 77.25 45.93 78.34 43.38 Z" />
<path fill="#ffffff" opacity="1.00" d=" M 76.30 61.39 C 82.77 60.37 89.59 63.34 93.31 68.72 C 97.48 74.44 97.67 82.74 93.70 88.62 C 90.56 93.53 84.83 96.63 79.01 96.61 C 72.91 96.76 66.95 93.39 63.76 88.23 C 60.20 82.72 60.27 75.19 63.73 69.65 C 66.42 65.21 71.16 62.10 76.30 61.39 M 66.22 78.98 C 66.04 82.04 68.80 84.91 71.89 84.67 C 74.84 84.73 76.85 82.32 78.87 80.53 C 80.73 82.15 82.46 84.42 85.11 84.62 C 88.70 85.16 92.13 81.55 91.39 77.98 C 91.13 75.29 88.61 73.16 85.92 73.32 C 83.01 73.20 80.91 75.47 78.91 77.24 C 76.89 75.56 74.85 73.30 72.00 73.32 C 68.96 73.22 66.16 75.93 66.22 78.98 Z" />
<path fill="#ffffff" opacity="1.00" d=" M 70.19 81.82 C 67.77 80.43 68.36 76.51 70.97 75.70 C 73.71 74.92 75.51 77.52 77.36 79.02 C 75.47 80.77 73.00 83.31 70.19 81.82 Z" />
<path fill="#ffffff" opacity="1.00" d=" M 80.28 79.00 C 82.12 77.46 84.19 74.75 86.92 75.82 C 89.67 76.68 89.75 81.10 86.98 81.97 C 84.26 83.20 82.18 80.46 80.28 79.00 Z" />
</g>
</svg>
