<?xml version="1.0" encoding="UTF-8" ?>
<!DOCTYPE svg PUBLIC "-//W3C//DTD SVG 1.1//EN" "http://www.w3.org/Graphics/SVG/1.1/DTD/svg11.dtd">
<svg width="120pt" height="120pt" viewBox="0 0 120 120" version="1.1" xmlns="http://www.w3.org/2000/svg">
<g id="#ffffffff">
<path fill="#ffffff" opacity="1.00" d=" M 78.35 33.32 C 82.25 29.99 86.23 26.75 90.15 23.44 C 89.89 25.84 89.64 28.25 89.40 30.65 C 91.80 31.37 94.19 32.10 96.57 32.86 C 92.05 35.29 87.54 37.72 83.01 40.14 C 81.87 39.81 80.73 39.47 79.60 39.14 C 71.10 44.87 62.50 50.43 53.92 56.02 C 53.32 56.09 52.12 56.23 51.52 56.30 C 52.52 54.40 54.41 53.32 56.11 52.15 C 63.45 47.14 70.74 42.05 78.07 37.03 C 78.17 35.79 78.26 34.56 78.35 33.32 Z" />
<path fill="#ffffff" opacity="1.00" d=" M 26.70 42.69 C 31.32 33.74 40.84 27.45 50.96 27.08 C 60.10 26.48 69.11 30.80 74.95 37.74 C 73.62 38.68 72.29 39.62 70.96 40.55 C 66.38 35.51 59.91 31.98 53.00 31.95 C 43.70 31.57 34.58 37.25 30.67 45.66 C 26.20 54.70 28.33 66.41 35.71 73.28 C 41.47 78.90 50.01 81.10 57.83 79.44 C 58.09 81.05 58.33 82.66 58.56 84.28 C 54.43 85.00 50.15 85.21 46.05 84.21 C 35.30 81.87 26.34 72.85 24.09 62.07 C 22.70 55.57 23.55 48.57 26.70 42.69 Z" />
<path fill="#ffffff" opacity="1.00" d=" M 37.83 46.85 C 41.31 41.09 48.43 37.88 55.07 39.04 C 59.00 39.54 62.44 41.75 65.29 44.41 C 63.97 45.36 62.64 46.31 61.32 47.26 C 59.15 45.63 56.78 44.09 54.01 43.85 C 48.97 43.04 43.64 45.81 41.37 50.37 C 39.20 54.49 39.67 59.82 42.53 63.49 C 45.36 67.24 50.42 69.13 55.01 68.05 C 60.17 66.93 64.28 62.17 64.60 56.89 C 64.78 54.83 64.18 52.82 63.69 50.85 C 65.08 49.95 66.47 49.06 67.87 48.18 C 69.36 51.92 70.05 56.05 69.13 60.03 C 67.58 61.54 65.56 62.48 64.04 64.04 C 61.72 66.19 60.26 69.06 59.00 71.92 C 52.82 74.29 45.34 73.14 40.55 68.45 C 34.69 63.08 33.50 53.50 37.83 46.85 Z" />
<path fill="#ffffff" opacity="1.00" d=" M 73.47 44.38 C 74.87 43.53 76.25 42.66 77.64 41.80 C 80.27 46.75 81.62 52.34 81.30 57.95 C 79.66 57.98 78.02 57.99 76.38 58.00 C 76.72 53.28 75.64 48.58 73.47 44.38 Z" />
<path fill="#ffffff" opacity="1.00" d=" M 49.39 51.50 C 51.12 50.09 53.38 50.81 55.34 51.09 C 53.90 52.43 52.04 53.37 50.89 55.00 C 50.86 56.40 51.52 57.27 52.89 57.60 C 54.68 56.91 56.27 55.83 57.95 54.93 C 57.63 56.48 57.64 58.27 56.46 59.48 C 54.51 61.91 50.40 61.98 48.39 59.59 C 46.16 57.32 46.69 53.18 49.39 51.50 Z" />
<path fill="#ffffff" opacity="1.00" d=" M 76.30 61.40 C 82.76 60.37 89.60 63.30 93.31 68.68 C 97.21 74.03 97.64 81.64 94.37 87.40 C 91.52 92.76 85.71 96.39 79.64 96.55 C 73.62 96.86 67.57 93.80 64.24 88.77 C 60.54 83.45 60.21 76.03 63.37 70.38 C 65.98 65.60 70.90 62.15 76.30 61.40 M 77.29 66.37 C 77.60 68.51 78.06 70.66 77.72 72.84 C 77.12 72.84 75.90 72.85 75.29 72.85 L 75.17 74.19 C 75.71 74.19 76.79 74.19 77.33 74.19 C 76.74 78.44 76.07 82.71 76.04 87.01 C 76.72 88.65 77.93 89.98 78.95 91.40 C 79.96 89.97 81.20 88.65 81.85 87.00 C 81.83 82.83 81.20 78.69 80.48 74.59 C 81.42 74.16 82.31 73.64 83.16 73.05 C 82.36 72.98 80.76 72.83 79.96 72.75 C 79.67 70.64 80.11 68.56 80.54 66.50 C 79.45 66.49 78.37 66.45 77.29 66.37 Z" />
</g>
</svg>
