<?xml version="1.0" encoding="UTF-8" ?>
<!DOCTYPE svg PUBLIC "-//W3C//DTD SVG 1.1//EN" "http://www.w3.org/Graphics/SVG/1.1/DTD/svg11.dtd">
<svg width="120pt" height="120pt" viewBox="0 0 120 120" version="1.1" xmlns="http://www.w3.org/2000/svg">
<g id="#ffffffff">
<path fill="#ffffff" opacity="1.00" d=" M 57.47 23.50 C 71.53 22.31 85.68 30.28 92.23 42.72 C 98.89 54.75 97.80 70.55 89.53 81.54 C 81.31 93.08 66.07 98.92 52.25 95.76 C 35.60 92.39 22.66 76.20 23.43 59.16 C 23.41 40.86 39.21 24.36 57.47 23.50 M 45.55 45.36 C 46.38 49.12 49.33 52.15 50.69 55.78 C 48.80 59.21 46.54 62.42 44.77 65.93 C 46.84 69.40 49.38 72.55 51.47 76.01 C 50.32 78.81 49.03 81.55 47.90 84.36 C 50.62 81.84 53.02 79.00 55.19 76.00 C 53.54 72.56 51.43 69.36 49.78 65.92 C 51.61 62.42 53.93 59.21 55.91 55.80 C 53.92 52.26 51.34 49.11 49.10 45.73 C 50.08 42.60 51.60 39.68 52.80 36.64 C 50.25 39.43 47.67 42.22 45.55 45.36 M 55.54 45.87 C 57.31 49.20 59.41 52.37 60.91 55.84 C 58.98 59.24 56.75 62.46 54.96 65.93 C 57.06 69.41 59.67 72.55 61.70 76.07 C 60.52 78.90 59.19 81.66 58.08 84.52 C 60.80 81.91 63.23 79.02 65.45 75.97 C 63.76 72.55 61.68 69.35 59.97 65.95 C 61.81 62.46 64.14 59.26 66.11 55.86 C 64.19 52.25 61.53 49.11 59.32 45.69 C 60.29 42.63 61.76 39.77 62.94 36.79 C 60.20 39.58 57.62 42.55 55.54 45.87 M 65.82 45.87 C 67.54 49.22 69.66 52.36 71.10 55.86 C 69.21 59.27 66.97 62.47 65.18 65.94 C 67.28 69.38 69.81 72.54 71.86 76.01 C 70.81 78.57 69.72 81.11 68.78 83.71 C 71.45 81.47 73.69 78.80 75.69 75.96 C 73.98 72.55 71.90 69.35 70.19 65.94 C 72.03 62.46 74.34 59.27 76.27 55.84 C 74.46 52.29 71.74 49.31 69.79 45.85 C 70.09 42.65 72.17 39.87 73.09 36.80 C 70.41 39.60 67.85 42.55 65.82 45.87 M 68.25 84.25 C 68.82 84.72 68.82 84.72 68.25 84.25 Z" />
</g>
</svg>
