<?xml version="1.0" encoding="UTF-8" ?>
<!DOCTYPE svg PUBLIC "-//W3C//DTD SVG 1.1//EN" "http://www.w3.org/Graphics/SVG/1.1/DTD/svg11.dtd">
<svg width="120pt" height="120pt" viewBox="0 0 120 120" version="1.1" xmlns="http://www.w3.org/2000/svg">
<g id="#ffffffff">
<path fill="#ffffff" opacity="1.00" d=" M 70.76 40.22 C 73.45 34.96 75.85 29.55 78.76 24.40 C 76.55 34.87 74.29 45.32 72.05 55.78 C 69.33 52.94 66.64 50.07 63.91 47.24 C 59.91 59.39 55.93 71.55 51.91 83.70 C 47.60 77.76 43.32 71.81 39.02 65.87 C 33.91 74.38 28.94 82.96 23.73 91.41 C 28.53 75.96 33.71 60.64 38.66 45.24 C 42.15 49.56 45.64 53.87 49.14 58.18 C 53.10 48.07 56.99 37.94 60.94 27.83 C 64.24 31.95 67.46 36.12 70.76 40.22 Z" />
<path fill="#ffffff" opacity="1.00" d=" M 74.35 61.44 C 81.16 59.59 88.85 62.29 93.02 67.98 C 97.56 73.80 97.74 82.51 93.52 88.56 C 89.62 94.54 81.87 97.55 74.94 95.91 C 67.22 94.25 61.19 86.95 61.18 79.04 C 60.80 71.04 66.63 63.40 74.35 61.44 M 70.52 70.44 C 70.37 71.11 70.07 72.47 69.92 73.14 C 69.51 72.89 68.69 72.37 68.28 72.12 C 68.08 73.85 67.67 75.55 67.12 77.20 C 67.52 76.50 68.33 75.09 68.73 74.39 C 69.18 74.83 70.09 75.70 70.54 76.13 C 70.71 75.15 71.05 73.18 71.22 72.20 C 71.57 72.28 72.27 72.42 72.62 72.50 C 72.57 71.38 72.54 70.27 72.53 69.15 C 72.28 70.16 71.62 70.59 70.52 70.44 M 84.35 70.30 C 85.23 70.86 85.52 71.69 85.22 72.78 C 87.30 72.98 86.70 75.46 87.27 76.84 C 87.66 76.39 88.42 75.49 88.81 75.04 C 89.42 76.02 90.03 77.00 90.63 77.99 C 89.96 76.16 89.44 74.27 89.65 72.31 C 89.39 72.60 88.88 73.19 88.62 73.49 C 88.21 72.80 87.37 71.43 86.95 70.74 C 86.06 70.78 85.19 70.63 84.35 70.30 M 74.43 72.11 C 72.27 76.67 70.60 81.44 69.26 86.30 C 72.64 88.48 76.73 88.93 80.66 88.73 C 80.53 86.94 80.37 85.17 80.20 83.39 C 81.98 82.22 83.74 81.00 85.50 79.80 C 85.45 78.69 85.31 77.60 85.07 76.53 C 82.05 76.19 79.18 77.80 76.35 78.70 C 77.61 77.68 78.43 76.35 78.86 74.78 L 79.05 76.98 C 80.37 76.61 81.70 76.24 83.03 75.87 C 83.02 75.06 82.99 73.42 82.98 72.60 C 80.16 72.10 77.29 71.80 74.43 72.11 Z" />
</g>
</svg>
