<?xml version="1.0" encoding="UTF-8" ?>
<!DOCTYPE svg PUBLIC "-//W3C//DTD SVG 1.1//EN" "http://www.w3.org/Graphics/SVG/1.1/DTD/svg11.dtd">
<svg width="120pt" height="120pt" viewBox="0 0 120 120" version="1.1" xmlns="http://www.w3.org/2000/svg">
<g id="#ffffffff">
<path fill="#ffffff" opacity="1.00" d=" M 0.00 0.00 L 0.09 0.00 C 0.07 0.02 0.02 0.06 0.00 0.08 L 0.00 0.00 Z" />
<path fill="#ffffff" opacity="1.00" d=" M 45.54 23.39 C 56.64 26.16 63.39 38.74 61.64 49.66 C 60.15 58.34 51.63 63.26 48.93 71.38 C 46.17 67.80 45.73 63.14 45.19 58.81 C 41.71 62.33 38.93 66.87 38.70 71.94 C 38.23 78.27 41.16 84.40 45.50 88.87 C 37.22 87.15 29.35 82.09 25.68 74.29 C 21.81 66.61 23.19 57.06 28.23 50.25 C 31.40 45.97 33.67 40.88 33.28 35.44 C 38.07 38.26 40.81 43.52 40.89 49.02 C 46.56 47.04 49.40 40.66 49.22 34.98 C 49.22 30.83 47.60 26.92 45.54 23.39 Z" />
<path fill="#ffffff" opacity="1.00" d=" M 66.90 44.88 C 71.28 48.12 74.75 52.62 76.36 57.86 C 69.12 58.92 62.37 63.66 59.57 70.51 C 57.17 75.96 57.58 82.26 59.75 87.71 C 56.70 88.41 53.61 89.23 50.45 88.94 C 49.46 83.11 50.21 76.70 53.97 71.95 C 58.00 67.02 63.69 63.35 66.36 57.38 C 68.23 53.46 67.57 49.00 66.90 44.88 Z" />
<path fill="#ffffff" opacity="1.00" d=" M 75.40 61.39 C 82.14 59.97 89.53 62.92 93.40 68.63 C 98.02 75.00 97.49 84.41 92.31 90.30 C 87.19 96.53 77.60 98.30 70.57 94.39 C 64.64 91.33 60.80 84.69 61.18 78.02 C 61.32 70.06 67.60 62.83 75.40 61.39 M 74.81 67.72 C 73.70 70.76 74.90 74.15 74.04 77.28 C 73.75 74.65 74.08 71.98 73.68 69.36 C 73.29 69.28 72.51 69.13 72.12 69.05 C 70.36 72.24 71.94 76.49 71.41 80.02 C 70.43 78.79 70.37 75.63 68.11 75.99 C 66.79 76.61 67.35 78.21 67.78 79.21 C 68.76 81.54 69.61 83.94 70.81 86.17 C 72.70 88.62 76.18 88.27 78.91 87.95 C 78.46 86.03 78.09 84.01 79.14 82.21 C 83.64 80.52 82.93 74.70 81.91 71.02 C 79.30 71.31 80.69 74.34 80.18 76.09 C 79.47 73.86 80.04 71.48 79.76 69.19 C 79.20 68.04 78.44 67.93 77.47 68.86 C 77.20 71.68 77.69 74.54 77.06 77.32 C 76.31 74.13 77.99 70.12 76.00 67.44 L 74.81 67.72 M 84.14 75.72 C 84.35 77.44 84.55 79.19 83.95 80.86 C 81.82 79.19 81.47 82.49 79.66 82.72 C 77.55 85.80 80.45 89.16 83.45 90.00 C 82.02 88.08 82.04 85.72 83.19 83.70 C 83.48 84.30 84.05 85.50 84.34 86.10 C 85.57 84.25 87.67 82.50 87.18 80.04 C 87.04 78.13 85.37 76.97 84.14 75.72 M 84.75 90.17 C 89.67 90.11 92.26 84.15 88.79 80.58 C 88.83 84.48 83.79 86.09 84.75 90.17 Z" />
</g>
</svg>
