<?xml version="1.0" encoding="UTF-8" ?>
<!DOCTYPE svg PUBLIC "-//W3C//DTD SVG 1.1//EN" "http://www.w3.org/Graphics/SVG/1.1/DTD/svg11.dtd">
<svg width="120pt" height="120pt" viewBox="0 0 120 120" version="1.1" xmlns="http://www.w3.org/2000/svg">
<g id="#ffffffff">
<path fill="#ffffff" opacity="1.00" d=" M 24.41 29.25 C 34.44 30.87 44.63 28.20 53.47 23.49 C 56.00 25.06 58.82 26.05 61.65 26.94 C 58.64 31.77 55.33 36.47 53.32 41.83 C 55.42 44.66 57.38 47.59 59.35 50.51 C 55.75 53.80 51.68 56.52 47.49 58.99 C 47.66 65.27 49.82 71.23 51.73 77.13 C 51.56 71.86 51.59 66.52 52.87 61.37 C 57.10 58.27 61.64 55.61 65.85 52.47 C 64.17 48.07 61.85 43.95 59.32 39.99 C 62.80 36.29 66.22 32.49 70.14 29.24 C 74.17 30.00 78.33 29.96 82.36 29.23 C 83.97 38.81 83.67 48.96 79.76 57.97 C 73.97 57.63 68.06 59.83 64.04 64.05 C 58.89 68.89 56.78 76.48 58.30 83.35 C 56.64 84.52 54.97 85.68 53.30 86.83 C 43.52 80.11 34.13 72.08 28.58 61.40 C 23.40 51.62 22.41 40.04 24.41 29.25 Z" />
<path fill="#ffffff" opacity="1.00" d=" M 75.29 61.40 C 83.34 59.61 92.07 64.35 95.16 71.94 C 98.23 78.83 96.13 87.52 90.31 92.30 C 84.81 97.11 76.24 97.89 69.97 94.15 C 64.29 90.97 60.73 84.44 61.14 77.94 C 61.35 70.05 67.56 62.88 75.29 61.40 M 81.50 71.90 C 82.37 73.48 83.26 75.04 84.21 76.58 C 83.28 78.30 82.22 79.96 81.25 81.67 C 82.40 83.28 83.51 84.92 84.63 86.55 C 83.97 87.91 83.35 89.28 82.75 90.66 C 84.10 89.42 85.24 87.98 86.46 86.62 C 85.50 84.90 84.50 83.20 83.61 81.45 C 84.70 79.90 85.71 78.30 86.73 76.70 C 85.55 75.04 84.37 73.37 83.33 71.61 C 83.99 70.27 84.67 68.95 85.26 67.58 C 83.89 68.92 82.72 70.44 81.50 71.90 M 71.70 71.85 C 72.52 73.44 73.40 75.01 74.32 76.55 C 73.45 78.28 72.45 79.95 71.31 81.52 C 72.38 83.16 73.58 84.72 74.57 86.41 C 74.13 87.90 73.49 89.32 72.98 90.78 C 74.27 89.43 75.42 87.97 76.60 86.53 C 75.63 84.86 74.66 83.20 73.77 81.48 C 74.88 79.95 75.85 78.32 76.93 76.77 C 75.77 75.09 74.55 73.45 73.56 71.67 C 74.02 70.58 74.95 68.39 75.41 67.30 C 74.16 68.80 72.92 70.32 71.70 71.85 M 76.62 71.82 C 77.40 73.45 78.30 75.02 79.25 76.56 C 78.35 78.28 77.30 79.91 76.28 81.56 C 77.38 83.22 78.53 84.85 79.71 86.45 C 79.08 87.81 78.53 89.21 77.95 90.60 C 79.26 89.32 80.43 87.90 81.55 86.45 C 80.52 84.84 79.52 83.20 78.70 81.48 C 79.81 79.92 80.81 78.29 81.83 76.68 C 79.80 73.88 76.49 70.67 80.43 67.32 C 79.15 68.81 77.88 70.31 76.62 71.82 Z" />
</g>
</svg>
