<?xml version="1.0" encoding="UTF-8" ?>
<!DOCTYPE svg PUBLIC "-//W3C//DTD SVG 1.1//EN" "http://www.w3.org/Graphics/SVG/1.1/DTD/svg11.dtd">
<svg width="120pt" height="120pt" viewBox="0 0 120 120" version="1.1" xmlns="http://www.w3.org/2000/svg">
<g id="#ffffffff">
<path fill="#ffffff" opacity="1.00" d=" M 23.44 23.43 C 37.49 23.36 51.54 23.39 65.59 23.42 C 65.63 25.12 65.67 26.82 65.72 28.52 C 64.62 28.94 63.53 29.37 62.44 29.80 C 62.37 34.46 63.00 39.21 62.13 43.81 C 58.71 47.88 54.49 51.20 50.82 55.05 C 54.48 58.78 58.29 62.36 62.05 65.99 C 57.86 72.12 57.11 79.78 59.02 86.86 C 47.10 86.81 35.17 86.98 23.25 86.77 C 23.35 85.19 23.45 83.60 23.57 82.02 C 24.51 81.36 25.41 80.64 26.28 79.89 C 26.74 75.49 25.91 71.02 26.67 66.65 C 30.13 62.42 34.56 59.09 38.24 55.05 C 34.35 51.19 30.30 47.48 26.38 43.65 C 26.40 39.04 26.35 34.43 26.45 29.82 C 25.41 29.37 24.37 28.92 23.33 28.47 C 23.37 26.79 23.41 25.11 23.44 23.43 M 40.97 61.99 C 38.63 63.98 36.54 66.24 34.34 68.38 C 34.31 72.61 34.31 76.85 34.30 81.09 C 41.08 81.27 47.88 81.29 54.66 81.07 C 54.63 76.84 54.63 72.61 54.61 68.38 C 52.41 66.25 50.32 64.01 47.97 62.04 C 46.14 60.27 42.81 60.18 40.97 61.99 Z" />
<path fill="#ffffff" opacity="1.00" d=" M 76.38 61.38 C 85.21 59.93 94.32 66.26 96.14 75.00 C 97.87 82.22 94.45 90.30 88.01 94.03 C 82.17 97.60 74.24 97.40 68.69 93.34 C 63.35 89.62 60.41 82.82 61.39 76.38 C 62.33 68.79 68.79 62.33 76.38 61.38 M 76.72 71.91 C 77.55 73.56 78.39 75.21 79.22 76.86 C 78.30 78.52 77.38 80.18 76.48 81.85 C 77.51 83.34 78.53 84.83 79.56 86.32 C 79.10 87.57 78.64 88.81 78.19 90.06 C 79.26 89.03 80.31 87.98 81.36 86.94 C 80.63 85.28 79.79 83.66 79.26 81.92 C 79.52 80.00 80.88 78.45 81.75 76.76 C 80.77 75.17 79.79 73.59 78.82 72.01 C 79.15 70.67 79.49 69.33 79.82 67.99 C 78.78 69.29 77.75 70.60 76.72 71.91 M 81.78 71.91 C 82.57 73.56 83.36 75.20 84.14 76.85 C 83.24 78.50 82.34 80.16 81.45 81.82 C 82.43 83.28 83.42 84.74 84.41 86.20 C 84.02 87.51 83.62 88.82 83.24 90.14 C 84.31 89.08 85.36 88.00 86.41 86.93 C 85.65 85.26 84.78 83.62 84.21 81.86 C 84.56 79.97 85.83 78.42 86.72 76.76 C 85.72 75.16 84.72 73.57 83.71 71.98 C 84.09 70.65 84.46 69.33 84.83 68.00 C 83.81 69.30 82.80 70.61 81.78 71.91 M 71.79 71.84 C 72.61 73.51 73.44 75.17 74.27 76.84 C 73.32 78.50 72.37 80.17 71.44 81.84 C 72.49 83.32 73.53 84.81 74.58 86.29 C 74.21 87.66 73.85 89.02 73.51 90.40 C 74.40 89.26 75.31 88.14 76.04 86.90 C 75.64 85.18 74.88 83.56 74.41 81.86 C 74.80 80.08 75.84 78.54 76.41 76.82 C 75.91 75.05 74.79 73.53 73.92 71.93 C 74.13 70.78 74.34 69.63 74.55 68.47 C 73.63 69.59 72.71 70.71 71.79 71.84 Z" />
</g>
</svg>
