<?xml version="1.0" encoding="UTF-8" ?>
<!DOCTYPE svg PUBLIC "-//W3C//DTD SVG 1.1//EN" "http://www.w3.org/Graphics/SVG/1.1/DTD/svg11.dtd">
<svg width="120pt" height="120pt" viewBox="0 0 120 120" version="1.1" xmlns="http://www.w3.org/2000/svg">
<g id="#ffffffff">
<path fill="#ffffff" opacity="1.00" d=" M 29.42 51.44 C 35.06 42.18 41.26 33.22 45.97 23.43 C 51.96 36.67 61.71 47.84 67.42 61.21 C 59.26 66.45 55.74 77.32 59.15 86.38 C 52.82 90.80 44.29 91.86 37.16 88.84 C 28.96 85.47 23.25 76.88 23.44 68.00 C 23.30 61.93 26.39 56.48 29.42 51.44 M 31.51 59.41 C 27.69 66.67 29.06 77.03 36.14 81.81 C 38.78 79.63 38.01 75.98 38.23 72.98 C 38.73 60.20 41.94 47.71 45.39 35.45 C 40.75 43.43 35.81 51.24 31.51 59.41 Z" />
<path fill="#ffffff" opacity="1.00" d=" M 75.39 61.49 C 81.85 60.16 88.92 62.78 92.89 68.05 C 96.14 72.20 97.31 77.83 96.10 82.94 C 94.58 89.69 88.75 95.23 81.90 96.30 C 75.21 97.55 67.98 94.51 64.20 88.86 C 60.61 83.71 60.10 76.60 62.94 71.00 C 65.33 66.14 70.06 62.51 75.39 61.49 M 68.92 69.89 C 71.33 75.04 73.71 80.22 76.13 85.37 C 74.14 83.41 72.29 81.30 70.14 79.51 L 68.50 80.01 C 71.72 83.75 75.41 87.04 78.83 90.59 C 82.21 87.23 85.56 83.84 88.95 80.50 C 88.65 80.17 88.04 79.52 87.74 79.19 C 85.73 81.18 83.74 83.18 81.74 85.18 C 83.97 80.10 86.53 75.17 88.65 70.05 C 88.34 69.76 87.72 69.16 87.42 68.87 C 85.16 73.33 83.16 77.93 80.98 82.44 C 81.25 79.22 82.59 76.05 82.39 72.83 L 80.92 72.36 C 80.21 76.12 79.67 79.92 78.80 83.65 C 78.04 80.03 77.67 76.34 76.78 72.76 L 76.00 72.34 L 75.20 73.05 C 75.53 76.45 76.28 79.80 77.17 83.09 C 74.81 78.46 72.69 73.72 70.46 69.03 C 70.07 69.25 69.30 69.67 68.92 69.89 Z" />
</g>
</svg>
