<?xml version="1.0" encoding="UTF-8" ?>
<!DOCTYPE svg PUBLIC "-//W3C//DTD SVG 1.1//EN" "http://www.w3.org/Graphics/SVG/1.1/DTD/svg11.dtd">
<svg width="120pt" height="120pt" viewBox="0 0 120 120" version="1.1" xmlns="http://www.w3.org/2000/svg">
<g id="#ffffffff">
<path fill="#ffffff" opacity="1.00" d=" M 57.46 23.50 C 71.27 22.34 85.19 29.98 91.87 42.07 C 98.79 53.97 98.01 69.81 89.94 80.97 C 81.66 93.12 65.66 99.22 51.39 95.57 C 34.83 91.79 22.30 75.32 23.45 58.30 C 23.90 40.32 39.50 24.37 57.46 23.50 M 40.20 42.77 C 44.14 52.50 49.41 61.68 53.15 71.50 C 49.00 68.52 45.93 64.35 41.97 61.15 C 40.92 61.71 39.94 62.38 38.94 63.02 C 45.88 70.13 52.95 77.12 60.01 84.12 C 67.07 77.23 74.04 70.24 80.94 63.19 C 80.00 62.41 79.07 61.62 78.13 60.84 C 74.43 64.46 70.98 68.34 66.93 71.57 C 70.87 61.17 76.44 51.47 80.54 41.14 C 79.42 40.76 78.30 40.39 77.17 40.02 C 73.11 48.47 69.62 57.23 65.00 65.40 C 65.48 59.35 66.98 53.44 67.81 47.44 C 66.60 47.30 65.38 47.17 64.17 47.04 C 62.86 54.20 61.89 61.42 60.24 68.51 C 57.77 61.60 57.47 54.14 55.89 47.01 C 54.69 47.15 53.48 47.29 52.28 47.43 C 53.12 53.42 54.58 59.33 55.04 65.38 C 50.36 57.12 46.89 48.23 42.68 39.72 C 41.59 40.58 39.02 40.91 40.20 42.77 Z" />
</g>
</svg>
