<?xml version="1.0" encoding="UTF-8" ?>
<!DOCTYPE svg PUBLIC "-//W3C//DTD SVG 1.1//EN" "http://www.w3.org/Graphics/SVG/1.1/DTD/svg11.dtd">
<svg width="120pt" height="120pt" viewBox="0 0 120 120" version="1.1" xmlns="http://www.w3.org/2000/svg">
<g id="#ffffffff">
<path fill="#ffffff" opacity="1.00" d=" M 57.44 23.43 C 71.28 22.23 85.24 29.92 91.89 42.07 C 98.51 53.57 98.08 68.71 90.82 79.82 C 84.31 90.21 72.26 96.81 60.00 96.65 C 47.74 96.79 35.71 90.19 29.18 79.82 C 21.77 68.51 21.47 53.00 28.46 41.43 C 34.42 31.20 45.58 24.13 57.44 23.43 M 45.85 43.44 C 44.97 43.05 44.10 42.66 43.22 42.27 C 42.64 44.29 42.05 46.30 41.44 48.31 C 40.37 47.90 39.30 47.49 38.23 47.09 C 37.66 49.75 37.05 52.39 36.41 55.03 C 37.33 53.96 38.24 52.88 39.16 51.80 C 40.37 52.81 41.58 53.82 42.80 54.83 C 43.27 52.35 43.77 49.88 44.24 47.40 C 45.08 47.33 45.93 47.27 46.77 47.20 C 47.08 45.23 47.41 43.26 47.78 41.30 C 47.14 42.01 46.49 42.73 45.85 43.44 M 72.21 42.26 C 72.57 44.28 72.90 46.31 73.20 48.35 C 74.04 48.40 74.87 48.46 75.71 48.51 C 76.19 51.01 76.71 53.50 77.21 55.99 C 78.43 55.00 79.64 54.01 80.85 53.01 C 81.61 54.03 82.37 55.06 83.15 56.07 C 82.77 53.45 82.30 50.84 81.86 48.23 C 80.70 48.74 79.55 49.27 78.39 49.79 C 77.86 47.66 77.34 45.53 76.83 43.40 C 75.90 43.83 74.98 44.27 74.06 44.71 C 73.44 43.89 72.82 43.08 72.21 42.26 M 51.52 46.54 C 50.02 47.86 49.36 49.83 48.53 51.59 C 45.25 59.52 42.27 67.60 40.17 75.93 C 47.08 80.53 55.67 81.64 63.78 80.91 C 63.41 77.27 63.06 73.63 62.76 69.98 C 66.27 67.39 70.25 65.37 73.38 62.29 C 74.25 59.61 73.76 56.21 70.91 54.98 C 68.20 56.18 65.45 57.31 62.60 58.16 C 64.56 56.60 66.92 55.48 68.55 53.53 C 68.79 51.53 68.63 49.52 68.56 47.51 C 62.95 46.61 57.20 45.81 51.52 46.54 Z" />
<path fill="#ffffff" opacity="1.00" d=" M 56.90 54.95 C 58.05 54.48 59.19 54.01 60.32 53.51 C 60.56 55.54 61.12 57.51 61.67 59.47 C 60.05 58.00 58.48 56.46 56.90 54.95 Z" />
<path fill="#ffffff" opacity="1.00" d=" M 56.90 54.95 C 56.46 54.34 56.46 54.34 56.90 54.95 Z" />
</g>
</svg>
