<?xml version="1.0" encoding="UTF-8" ?>
<!DOCTYPE svg PUBLIC "-//W3C//DTD SVG 1.1//EN" "http://www.w3.org/Graphics/SVG/1.1/DTD/svg11.dtd">
<svg width="120pt" height="120pt" viewBox="0 0 120 120" version="1.1" xmlns="http://www.w3.org/2000/svg">
<g id="#ffffffff">
<path fill="#ffffff" opacity="1.00" d=" M 51.39 24.49 C 60.25 22.41 69.91 23.59 77.85 28.13 C 88.44 33.97 95.83 45.34 96.50 57.47 C 97.49 70.04 91.32 82.80 80.93 89.93 C 70.78 97.18 56.82 98.52 45.43 93.50 C 36.81 89.74 29.74 82.57 26.15 73.87 C 21.94 63.72 22.58 51.60 28.11 42.06 C 33.03 33.36 41.66 26.82 51.39 24.49 M 45.81 39.77 C 43.32 43.74 47.07 47.75 47.08 51.80 C 46.05 53.24 44.57 54.28 43.24 55.44 C 42.43 65.06 42.68 74.80 44.49 84.30 C 51.85 80.83 57.69 75.01 62.96 68.95 C 62.64 70.24 62.31 71.53 62.00 72.83 C 65.93 75.20 70.03 77.27 74.31 78.96 C 77.72 67.85 78.26 55.74 75.30 44.47 C 72.23 44.65 69.16 44.89 66.10 45.23 C 66.16 47.58 66.27 49.93 66.41 52.27 C 68.17 53.46 70.08 54.48 71.58 56.00 C 71.17 59.64 69.89 63.15 68.13 66.34 C 68.29 64.48 68.57 62.64 68.88 60.80 C 66.45 58.66 63.86 56.72 61.14 54.97 C 59.10 57.95 57.70 61.39 58.86 65.02 C 57.56 66.12 56.26 67.21 54.95 68.30 C 56.95 64.91 57.37 61.00 58.00 57.20 C 56.93 56.47 55.87 55.73 54.81 54.99 C 56.48 54.86 58.15 54.77 59.81 54.68 C 61.14 49.94 63.41 44.91 62.12 39.94 C 58.34 35.27 49.16 33.85 45.81 39.77 Z" />
</g>
</svg>
