<?xml version="1.0" encoding="UTF-8" ?>
<!DOCTYPE svg PUBLIC "-//W3C//DTD SVG 1.1//EN" "http://www.w3.org/Graphics/SVG/1.1/DTD/svg11.dtd">
<svg width="120pt" height="120pt" viewBox="0 0 120 120" version="1.1" xmlns="http://www.w3.org/2000/svg">
<g id="#ffffffff">
<path fill="#ffffff" opacity="1.00" d=" M 57.46 23.50 C 71.02 22.37 84.75 29.66 91.52 41.44 C 99.06 53.82 98.07 70.71 89.13 82.12 C 80.36 94.04 63.98 99.43 49.83 95.16 C 34.02 90.75 22.36 74.77 23.45 58.31 C 23.89 40.32 39.50 24.36 57.46 23.50 M 36.23 53.25 C 32.78 57.94 33.53 65.22 37.97 69.03 C 41.38 72.01 46.53 72.39 50.61 70.64 C 54.31 69.08 56.96 65.95 60.00 63.45 C 63.24 66.11 66.06 69.50 70.10 70.98 C 74.93 72.81 80.81 70.97 83.77 66.75 C 87.29 62.06 86.54 54.73 82.04 50.94 C 78.61 47.98 73.46 47.60 69.40 49.38 C 65.71 50.95 63.05 54.06 60.00 56.55 C 56.96 54.04 54.32 50.90 50.63 49.30 C 45.70 47.04 39.33 48.79 36.23 53.25 Z" />
<path fill="#ffffff" opacity="1.00" d=" M 39.04 60.06 C 38.88 55.63 43.55 52.10 47.78 53.26 C 51.47 54.31 54.14 57.32 56.71 60.00 C 53.88 63.19 50.47 66.65 45.94 66.91 C 42.17 67.25 38.82 63.78 39.04 60.06 Z" />
<path fill="#ffffff" opacity="1.00" d=" M 63.37 60.00 C 66.32 56.62 70.08 52.88 74.93 53.10 C 78.40 53.22 81.14 56.54 80.96 59.94 C 81.07 63.97 77.16 67.48 73.17 66.86 C 69.03 66.22 66.08 62.90 63.37 60.00 Z" />
</g>
</svg>
