<?xml version="1.0" encoding="UTF-8" ?>
<!DOCTYPE svg PUBLIC "-//W3C//DTD SVG 1.1//EN" "http://www.w3.org/Graphics/SVG/1.1/DTD/svg11.dtd">
<svg width="120pt" height="120pt" viewBox="0 0 120 120" version="1.1" xmlns="http://www.w3.org/2000/svg">
<g id="#ffffffff">
<path fill="#ffffff" opacity="1.00" d=" M 57.46 23.47 C 73.09 22.14 88.68 32.20 94.15 46.85 C 99.53 60.23 95.85 76.51 85.34 86.34 C 74.72 96.89 57.40 99.67 44.03 92.92 C 29.78 86.17 20.99 69.59 23.89 54.00 C 26.34 37.72 41.01 24.38 57.46 23.47 M 50.86 39.12 C 50.38 44.66 50.81 50.23 50.80 55.79 L 50.01 55.77 C 49.85 50.53 50.87 45.04 48.85 40.04 C 47.40 40.40 44.78 39.87 44.78 42.10 C 44.05 48.46 45.20 54.92 44.14 61.27 C 42.79 59.35 42.23 56.99 40.81 55.13 C 38.99 53.02 35.25 55.21 36.20 57.86 C 37.67 63.30 40.29 68.36 42.43 73.56 C 45.44 80.18 54.40 80.93 60.34 78.21 C 59.34 75.25 58.37 71.83 59.92 68.86 C 61.60 65.40 63.90 61.95 63.16 57.89 C 64.55 58.38 65.94 58.86 67.33 59.33 C 67.30 54.91 67.76 50.46 67.18 46.07 C 67.13 44.29 64.02 43.53 63.44 45.37 C 62.54 48.81 63.09 52.46 63.00 55.99 L 62.00 55.99 C 61.83 50.74 62.40 45.44 61.71 40.21 C 61.38 38.26 59.04 38.49 57.58 38.36 C 56.30 44.13 57.04 50.07 56.93 55.93 L 56.01 55.89 C 55.91 50.33 56.33 44.73 55.76 39.19 C 56.14 36.10 50.73 36.13 50.86 39.12 M 70.99 54.71 C 71.56 58.05 72.14 61.91 69.61 64.65 C 66.66 65.69 67.60 59.39 64.59 60.33 C 63.98 65.36 59.27 69.35 60.44 74.61 C 61.36 78.85 65.16 81.56 69.04 82.93 C 66.89 78.79 66.11 73.60 69.67 69.97 C 70.18 71.70 70.64 73.44 71.10 75.19 C 72.82 73.20 74.49 71.14 75.83 68.86 C 79.14 64.04 76.34 56.69 70.99 54.71 M 80.09 64.61 C 79.91 68.16 78.37 71.37 75.56 73.57 C 72.65 75.86 71.74 79.53 72.07 83.08 C 75.50 83.14 78.99 81.88 81.24 79.21 C 85.02 75.20 84.72 67.86 80.09 64.61 Z" />
</g>
</svg>
