<?xml version="1.0" encoding="UTF-8" ?>
<!DOCTYPE svg PUBLIC "-//W3C//DTD SVG 1.1//EN" "http://www.w3.org/Graphics/SVG/1.1/DTD/svg11.dtd">
<svg width="120pt" height="120pt" viewBox="0 0 120 120" version="1.1" xmlns="http://www.w3.org/2000/svg">
<g id="#ffffffff">
<path fill="#ffffff" opacity="1.00" d=" M 57.46 23.49 C 73.37 22.10 89.19 32.58 94.43 47.60 C 99.75 61.74 95.04 78.81 83.25 88.26 C 72.74 97.10 57.13 99.12 44.72 93.25 C 30.90 87.07 21.91 71.73 23.56 56.63 C 24.83 39.29 40.09 24.37 57.46 23.49 M 35.66 46.56 C 33.23 47.76 33.98 50.87 34.03 53.04 C 34.71 59.81 35.39 67.44 40.67 72.36 C 41.64 73.36 43.81 74.82 44.64 72.93 C 43.87 68.07 42.72 63.19 43.23 58.22 C 46.08 58.13 49.31 57.41 51.71 59.39 C 53.71 61.08 56.36 60.39 58.59 59.65 C 60.76 58.73 62.84 60.48 65.04 60.49 C 67.67 60.66 69.34 57.89 71.96 57.95 C 73.56 57.83 75.16 58.03 76.76 58.15 C 77.19 63.09 76.22 67.96 75.32 72.79 C 75.99 74.90 78.34 73.40 79.32 72.35 C 84.78 67.12 85.39 59.11 86.04 52.02 C 86.23 49.93 86.30 46.78 83.63 46.31 C 78.69 45.29 74.79 49.84 69.92 49.56 C 63.31 49.55 56.69 49.55 50.07 49.56 C 44.99 49.93 40.81 44.74 35.66 46.56 Z" />
</g>
</svg>
