<?xml version="1.0" encoding="UTF-8" ?>
<!DOCTYPE svg PUBLIC "-//W3C//DTD SVG 1.1//EN" "http://www.w3.org/Graphics/SVG/1.1/DTD/svg11.dtd">
<svg width="120pt" height="120pt" viewBox="0 0 120 120" version="1.1" xmlns="http://www.w3.org/2000/svg">
<g id="#ffffffff">
<path fill="#ffffff" opacity="1.00" d=" M 41.91 29.86 C 50.92 22.09 65.15 21.21 74.86 28.20 C 84.68 34.61 88.84 47.70 85.35 58.77 C 83.35 58.37 81.35 58.04 79.32 57.88 C 82.66 49.12 79.33 38.59 71.62 33.30 C 64.87 28.22 54.95 28.11 48.00 32.86 C 42.17 36.68 38.53 43.48 38.42 50.45 C 41.43 50.47 44.44 50.46 47.45 50.47 C 43.43 54.50 39.40 58.52 35.37 62.55 C 31.38 58.53 27.41 54.49 23.43 50.46 C 26.46 50.47 29.49 50.47 32.52 50.47 C 32.55 42.68 35.93 34.91 41.91 29.86 Z" />
<path fill="#ffffff" opacity="1.00" d=" M 59.51 37.01 C 59.94 37.07 60.81 37.17 61.24 37.22 C 61.22 37.68 61.19 38.59 61.18 39.05 C 63.92 39.07 66.66 39.07 69.40 39.06 C 69.40 40.42 69.39 41.77 69.39 43.12 C 66.66 43.14 63.93 43.13 61.20 43.14 C 61.20 44.92 61.20 46.71 61.20 48.50 C 64.19 48.60 68.13 48.10 69.98 51.03 C 71.17 53.87 71.16 57.64 68.87 59.94 C 66.75 61.77 63.74 61.52 61.14 61.68 C 61.17 62.19 61.21 63.21 61.23 63.73 C 60.79 63.73 59.89 63.75 59.45 63.75 C 59.44 63.21 59.41 62.13 59.40 61.59 C 56.61 61.60 53.81 61.60 51.02 61.60 C 51.02 60.27 51.01 58.93 51.01 57.60 C 53.82 57.60 56.62 57.60 59.43 57.60 C 59.43 55.93 59.43 54.26 59.44 52.59 C 56.54 52.55 52.90 52.67 51.11 49.91 C 49.69 47.33 49.78 43.86 51.40 41.40 C 53.28 38.99 56.67 39.18 59.40 38.97 C 59.43 38.48 59.48 37.50 59.51 37.01 M 54.73 45.99 C 54.71 48.57 57.57 48.53 59.43 48.62 C 59.43 46.73 59.42 44.83 59.39 42.94 C 57.48 43.21 54.73 43.40 54.73 45.99 M 61.21 52.42 C 61.20 54.19 61.20 55.96 61.23 57.73 C 63.00 57.53 66.30 57.63 66.04 55.02 C 66.45 52.23 62.95 52.65 61.21 52.42 Z" />
<path fill="#ffffff" opacity="1.00" d=" M 75.29 61.41 C 82.33 59.84 89.99 63.25 93.76 69.34 C 97.83 75.44 97.40 84.07 92.81 89.78 C 88.12 96.00 79.10 98.31 71.98 95.18 C 65.28 92.40 60.75 85.20 61.24 77.95 C 61.48 70.10 67.63 62.98 75.29 61.41 M 66.37 73.29 C 66.17 77.78 66.67 83.92 71.49 85.84 C 71.15 83.20 70.67 80.58 70.70 77.91 C 71.58 77.88 73.33 77.81 74.20 77.77 C 74.93 79.58 77.36 79.24 78.69 78.34 C 80.33 79.16 82.57 79.49 83.79 77.80 C 84.62 77.79 86.27 77.76 87.09 77.75 C 87.32 80.55 86.09 83.29 86.67 86.06 C 90.36 83.79 91.20 79.27 91.50 75.30 C 91.48 74.31 91.78 73.01 90.82 72.35 C 88.40 71.33 86.42 73.72 84.08 73.72 C 80.19 73.65 76.25 73.98 72.38 73.54 C 70.61 72.99 67.46 70.73 66.37 73.29 Z" />
<path fill="#ffffff" opacity="1.00" d=" M 40.39 69.62 C 41.77 68.14 43.19 66.70 44.59 65.24 C 48.38 69.21 53.75 71.32 59.19 71.54 C 58.61 73.52 58.18 75.53 57.82 77.55 C 51.32 76.97 45.07 74.19 40.39 69.62 Z" />
</g>
</svg>
