<?xml version="1.0" encoding="UTF-8" ?>
<!DOCTYPE svg PUBLIC "-//W3C//DTD SVG 1.1//EN" "http://www.w3.org/Graphics/SVG/1.1/DTD/svg11.dtd">
<svg width="120pt" height="120pt" viewBox="0 0 120 120" version="1.1" xmlns="http://www.w3.org/2000/svg">
<g id="#ffffffff">
<path fill="#ffffff" opacity="1.00" d=" M 23.41 40.43 C 33.22 34.68 43.04 28.96 52.94 23.38 C 62.69 28.97 72.37 34.66 82.13 40.23 C 82.31 46.15 82.26 52.07 82.20 58.00 C 80.38 57.95 78.56 57.91 76.74 57.87 C 76.71 54.23 76.71 50.58 76.70 46.93 C 70.59 50.24 64.60 53.76 58.63 57.32 C 61.11 58.96 63.67 60.47 66.20 62.03 C 64.85 63.33 63.52 64.65 62.21 65.98 C 59.12 64.16 56.00 62.39 52.89 60.61 C 45.83 64.56 38.84 68.62 31.90 72.77 C 38.84 76.87 45.83 80.90 52.88 84.81 C 54.61 83.88 56.34 82.96 58.07 82.03 C 58.58 83.75 59.09 85.46 59.61 87.17 C 57.41 88.55 55.20 89.90 53.01 91.28 C 43.10 85.77 33.37 79.95 23.51 74.36 C 23.29 63.05 23.47 51.74 23.41 40.43 M 32.09 42.00 C 38.90 46.25 45.93 50.16 52.94 54.07 C 59.85 50.09 66.86 46.26 73.63 42.02 C 66.86 37.73 59.85 33.85 52.94 29.81 C 45.94 33.79 38.91 37.73 32.09 42.00 M 29.01 46.87 C 28.93 53.85 28.93 60.84 29.03 67.83 C 35.06 64.32 41.24 61.04 47.17 57.36 C 41.15 53.81 35.13 50.25 29.01 46.87 Z" />
<path fill="#ffffff" opacity="1.00" d=" M 75.39 61.48 C 84.81 59.29 94.88 66.30 96.30 75.81 C 98.25 85.30 91.01 95.33 81.40 96.47 C 71.84 98.09 62.04 90.42 61.31 80.75 C 60.17 71.96 66.65 63.05 75.39 61.48 M 66.32 79.80 C 66.59 82.76 69.62 84.99 72.53 84.50 C 75.01 84.03 76.92 82.21 78.95 80.84 C 81.49 82.71 84.47 85.64 87.90 84.14 C 92.44 82.70 92.77 75.39 88.29 73.67 C 84.77 72.13 81.59 74.89 78.96 76.88 C 76.81 75.43 74.74 73.35 71.99 73.24 C 68.63 73.15 65.73 76.47 66.32 79.80 Z" />
<path fill="#ffffff" opacity="1.00" d=" M 70.34 76.04 C 72.71 74.47 75.19 76.69 76.80 78.33 C 76.72 81.39 72.07 83.20 69.62 81.39 C 68.59 79.78 68.47 77.08 70.34 76.04 Z" />
<path fill="#ffffff" opacity="1.00" d=" M 80.36 78.98 C 82.25 77.50 84.09 74.82 86.85 75.66 C 89.82 76.27 89.79 81.53 86.74 81.96 C 84.13 82.91 82.27 80.25 80.36 78.98 Z" />
</g>
</svg>
