<?xml version="1.0" encoding="UTF-8" ?>
<!DOCTYPE svg PUBLIC "-//W3C//DTD SVG 1.1//EN" "http://www.w3.org/Graphics/SVG/1.1/DTD/svg11.dtd">
<svg width="120pt" height="120pt" viewBox="0 0 120 120" version="1.1" xmlns="http://www.w3.org/2000/svg">
<g id="#ffffffff">
<path fill="#ffffff" opacity="1.00" d=" M 57.46 23.49 C 70.78 22.40 84.23 29.43 91.13 40.82 C 98.53 52.44 98.37 68.31 90.75 79.78 C 82.83 92.40 66.77 99.15 52.23 95.76 C 35.27 92.35 22.27 75.61 23.44 58.30 C 23.90 40.31 39.50 24.37 57.46 23.49 M 56.57 34.70 C 57.17 38.68 58.75 42.75 57.56 46.79 C 56.11 47.94 54.04 47.30 52.33 47.55 C 52.32 48.16 52.31 49.38 52.31 49.99 C 53.79 50.14 55.27 50.28 56.75 50.43 C 55.54 58.25 54.33 66.11 54.00 74.03 C 53.52 78.81 57.58 82.16 60.10 85.69 C 62.29 82.63 65.42 79.85 66.12 76.02 C 66.06 67.44 64.56 58.94 63.33 50.47 C 64.81 50.30 66.30 50.12 67.79 49.93 C 67.71 49.30 67.55 48.05 67.47 47.42 C 65.80 47.47 64.12 47.52 62.44 47.57 C 61.64 43.24 62.49 38.93 63.40 34.70 C 61.14 34.24 58.82 34.24 56.57 34.70 Z" />
</g>
</svg>
